{"glyphs":{"0":{"ha":590,"x_min":39,"x_max":560,"o":"m 556 472 q 474 746 536 642 q 276 869 399 869 q 86 713 147 869 q 39 396 39 590 q 97 126 39 239 q 281 -19 163 1 q 299 -22 286 -19 q 315 -22 307 -22 q 499 111 431 -22 q 560 394 560 231 q 556 472 560 435 m 433 444 l 433 428 q 434 372 433 399 q 435 318 435 344 l 435 301 q 414 117 435 169 q 303 43 385 43 q 181 139 211 43 q 161 346 161 199 l 161 433 q 169 628 161 558 q 299 817 192 817 q 418 688 390 817 q 433 444 433 618 "},"1":{"ha":425,"x_min":69,"x_max":354,"o":"m 354 38 l 354 44 q 269 78 290 44 q 257 156 257 99 l 251 743 q 253 799 251 744 q 253 854 254 853 q 160 794 251 856 q 69 735 131 775 l 76 721 q 101 733 93 731 q 142 744 128 744 q 156 736 153 744 q 160 708 160 728 l 160 689 q 161 658 161 681 q 160 626 161 646 q 160 608 160 606 q 169 328 160 575 q 172 156 172 257 q 160 76 172 100 q 90 43 142 43 l 90 33 l 181 33 l 354 38 "},"2":{"ha":614,"x_min":36,"x_max":581,"o":"m 581 183 q 550 161 561 168 q 438 114 479 114 l 181 108 q 265 171 233 144 q 422 344 361 251 q 487 472 463 404 q 511 608 511 539 q 467 739 511 682 q 360 822 428 789 q 297 836 332 836 q 169 800 239 836 q 88 741 113 771 q 47 657 64 711 q 36 608 42 639 l 71 600 q 103 665 86 644 q 263 729 156 729 q 369 676 329 729 q 408 525 408 622 q 354 336 408 424 q 215 190 285 263 q 140 118 199 169 q 53 26 47 35 l 261 22 l 482 24 q 538 110 492 33 q 581 183 551 135 "},"3":{"ha":578,"x_min":35,"x_max":489,"o":"m 489 733 q 426 839 489 794 q 306 878 371 878 q 114 800 188 878 q 65 722 90 775 l 72 713 q 133 757 111 743 q 232 801 200 801 q 346 761 318 801 q 363 676 363 738 q 250 513 363 586 q 139 458 214 489 q 263 414 222 438 q 385 200 385 342 q 324 67 385 121 q 243 25 276 25 q 176 40 200 25 q 139 75 174 42 q 81 101 113 101 q 47 85 58 101 q 35 53 35 69 q 65 1 35 15 q 112 -16 96 -12 q 164 -19 128 -19 l 183 -19 q 392 47 321 -19 q 479 328 479 129 q 408 439 479 365 q 339 504 386 463 q 414 568 389 542 q 489 733 489 649 "},"4":{"ha":578,"x_min":8,"x_max":561,"o":"m 561 228 q 556 288 558 260 q 556 328 554 315 l 464 328 l 458 778 l 461 906 l 378 900 q 296 763 336 831 q 133 493 192 588 q 11 306 38 338 q 13 285 13 294 q 10 254 11 272 q 8 225 10 236 l 144 225 l 372 228 q 375 140 374 188 q 376 42 376 93 q 375 8 376 26 q 399 15 386 10 q 428 19 413 19 l 472 17 l 472 139 l 472 228 l 561 228 m 378 794 l 372 328 l 83 322 l 378 794 "},"5":{"ha":754,"x_min":50,"x_max":608,"o":"m 608 297 q 500 510 608 428 q 297 599 424 568 q 189 617 224 617 q 210 683 203 661 q 244 761 232 751 l 556 761 l 600 878 l 233 878 q 194 772 229 878 q 150 667 160 667 q 133 613 143 646 q 106 522 114 542 q 424 401 319 522 q 494 228 494 319 q 431 82 494 125 q 313 53 388 53 q 283 54 304 53 q 256 56 263 56 q 185 100 213 56 q 122 161 153 151 q 74 140 99 168 q 50 94 50 111 q 140 21 50 39 q 283 11 188 11 q 521 92 433 11 q 608 297 608 172 "},"6":{"ha":563,"x_min":28,"x_max":506,"o":"m 489 864 l 489 894 q 417 886 443 890 q 288 850 335 874 q 174 763 240 826 q 94 661 108 699 q 44 485 61 569 q 28 306 28 400 q 42 139 28 181 q 119 49 56 97 q 260 0 183 0 q 439 72 360 0 q 490 152 475 104 q 506 260 506 200 q 494 367 506 318 q 467 438 482 417 q 397 501 435 482 q 318 521 360 521 q 189 481 257 521 q 133 440 167 468 q 160 543 129 454 q 257 719 197 651 q 410 832 317 786 q 489 864 440 847 m 383 361 q 413 210 413 296 q 389 96 413 139 q 307 46 361 46 q 192 85 239 46 q 124 192 146 124 q 111 274 111 232 q 133 363 111 324 q 196 421 154 403 q 251 431 221 431 q 333 411 296 431 q 383 361 369 392 "},"7":{"ha":708,"x_min":38,"x_max":653,"o":"m 650 875 q 630 878 649 878 q 579 878 611 878 l 422 883 l 258 881 q 215 881 236 881 q 174 882 194 882 q 136 879 140 882 q 85 784 132 876 q 39 689 38 692 q 49 685 42 682 q 133 753 90 718 q 244 783 188 783 q 313 786 263 783 q 389 789 363 789 q 517 785 433 789 q 544 783 528 785 q 499 696 519 739 q 460 612 479 653 q 422 532 442 571 q 381 443 399 483 l 306 288 l 250 176 l 181 35 l 242 35 l 343 233 l 446 443 l 513 583 q 535 625 519 597 q 563 692 544 644 q 601 771 569 710 q 650 875 653 869 "},"8":{"ha":619,"x_min":43,"x_max":574,"o":"m 574 190 q 565 283 574 256 q 524 356 557 310 q 442 439 504 382 q 379 494 421 458 q 472 563 442 535 q 564 735 564 647 q 476 875 564 832 q 301 906 414 906 q 136 845 214 906 q 58 700 58 785 q 139 535 58 629 q 218 456 165 504 q 131 376 160 407 q 43 200 43 281 q 110 65 43 113 q 364 10 188 10 q 500 58 435 10 q 574 190 574 114 m 483 735 q 406 571 483 646 q 329 515 381 547 q 253 582 278 558 q 174 694 178 656 q 239 832 174 786 q 354 865 288 865 q 450 822 413 865 q 483 735 483 783 m 443 225 q 411 108 443 147 q 304 69 379 69 q 199 100 232 69 q 154 244 154 140 q 210 356 154 274 q 264 431 228 382 q 354 367 325 392 q 443 225 443 290 "},"9":{"ha":563,"x_min":36,"x_max":514,"o":"m 514 594 q 500 761 514 719 q 422 851 486 803 q 282 900 358 900 q 103 828 182 900 q 51 748 67 796 q 36 640 36 700 q 48 533 36 582 q 75 463 60 483 q 144 399 107 418 q 224 379 182 379 q 353 419 285 379 q 408 460 375 432 q 382 357 413 446 q 285 181 344 249 q 132 68 225 114 q 53 36 101 53 l 53 6 q 125 14 99 10 q 254 50 207 26 q 367 138 301 74 q 447 239 433 201 q 497 415 481 331 q 514 594 514 500 m 418 708 q 431 626 431 668 q 409 537 431 576 q 346 479 388 497 q 290 469 321 469 q 209 489 246 469 q 158 539 172 508 q 129 690 129 604 q 155 808 129 761 q 235 854 181 854 q 349 815 303 854 q 418 708 396 776 "}," ":{"ha":694,"x_min":0,"x_max":0,"o":""},"!":{"ha":332,"x_min":104,"x_max":243,"o":"m 243 806 q 231 927 243 893 q 181 961 219 961 q 104 806 104 961 q 113 667 104 728 q 132 539 117 628 q 150 382 142 457 q 165 258 158 307 l 182 258 q 196 365 192 326 q 215 544 210 481 q 233 676 224 608 q 243 806 243 743 m 221 118 q 172 144 203 144 q 136 133 154 144 q 110 85 110 115 q 121 49 110 67 q 169 22 139 22 q 206 33 188 22 q 232 82 232 51 q 221 118 232 100 "},"\"":{"ha":328,"x_min":11,"x_max":292,"o":"m 292 872 l 292 1010 l 192 1014 l 183 876 l 217 685 l 263 685 l 292 872 m 119 867 l 119 1004 l 19 1008 l 11 871 l 44 679 l 90 679 l 119 867 "},"#":{"ha":597,"x_min":15,"x_max":575,"o":"m 575 563 l 575 618 l 472 618 l 478 661 q 539 928 508 794 l 483 917 l 456 811 q 438 737 443 760 q 415 618 433 714 l 199 618 l 206 672 q 267 939 236 806 l 211 928 l 183 822 q 164 741 168 763 q 142 618 160 719 l 15 618 l 15 563 l 131 563 l 122 511 l 103 410 l 15 410 l 17 360 l 94 360 l 33 22 l 83 22 l 133 300 l 143 360 l 368 360 l 306 11 l 356 11 l 406 289 l 418 360 l 565 360 l 564 410 l 429 410 l 463 563 l 575 563 m 406 563 l 394 500 l 378 410 l 154 410 l 188 563 l 406 563 "},"$":{"ha":611,"x_min":28,"x_max":604,"o":"m 604 238 q 601 318 604 289 q 588 373 597 347 q 553 428 579 399 q 503 478 528 458 q 424 526 479 497 q 326 574 375 550 l 326 917 q 407 903 364 917 q 467 867 450 890 q 483 836 475 853 q 494 803 490 819 l 517 678 l 538 678 l 540 779 l 539 828 l 539 903 q 519 921 539 908 q 469 943 490 940 q 392 966 428 956 q 335 976 357 976 l 326 976 l 326 1042 l 271 1035 l 271 971 q 138 914 196 958 q 96 879 114 897 q 67 842 78 861 q 40 775 51 817 q 28 703 28 733 q 46 616 28 657 q 90 547 64 575 q 158 496 108 528 q 243 444 207 464 l 271 431 l 271 36 q 222 53 239 47 q 151 88 169 72 q 97 161 114 118 q 81 197 89 179 q 73 224 78 204 q 66 265 68 244 q 63 299 64 286 q 49 308 61 311 q 36 307 38 304 q 30 267 32 288 q 28 225 28 247 l 28 200 q 29 146 28 164 q 33 121 31 128 q 60 85 35 114 q 93 55 86 57 q 118 40 100 53 q 175 7 154 15 q 222 -7 196 -1 q 274 -12 247 -12 l 271 -90 l 326 -90 l 326 -14 q 513 68 422 -14 q 604 238 604 150 m 271 597 q 179 667 211 629 q 142 760 142 710 q 183 835 142 792 q 271 901 224 878 l 271 597 m 476 271 q 490 206 490 232 q 483 161 490 182 q 463 115 476 140 q 402 53 440 76 q 326 31 364 31 l 326 401 q 368 371 346 386 q 414 340 390 356 q 476 271 463 308 "},"%":{"ha":1011,"x_min":72,"x_max":961,"o":"m 497 761 q 453 911 486 856 q 343 979 411 979 q 239 892 272 979 q 213 719 213 824 q 247 567 213 632 q 346 490 281 503 q 365 489 353 489 q 467 561 429 489 q 500 717 500 625 q 499 737 500 724 q 497 761 497 750 m 903 289 q 858 439 892 383 q 749 507 817 507 q 644 419 678 507 q 618 247 618 351 q 652 95 618 160 q 751 18 686 31 q 771 17 758 17 q 872 89 835 17 q 906 244 906 153 q 904 265 906 251 q 903 289 903 278 m 961 828 l 889 828 l 72 11 l 144 11 l 961 828 m 429 746 q 430 703 429 724 q 431 663 431 682 q 418 564 431 594 q 357 525 401 525 q 290 579 307 525 q 279 694 279 614 l 279 739 q 285 846 279 800 q 356 950 297 950 q 422 879 407 950 q 429 746 429 847 m 835 274 q 835 231 835 251 q 836 190 836 210 q 824 92 836 122 q 763 53 807 53 q 696 107 713 53 q 685 222 685 142 l 685 267 q 690 374 685 328 q 761 478 703 478 q 828 407 813 478 q 835 274 835 375 "},"&":{"ha":872,"x_min":22,"x_max":863,"o":"m 863 138 q 849 154 856 140 q 843 168 847 158 q 821 121 832 136 q 725 75 786 75 q 606 129 668 75 q 525 213 565 171 q 600 288 563 250 q 663 368 644 332 q 696 485 679 426 q 797 553 722 553 l 794 568 l 706 568 l 531 568 l 531 560 q 613 532 588 560 q 631 468 631 511 q 588 353 631 413 q 500 256 567 324 q 401 371 444 308 q 343 508 349 449 q 415 528 385 513 q 474 576 444 544 q 517 631 510 614 q 529 713 529 657 q 472 838 529 800 q 333 867 428 867 q 228 819 268 867 q 188 708 188 772 q 203 642 188 682 q 218 583 218 601 q 228 549 218 576 q 236 525 231 540 q 181 500 215 519 q 113 446 133 474 q 53 343 79 400 q 22 229 22 275 q 131 32 22 92 q 176 14 153 19 q 221 8 199 8 q 272 15 244 8 q 335 33 300 21 q 424 94 369 46 q 468 138 440 110 q 517 75 493 96 q 710 13 589 13 q 831 75 783 13 q 863 138 846 96 m 465 701 q 449 629 465 658 q 401 578 432 600 q 356 554 388 567 q 326 543 346 550 q 308 582 314 568 q 285 642 292 618 q 267 696 278 667 q 264 721 264 706 q 269 761 264 739 q 299 816 281 803 q 360 829 318 829 q 444 774 414 829 q 465 701 465 736 m 406 176 q 359 132 406 156 q 289 108 313 108 q 169 193 201 108 q 150 356 150 246 q 196 453 150 410 q 240 483 210 467 q 244 461 243 471 q 267 393 251 433 q 306 321 275 371 q 353 251 338 271 q 376 224 364 238 q 406 176 406 189 "},"'":{"ha":133,"x_min":11,"x_max":119,"o":"m 119 867 l 119 1004 l 19 1008 l 11 871 l 44 679 l 90 679 l 119 867 "},"(":{"ha":389,"x_min":33,"x_max":322,"o":"m 322 -183 q 322 -161 322 -172 q 322 -139 322 -150 q 268 -92 311 -139 q 169 69 207 -26 q 117 372 117 201 l 117 436 q 119 505 117 481 q 133 578 122 529 q 192 744 158 688 q 317 872 233 817 l 317 928 q 242 875 301 928 q 106 694 158 801 q 33 356 33 549 q 72 126 33 244 q 172 -67 111 8 q 261 -142 194 -94 q 322 -183 282 -157 "},")":{"ha":361,"x_min":32,"x_max":322,"o":"m 322 356 q 247 697 322 546 q 111 876 194 803 q 39 928 53 928 l 39 872 q 164 744 122 817 q 222 578 197 688 q 238 506 236 524 q 239 436 239 489 l 239 372 q 185 68 239 203 q 86 -92 147 -25 q 33 -139 43 -139 q 32 -165 32 -154 q 33 -183 32 -176 q 96 -140 75 -156 q 183 -67 161 -93 q 284 126 246 11 q 322 356 322 242 "},"*":{"ha":692,"x_min":139,"x_max":636,"o":"m 628 788 q 586 810 611 810 q 528 786 558 810 q 465 727 497 757 q 388 683 433 697 q 386 704 386 690 q 411 814 386 738 q 421 864 421 843 q 411 909 421 893 q 368 925 401 925 q 328 907 338 925 q 318 856 318 889 q 331 797 318 832 q 354 703 354 732 q 353 681 354 689 q 265 760 307 707 q 231 801 238 796 q 213 811 224 807 q 186 815 201 815 q 151 803 164 815 q 139 768 139 792 q 151 722 139 735 q 245 683 183 690 q 333 651 307 676 q 200 590 331 649 q 148 549 156 571 q 140 519 140 528 q 156 488 140 503 q 188 475 171 475 q 215 483 203 475 q 294 575 218 485 q 350 622 325 610 q 351 606 351 617 q 336 535 351 582 q 321 463 321 488 q 326 433 321 456 q 333 406 331 410 q 371 392 343 392 q 404 401 386 392 q 426 442 431 415 q 396 536 426 444 q 386 592 386 565 q 390 619 386 607 q 449 581 421 610 q 538 498 518 508 q 575 488 557 488 q 622 518 607 488 q 628 543 628 529 q 596 592 628 572 q 509 615 581 601 q 411 654 438 628 q 499 678 436 676 q 599 700 563 679 q 625 726 614 710 q 636 763 636 743 q 628 788 636 775 "},"+":{"ha":750,"x_min":33,"x_max":711,"o":"m 711 461 l 711 511 l 549 508 l 406 511 l 406 639 l 406 839 l 350 839 l 353 511 l 161 511 l 39 511 l 33 461 l 278 461 l 353 461 l 356 111 l 406 111 l 406 129 q 406 184 406 157 q 407 238 407 211 l 407 254 l 407 274 l 407 297 l 407 325 l 407 360 l 406 461 l 711 461 "},",":{"ha":275,"x_min":71,"x_max":251,"o":"m 249 6 q 247 44 251 19 q 246 74 242 68 q 249 88 249 79 q 237 140 249 110 q 203 184 225 171 q 153 197 182 197 q 113 188 132 197 q 82 158 93 178 q 71 117 71 139 q 106 56 71 81 q 157 40 126 40 q 192 47 181 40 l 201 51 l 206 36 q 210 13 210 24 q 186 -57 210 -21 q 136 -93 171 -83 q 106 -97 125 -96 l 106 -111 q 132 -108 122 -108 q 213 -78 190 -101 q 243 -29 236 -56 q 249 6 243 -28 "},"-":{"ha":433,"x_min":68,"x_max":376,"o":"m 376 329 l 376 422 l 354 422 q 304 421 328 421 q 260 421 281 421 l 240 421 l 146 421 l 68 421 l 68 328 l 151 328 l 306 328 q 324 329 314 328 l 376 329 "},".":{"ha":292,"x_min":85,"x_max":221,"o":"m 208 35 q 221 72 221 51 q 192 128 221 107 q 154 140 175 140 q 97 111 117 140 q 85 74 85 94 q 114 17 85 36 q 151 6 129 6 q 208 35 189 6 "},"/":{"ha":289,"x_min":33,"x_max":267,"o":"m 267 939 l 211 928 l 183 822 q 140 617 160 729 q 122 511 135 582 l 33 22 l 83 22 l 133 300 q 172 486 139 333 q 206 672 196 593 q 267 939 236 806 "},":":{"ha":292,"x_min":85,"x_max":228,"o":"m 215 563 q 228 600 228 579 q 199 656 228 635 q 161 668 182 668 q 104 639 124 668 q 92 601 92 622 q 121 544 92 564 q 158 533 136 533 q 215 563 196 533 m 208 35 q 221 72 221 51 q 192 128 221 107 q 154 140 175 140 q 97 111 117 140 q 85 74 85 94 q 114 17 85 36 q 151 6 129 6 q 208 35 189 6 "},";":{"ha":275,"x_min":63,"x_max":251,"o":"m 213 438 q 233 492 233 463 q 203 557 233 531 q 146 578 178 578 q 85 551 108 578 q 63 492 63 524 q 92 429 63 454 q 149 408 117 408 q 213 438 188 408 m 249 6 q 247 44 251 19 q 246 74 242 68 q 249 88 249 79 q 237 140 249 110 q 203 184 225 171 q 153 197 182 197 q 113 188 132 197 q 82 158 93 178 q 71 117 71 139 q 106 56 71 81 q 157 40 126 40 q 192 47 181 40 l 201 51 l 206 36 q 210 13 210 24 q 186 -57 210 -21 q 136 -93 171 -83 q 106 -97 125 -96 l 106 -111 q 132 -108 122 -108 q 213 -78 190 -101 q 243 -29 236 -56 q 249 6 243 -28 "},"<":{"ha":472,"x_min":28,"x_max":389,"o":"m 389 794 l 389 900 l 28 461 l 378 17 l 378 106 l 111 461 l 389 794 "},"=":{"ha":611,"x_min":49,"x_max":569,"o":"m 569 563 l 569 625 l 49 625 l 49 563 l 569 563 m 569 347 l 569 410 l 49 410 l 49 347 l 569 347 "},">":{"ha":472,"x_min":67,"x_max":428,"o":"m 428 478 l 67 917 l 67 811 l 344 478 l 78 122 l 78 33 l 428 478 "},"?":{"ha":607,"x_min":14,"x_max":575,"o":"m 575 682 q 526 834 575 775 q 392 918 478 893 q 326 928 357 928 q 290 925 307 928 q 247 917 272 922 q 85 842 144 892 q 14 694 14 782 q 44 585 14 660 q 103 511 74 511 l 125 511 q 158 517 146 511 q 199 551 181 526 q 214 589 217 575 q 132 678 204 643 q 103 711 103 692 q 176 825 103 778 q 310 867 240 867 q 419 807 390 867 q 442 657 442 761 q 376 406 442 500 q 267 241 272 254 q 260 208 261 228 q 260 172 260 188 l 299 172 q 335 274 299 217 q 403 357 363 318 q 508 479 456 418 q 558 570 540 515 q 575 682 575 625 m 332 6 q 346 43 346 21 q 321 94 346 75 q 283 108 306 108 q 232 83 251 108 q 218 46 218 68 q 243 -6 218 14 q 281 -19 258 -19 q 332 6 313 -19 "},"@":{"ha":1271,"x_min":39,"x_max":1232,"o":"m 1232 78 l 1213 111 q 1161 47 1186 79 q 1035 -83 1096 -29 q 876 -190 949 -160 q 721 -238 803 -219 q 567 -257 639 -257 q 460 -245 508 -257 q 372 -208 411 -233 q 169 21 231 -119 q 115 326 115 144 q 235 774 115 565 q 601 1021 376 1021 q 864 893 742 1021 q 1031 628 965 788 q 1088 400 1088 489 q 1032 174 1088 281 q 872 50 968 50 q 853 48 864 49 q 831 47 842 47 q 761 60 789 47 q 718 117 725 76 q 717 142 717 124 q 782 440 717 225 q 868 700 799 496 q 800 722 846 711 q 779 726 793 724 l 714 617 q 688 668 701 651 q 554 718 644 718 q 524 717 532 718 q 486 711 515 717 q 356 601 419 699 q 292 450 299 517 q 281 358 292 443 q 275 285 275 313 q 284 208 275 246 q 315 119 293 169 q 363 51 336 69 q 426 33 389 33 q 474 38 447 33 q 558 94 501 43 q 631 172 606 138 q 696 60 643 103 q 821 8 744 21 q 850 6 840 6 q 876 7 860 6 q 900 8 893 8 l 913 11 q 1089 140 1015 11 q 1157 403 1157 260 q 1150 497 1157 454 q 1129 590 1143 539 q 1011 850 1086 742 q 831 1007 931 967 q 731 1057 781 1032 q 608 1063 717 1063 q 367 1001 492 1063 q 201 852 243 939 q 119 681 158 765 q 61 525 79 596 q 39 333 39 436 q 69 104 39 225 q 206 -168 114 -69 q 525 -299 328 -299 q 724 -271 578 -299 q 956 -215 871 -243 q 1076 -122 1004 -200 q 1185 10 1129 -65 q 1232 78 1208 43 m 668 397 q 621 222 651 292 q 533 126 585 140 q 479 118 501 118 q 399 196 413 118 q 386 349 386 274 q 419 564 386 479 q 547 686 461 671 q 561 688 553 688 q 613 669 588 688 q 656 628 628 658 q 683 583 675 606 q 690 533 690 561 q 668 397 679 465 "},"A":{"ha":847,"x_min":35,"x_max":813,"o":"m 813 7 l 813 22 q 776 28 788 25 q 736 69 740 40 l 708 175 l 671 299 l 608 508 q 593 561 596 547 q 571 646 575 635 q 547 713 561 675 q 508 813 528 763 l 481 882 l 417 882 q 407 867 410 872 q 371 779 390 836 q 338 646 354 713 l 292 517 q 242 400 286 504 q 213 329 221 354 q 150 154 181 242 l 118 69 q 67 22 103 31 q 35 22 56 21 l 35 7 l 229 7 l 229 22 q 204 28 211 25 q 181 69 181 40 q 190 93 186 83 q 217 152 203 122 q 246 221 232 182 q 267 292 256 249 q 286 340 271 306 q 299 368 290 350 l 358 367 q 436 367 404 367 q 500 368 468 368 q 514 331 510 344 q 558 192 543 247 l 590 69 q 569 28 590 39 q 549 22 563 25 l 549 7 l 813 7 m 493 410 l 446 408 q 376 409 404 408 q 319 410 347 410 q 340 460 333 442 q 375 550 364 517 q 403 635 386 583 q 417 681 407 651 l 463 525 l 493 410 "},"B":{"ha":833,"x_min":13,"x_max":765,"o":"m 765 226 q 764 263 765 244 q 757 296 763 281 q 736 331 751 311 q 706 364 726 343 q 578 422 667 403 q 690 495 653 447 q 728 606 728 543 q 679 735 728 678 q 653 761 664 751 q 621 783 638 775 q 588 800 601 796 q 540 812 574 804 q 466 824 507 819 q 379 828 425 828 l 242 833 q 124 832 185 833 q 13 828 63 831 l 13 806 l 53 806 q 122 779 96 806 q 140 681 140 760 q 147 630 144 658 q 150 550 150 601 q 146 424 150 510 q 142 300 142 338 l 140 146 q 126 56 140 79 q 53 22 101 22 l 21 22 l 21 0 l 411 0 q 618 26 553 0 q 650 42 635 32 q 679 63 665 53 q 706 83 701 81 q 726 107 718 94 q 765 226 765 164 m 599 611 q 575 524 599 563 q 506 467 551 485 q 487 462 497 463 q 457 458 476 461 q 416 450 438 454 q 372 446 394 446 l 308 449 l 257 456 l 263 525 q 265 611 264 567 q 267 696 267 656 l 257 774 q 368 786 307 786 q 540 735 483 786 q 592 658 579 701 q 599 611 599 633 m 624 217 q 567 93 624 143 q 497 60 538 69 q 397 51 457 51 q 318 60 368 51 q 238 75 268 68 q 234 99 235 86 q 233 158 233 113 q 243 250 233 161 q 246 304 246 275 q 239 383 246 343 q 236 399 239 389 q 260 403 249 401 q 301 404 272 404 l 365 406 q 422 400 394 406 q 471 388 425 400 q 492 383 478 385 q 513 379 507 382 q 597 308 574 351 q 624 217 624 265 "},"C":{"ha":819,"x_min":39,"x_max":782,"o":"m 782 206 l 769 221 q 706 165 731 185 q 635 117 669 136 q 571 88 600 97 q 494 79 542 79 q 476 79 485 79 q 457 81 468 79 q 322 120 383 81 q 222 222 260 160 q 187 318 197 264 q 176 431 176 372 q 180 525 176 483 q 194 597 183 567 q 244 680 213 644 q 317 741 275 715 q 376 775 358 767 q 433 792 408 789 q 488 796 457 796 q 685 708 604 796 q 714 669 697 694 l 732 669 l 718 864 l 697 864 q 694 856 694 858 q 681 824 686 833 q 674 810 676 811 q 654 810 664 810 q 599 828 642 810 q 550 846 557 846 q 494 851 522 850 q 442 851 465 851 q 376 845 406 851 q 314 827 347 839 q 249 795 281 815 q 188 757 217 775 q 141 726 171 746 q 97 688 111 707 q 51 576 63 639 q 39 425 39 513 q 97 215 39 310 q 200 110 138 151 q 330 50 263 68 q 418 28 397 32 q 463 25 439 25 q 646 71 568 25 q 782 206 724 117 "},"D":{"ha":900,"x_min":6,"x_max":863,"o":"m 863 415 q 826 597 863 510 q 767 703 803 654 q 688 785 732 751 q 565 852 625 831 q 426 874 504 874 q 357 869 394 871 q 285 868 319 868 q 221 869 254 868 q 160 874 188 871 l 6 874 l 6 850 q 25 847 18 847 q 82 836 68 840 q 160 793 121 822 l 153 625 q 163 508 153 596 q 174 375 174 421 q 167 190 174 286 q 160 113 165 158 q 138 79 149 89 q 105 58 122 69 q 60 46 88 47 q 8 44 32 44 l 6 19 l 160 19 l 426 19 q 511 35 467 19 q 632 90 518 38 q 746 169 699 122 q 819 271 785 208 q 853 344 843 314 q 863 415 863 375 m 742 415 q 717 321 742 369 q 660 238 699 286 q 564 157 622 189 q 438 104 517 131 q 358 84 392 89 q 286 79 324 79 q 278 117 279 101 q 271 215 271 161 q 276 531 271 222 q 278 722 278 608 l 286 819 q 342 824 301 819 q 403 829 383 829 q 469 819 436 829 q 528 794 501 808 q 583 757 554 779 q 650 678 622 728 q 694 585 672 631 q 728 496 715 539 q 742 415 742 453 "},"E":{"ha":785,"x_min":29,"x_max":765,"o":"m 765 231 l 751 231 q 710 161 724 183 q 653 88 665 92 q 620 82 640 83 q 579 79 600 81 l 479 76 l 340 79 q 301 96 313 79 q 290 109 294 103 q 282 122 285 115 q 289 196 286 157 q 292 278 292 235 q 288 363 292 307 q 282 458 285 418 l 497 458 q 519 455 506 457 q 542 442 532 453 q 558 389 551 431 q 563 349 560 375 l 579 349 l 579 458 l 579 525 l 579 629 l 563 629 q 557 606 558 614 q 542 547 546 553 q 522 526 531 529 q 497 525 513 522 q 453 532 476 529 q 403 535 429 535 q 307 528 368 535 q 282 525 297 528 q 272 568 275 553 q 264 646 264 614 q 274 785 264 689 q 282 860 276 813 l 472 861 l 563 860 q 586 856 578 857 q 625 840 611 849 q 664 786 647 825 q 676 749 669 774 l 685 749 l 676 904 q 569 911 610 910 q 375 917 457 917 q 190 907 329 917 q 140 904 171 906 l 29 904 l 29 876 q 60 875 49 875 q 107 860 93 871 q 132 831 121 850 q 140 813 135 825 l 132 639 q 135 560 132 631 q 139 438 139 489 q 135 379 139 432 q 132 306 132 326 q 139 142 132 229 q 140 117 139 131 q 131 96 133 103 q 108 64 119 72 q 64 46 88 47 q 29 44 40 44 l 29 19 l 140 19 l 271 28 q 317 24 272 28 q 382 21 363 21 q 522 31 411 21 q 597 35 569 35 q 693 24 651 35 q 707 19 699 22 l 765 231 "},"F":{"ha":710,"x_min":29,"x_max":685,"o":"m 685 749 l 676 904 q 586 911 619 910 q 424 917 492 917 q 363 920 417 917 q 278 924 310 924 q 181 914 231 924 q 140 904 164 911 l 29 904 l 29 876 q 60 875 49 875 q 107 860 93 871 q 132 831 121 850 q 140 813 135 825 q 139 741 139 782 q 139 639 139 700 q 135 558 139 635 q 132 431 132 481 q 135 359 132 417 q 139 271 139 301 l 140 117 q 131 96 133 103 q 108 64 119 72 q 64 46 88 47 q 29 44 40 44 l 29 19 l 140 19 q 165 24 157 24 q 250 28 208 28 l 275 28 q 350 26 319 28 q 428 19 381 25 l 428 44 q 410 47 415 46 q 353 63 371 56 q 320 81 336 71 q 299 97 304 92 q 290 109 294 103 q 282 122 285 115 l 278 194 l 278 299 q 281 328 278 306 q 285 361 285 350 l 282 450 q 301 454 294 454 q 368 458 335 458 q 434 456 400 458 q 487 451 468 453 q 519 447 506 449 q 542 433 532 444 q 558 381 551 422 q 563 340 560 367 l 579 340 l 579 450 l 579 517 l 579 621 l 563 621 q 557 597 558 606 q 542 539 546 544 q 522 517 531 521 q 497 517 513 514 l 444 521 q 315 517 439 521 q 282 517 303 517 l 285 576 l 285 660 l 285 785 l 282 860 l 410 861 l 563 860 q 586 856 578 857 q 625 840 611 849 q 664 786 647 825 q 676 749 669 774 l 685 749 "},"G":{"ha":819,"x_min":39,"x_max":822,"o":"m 822 458 l 822 481 l 683 483 l 564 481 l 561 464 q 611 458 578 461 q 638 433 635 453 q 640 399 640 414 q 640 363 640 385 l 640 347 l 640 328 q 639 209 640 256 q 632 160 638 163 q 564 130 593 139 q 488 121 535 121 q 469 121 478 121 q 450 122 461 121 q 321 147 371 122 q 236 229 271 171 q 201 325 211 271 q 190 438 190 379 q 194 532 190 490 q 208 604 197 574 q 319 743 242 694 q 376 775 358 767 q 433 792 408 789 q 488 796 457 796 q 685 708 604 796 q 714 669 697 694 l 732 669 q 735 699 735 683 q 736 764 736 715 q 724 843 736 792 q 718 864 722 851 l 697 864 q 694 856 694 858 q 681 824 686 833 q 674 810 676 811 q 654 810 664 810 q 599 828 642 810 q 550 846 557 846 q 494 851 522 850 q 442 851 465 851 q 376 845 406 851 q 313 827 347 839 q 247 805 279 815 q 189 778 214 794 q 139 736 164 763 q 97 688 114 710 q 51 576 63 639 q 39 425 39 513 q 97 215 39 310 q 200 110 138 151 q 330 50 263 68 q 418 28 397 32 q 463 25 439 25 q 628 40 578 25 q 761 128 690 60 l 753 419 q 772 449 753 444 q 822 458 790 454 "},"H":{"ha":719,"x_min":1,"x_max":706,"o":"m 706 893 l 476 892 l 428 892 l 428 868 q 474 858 460 863 q 508 825 508 849 q 511 800 511 808 q 518 715 518 743 q 514 635 515 671 q 513 575 513 599 l 506 465 l 415 467 l 299 467 l 206 465 q 211 558 210 510 q 213 667 213 606 l 210 821 q 228 856 210 847 q 274 865 247 865 q 296 864 282 865 l 296 889 l 204 889 l 32 889 l 32 864 q 40 865 36 865 q 51 865 44 865 q 81 861 68 865 q 110 821 110 851 l 110 675 l 108 535 l 108 313 l 106 96 q 88 47 106 65 q 28 29 69 29 q 13 31 21 29 q 1 32 4 32 l 4 7 l 82 6 q 192 7 125 6 q 301 8 258 8 l 301 36 q 256 43 271 39 q 210 96 210 57 l 207 281 l 210 428 l 290 428 l 510 428 q 516 394 514 415 q 518 326 518 372 q 515 283 518 317 q 511 229 511 250 l 511 96 q 502 55 511 71 q 472 39 493 39 q 454 43 467 39 l 458 14 l 554 11 l 688 15 l 685 43 q 674 40 679 40 q 658 39 669 39 q 623 49 636 39 q 610 85 610 58 l 607 222 l 608 403 q 607 493 607 447 q 607 586 607 539 l 607 601 q 608 660 607 632 q 608 715 608 689 l 610 840 q 638 863 613 861 q 704 867 664 865 l 706 893 "},"I":{"ha":417,"x_min":19,"x_max":392,"o":"m 392 47 l 375 47 q 326 53 347 47 q 289 70 304 60 q 269 86 274 81 q 250 126 258 100 l 246 319 l 244 375 l 246 471 q 244 496 246 482 q 243 522 243 510 l 249 581 l 246 681 l 246 746 q 258 788 246 763 q 271 808 263 796 l 297 826 l 390 847 l 388 869 l 281 871 l 174 872 l 83 868 l 22 869 l 19 847 q 59 839 31 843 q 101 825 88 835 q 124 786 115 815 q 132 750 128 768 l 133 632 q 134 592 133 613 q 135 551 135 572 l 132 490 l 135 349 l 132 203 l 132 185 q 133 150 132 165 q 133 119 133 135 q 113 63 133 76 q 78 56 108 60 l 21 46 l 21 22 l 111 21 l 140 22 l 257 21 l 325 25 q 364 24 343 25 q 390 22 385 22 l 392 47 "},"J":{"ha":611,"x_min":18,"x_max":581,"o":"m 581 847 l 578 871 l 471 872 q 417 876 467 872 q 343 879 367 879 l 253 875 l 204 879 l 158 878 l 156 856 q 213 847 165 853 q 272 831 260 840 q 293 793 285 822 q 301 757 297 775 l 303 708 l 303 639 q 303 599 303 619 q 304 558 304 579 l 301 503 l 300 488 l 300 465 l 292 360 l 288 244 q 271 142 288 189 q 253 113 264 122 q 221 94 243 104 q 200 105 211 90 q 176 144 189 119 l 157 192 q 104 219 133 219 q 42 201 67 224 q 18 147 18 179 q 21 121 18 132 q 31 86 24 110 q 88 49 39 63 q 126 41 104 44 q 157 37 147 38 q 182 33 167 36 q 203 33 192 33 q 244 38 224 33 q 289 57 265 43 q 307 69 297 61 q 333 88 317 78 q 357 106 350 99 q 385 134 374 119 q 404 167 397 149 q 417 231 411 186 q 422 331 422 275 l 432 461 l 433 508 l 439 567 l 436 667 l 436 732 q 449 774 436 749 q 460 792 453 782 q 469 807 467 803 q 488 826 479 819 q 507 837 496 833 q 533 844 518 840 q 560 847 549 847 q 581 847 572 847 "},"K":{"ha":822,"x_min":58,"x_max":790,"o":"m 790 844 l 790 863 l 663 863 l 583 861 l 583 842 q 608 818 608 833 q 606 799 608 813 q 569 751 606 788 q 488 675 547 729 l 383 579 q 314 508 346 546 q 303 494 310 503 l 286 508 l 292 650 l 292 713 l 289 797 q 290 838 289 821 q 297 867 292 856 q 332 907 310 893 q 353 916 344 915 q 367 917 361 917 l 365 942 q 342 940 358 940 q 299 940 326 940 l 240 938 l 188 935 l 104 938 l 68 938 l 68 917 q 96 911 78 914 q 138 904 126 911 q 161 892 143 901 q 181 864 176 881 q 186 819 186 847 l 186 793 l 183 731 l 183 583 l 186 458 l 188 310 l 186 222 q 172 131 186 175 q 166 107 171 124 q 155 79 161 90 q 124 58 149 68 q 92 54 117 54 q 76 54 86 54 q 60 51 67 54 l 58 28 l 356 26 l 354 44 q 324 51 336 47 q 301 61 311 54 q 285 81 292 68 q 275 97 278 93 q 260 124 263 113 q 258 160 258 135 l 258 181 l 261 239 q 258 269 261 251 q 256 296 256 288 q 257 313 256 307 l 258 411 q 274 388 265 399 q 297 358 282 378 l 372 264 q 394 239 383 251 q 413 215 406 226 q 442 181 421 204 q 458 162 453 169 q 469 135 463 154 q 475 119 472 126 q 482 97 478 111 q 483 78 486 83 q 475 63 478 65 q 463 55 472 60 q 425 44 454 50 l 424 21 l 642 19 q 669 17 664 17 q 707 18 683 17 q 732 15 713 18 q 758 14 751 13 l 760 42 q 680 50 706 42 q 619 86 654 58 q 599 106 604 100 q 574 135 586 121 q 550 171 563 150 q 542 186 547 176 l 494 250 l 431 331 q 401 365 415 350 q 375 394 379 389 q 344 436 361 413 q 333 453 340 443 q 389 510 353 475 q 442 563 425 546 l 467 588 l 539 661 l 621 750 q 653 779 631 760 q 696 818 685 811 q 758 842 722 835 q 790 844 771 843 "},"L":{"ha":799,"x_min":19,"x_max":750,"o":"m 750 7 q 747 17 747 11 q 747 36 746 24 q 750 61 749 49 q 750 82 750 71 l 749 114 l 735 113 q 717 89 735 100 q 657 78 699 78 l 576 76 l 499 74 l 446 74 q 397 75 414 74 q 357 81 379 76 q 314 85 331 81 q 292 94 297 90 q 269 118 278 104 q 250 163 260 132 l 246 319 l 244 375 l 246 471 q 244 496 246 482 q 243 522 243 510 l 249 581 l 246 681 l 246 746 q 258 788 246 763 q 271 808 263 796 l 297 826 l 390 847 l 388 869 l 281 871 l 174 872 l 83 868 l 22 869 l 19 847 q 59 839 31 843 q 101 825 88 835 q 124 786 115 815 q 132 750 128 768 l 133 632 q 134 592 133 613 q 135 551 135 572 l 132 490 l 135 349 l 132 203 l 132 185 q 133 150 132 165 q 133 119 133 135 q 113 63 133 76 q 78 56 108 60 l 21 46 l 21 22 l 111 21 l 140 22 l 257 21 q 288 19 269 19 q 332 19 307 19 l 349 19 l 368 19 l 432 21 l 551 24 l 632 26 l 668 28 l 683 28 q 717 24 696 28 q 740 6 739 19 l 750 7 "},"M":{"ha":1211,"x_min":18,"x_max":1142,"o":"m 1142 896 l 1142 924 l 1021 929 q 974 931 1003 929 q 928 932 944 932 q 885 929 911 932 q 842 924 858 926 q 767 760 794 833 q 713 594 739 674 q 670 470 686 515 q 644 396 654 425 q 610 318 631 353 q 569 250 590 283 q 544 300 557 275 q 522 351 539 311 l 472 475 l 428 593 q 411 646 418 619 q 383 743 389 726 l 346 857 q 333 894 336 882 q 324 933 331 906 l 244 938 q 194 939 229 938 q 138 940 160 940 q 85 941 111 940 q 32 942 58 942 l 33 924 q 83 907 65 918 q 111 869 100 896 q 122 726 122 843 l 114 497 l 111 338 l 111 231 q 108 156 111 208 q 100 88 106 103 q 85 63 94 74 q 67 46 76 53 q 42 39 57 39 l 21 39 l 18 13 l 321 11 l 321 36 l 306 36 q 283 39 294 36 q 264 47 272 42 q 242 72 247 60 q 236 104 236 85 q 232 211 236 143 q 228 333 228 279 q 231 397 228 339 q 233 481 233 454 q 231 568 233 489 q 228 671 228 647 q 231 739 228 694 q 233 790 233 783 l 283 649 q 314 576 293 621 q 361 469 353 490 l 411 340 q 442 279 422 311 q 474 213 461 247 q 502 142 488 178 q 533 53 517 106 l 558 53 l 589 128 q 622 196 597 150 q 674 299 665 276 l 728 446 q 742 476 733 461 q 756 503 751 490 q 808 638 782 569 q 858 796 840 721 q 869 740 863 771 q 872 665 872 721 q 869 586 872 644 q 867 497 867 528 q 869 449 867 492 q 872 385 872 407 q 872 275 872 335 q 867 167 872 215 q 867 131 867 147 q 868 100 868 114 q 856 53 868 65 q 825 38 844 42 q 776 35 806 35 q 750 36 754 35 l 750 7 l 1097 7 l 1097 31 q 1056 40 1069 35 q 1028 64 1042 46 q 1011 140 1014 82 q 1011 244 1011 192 q 1008 302 1011 258 q 1006 374 1006 346 q 1008 415 1006 382 q 1011 464 1011 447 q 1013 557 1011 497 q 1014 640 1014 617 l 1014 726 q 1013 755 1014 742 q 1011 771 1011 768 l 1025 815 q 1047 849 1035 829 q 1067 868 1056 861 q 1105 892 1092 888 q 1142 896 1118 896 "},"N":{"ha":833,"x_min":18,"x_max":806,"o":"m 806 933 l 806 957 l 507 950 l 507 921 q 532 922 511 922 q 579 918 556 922 q 614 902 603 914 q 625 864 625 890 q 623 827 624 844 q 622 794 622 810 l 622 771 q 623 723 622 743 q 624 692 624 703 q 622 654 622 674 q 622 614 622 635 l 622 522 l 622 456 q 622 400 622 438 q 621 357 622 363 l 606 358 l 571 418 q 556 444 561 435 q 526 503 539 475 l 474 611 q 401 747 438 679 q 374 797 388 772 q 347 853 354 833 q 330 892 340 872 q 310 932 319 911 l 244 938 q 194 939 229 938 q 138 940 160 940 l 32 942 l 33 924 q 83 907 65 918 q 111 869 100 896 q 116 841 115 864 q 117 793 117 818 l 117 775 l 117 754 l 117 729 l 114 497 l 111 336 l 111 231 q 108 156 111 208 q 100 88 106 103 q 85 63 94 74 q 67 46 76 53 q 42 39 57 39 l 21 39 l 18 13 l 272 11 l 272 36 l 257 36 q 235 39 246 36 q 215 47 224 42 q 193 72 199 60 q 188 104 188 85 l 183 240 l 182 338 l 185 481 l 188 671 l 189 814 q 222 761 211 781 q 272 669 260 700 q 313 575 292 621 q 355 493 335 529 q 386 435 375 457 q 411 386 397 413 q 431 354 419 369 q 444 331 442 339 q 489 250 467 290 q 507 219 490 247 q 544 158 518 200 l 626 36 l 681 36 l 718 36 l 718 119 l 719 193 q 722 211 721 201 q 722 238 722 221 l 722 324 l 721 413 l 719 500 l 717 590 l 719 719 l 719 771 q 723 855 719 824 q 736 900 726 886 q 763 924 751 919 q 806 933 775 929 "},"O":{"ha":965,"x_min":24,"x_max":913,"o":"m 913 454 q 906 558 913 510 q 882 653 899 607 q 818 781 854 728 q 723 881 776 842 q 604 940 669 921 q 465 958 539 958 q 369 945 417 958 q 278 910 321 932 q 168 821 217 878 q 90 701 128 772 q 42 589 60 644 q 24 476 24 533 q 76 257 24 356 q 147 147 111 192 q 243 63 192 92 q 340 30 285 39 q 458 21 394 21 q 626 53 549 21 q 764 146 703 86 q 869 283 833 214 q 913 454 913 367 m 694 715 q 731 614 714 685 q 749 463 749 543 q 732 324 749 388 q 674 208 715 261 q 601 140 638 163 q 451 104 542 104 q 329 143 386 104 q 245 228 285 174 q 193 326 206 282 q 181 486 181 369 q 265 726 181 586 q 472 889 363 889 q 619 822 556 889 q 694 715 644 796 "},"P":{"ha":604,"x_min":6,"x_max":567,"o":"m 567 697 q 547 771 567 719 q 510 845 526 822 q 456 890 494 868 q 369 928 418 913 q 326 939 339 938 q 285 940 314 940 q 243 939 272 940 q 194 938 214 938 l 72 940 l 7 940 l 7 931 l 7 922 q 24 919 13 921 q 49 910 36 918 q 60 898 56 906 q 70 882 65 890 q 75 817 75 874 l 75 799 l 75 739 q 69 597 71 657 q 67 450 67 538 l 67 161 l 67 118 q 65 97 67 115 q 60 72 64 78 q 38 56 49 64 q 7 47 29 51 l 6 35 l 6 22 l 283 22 l 283 39 q 240 49 263 39 q 224 56 235 51 q 208 64 214 60 q 181 117 181 85 l 178 339 q 175 415 178 375 q 169 489 172 456 q 214 473 193 475 q 253 471 235 471 q 281 472 267 471 q 308 472 294 472 q 397 481 347 472 q 475 506 447 490 q 545 574 524 531 q 567 697 567 618 m 431 742 q 438 697 438 725 q 428 639 438 668 q 397 581 419 610 q 339 536 369 546 q 286 523 310 529 q 251 515 263 517 q 231 514 240 514 q 206 518 224 514 q 167 522 188 522 l 169 647 q 167 703 169 651 q 164 772 164 756 l 169 878 q 208 883 193 878 q 244 886 224 888 q 288 880 261 886 q 341 861 315 874 q 392 815 367 849 q 431 742 418 781 "},"Q":{"ha":965,"x_min":24,"x_max":913,"o":"m 913 454 q 878 658 913 561 q 815 783 850 731 q 723 881 775 843 q 608 936 671 919 q 469 953 546 953 q 278 910 363 953 q 168 821 217 878 q 90 701 128 772 q 42 589 60 644 q 24 476 24 533 q 76 257 24 356 q 124 183 104 204 q 192 125 138 168 q 261 79 213 108 q 328 44 310 50 q 369 11 351 28 q 403 -22 386 -6 l 475 -94 q 555 -152 511 -129 q 647 -186 599 -175 q 892 -211 779 -211 l 892 -181 q 857 -178 871 -179 q 772 -161 814 -172 q 658 -111 710 -144 q 600 -48 619 -85 q 567 36 581 -11 q 674 74 629 47 q 764 146 718 100 q 869 283 833 214 q 913 454 913 367 m 747 469 q 731 328 747 396 q 676 211 714 260 q 601 140 638 163 q 451 104 542 104 q 329 143 386 104 q 245 228 285 174 q 193 326 206 282 q 181 486 181 369 q 265 726 181 586 q 472 889 363 889 q 619 822 556 889 q 694 715 644 796 q 731 617 714 683 q 747 469 747 550 "},"R":{"ha":885,"x_min":10,"x_max":832,"o":"m 832 0 l 832 28 q 795 31 821 28 q 754 38 769 33 q 708 52 729 42 q 669 78 688 63 q 632 139 665 82 q 597 200 615 167 l 538 319 l 447 497 q 468 503 461 500 q 513 521 488 510 q 571 556 551 539 q 628 632 603 585 q 653 713 653 679 q 638 805 653 767 q 596 868 624 843 q 494 916 551 907 q 397 926 436 925 q 317 926 358 926 l 231 925 l 174 926 l 71 928 l 13 925 q 10 913 10 922 q 10 893 10 903 q 64 878 40 893 q 107 819 88 864 l 106 721 l 106 599 l 104 476 q 99 253 104 397 q 93 69 93 108 q 87 58 93 63 q 67 43 81 53 q 22 26 47 26 l 22 3 l 325 3 q 326 14 325 7 q 325 22 328 21 q 277 26 292 22 q 250 42 263 29 q 238 68 238 54 l 235 244 l 236 381 l 238 475 l 325 478 l 393 343 l 443 244 l 504 114 l 557 3 l 832 0 m 521 700 q 501 622 521 657 q 443 563 481 588 q 383 531 418 546 q 335 520 364 524 q 276 517 307 517 q 256 517 264 517 q 238 518 247 518 q 236 554 236 529 q 237 597 236 575 q 238 643 238 619 l 238 718 l 235 814 l 236 856 q 275 868 256 861 q 332 872 294 872 q 369 869 351 872 q 405 862 388 867 q 442 846 422 857 q 472 824 461 835 q 521 700 521 778 "},"S":{"ha":611,"x_min":28,"x_max":604,"o":"m 604 238 q 601 318 604 289 q 588 373 597 347 q 553 428 579 399 q 502 479 528 458 q 411 531 476 500 q 299 582 375 547 q 186 656 224 617 q 142 760 142 701 q 208 859 142 801 q 321 917 274 917 q 406 904 363 917 q 467 867 449 892 q 483 836 475 853 q 494 803 490 819 l 517 678 l 538 678 l 540 779 l 539 828 l 539 903 l 539 990 q 529 987 533 988 q 517 988 525 986 q 515 976 515 979 q 503 949 511 957 q 488 940 496 940 q 469 943 486 940 q 392 966 428 956 q 335 976 357 976 q 228 962 274 976 q 138 914 182 947 q 96 879 114 897 q 67 842 78 861 q 40 775 51 817 q 28 703 28 733 q 46 616 28 657 q 90 547 64 575 q 158 496 108 528 q 243 444 207 464 q 309 410 276 429 q 367 371 342 390 q 414 340 390 356 q 476 270 463 308 q 490 206 490 232 q 483 161 490 182 q 463 115 476 140 q 339 28 413 28 q 233 47 289 28 q 151 88 176 67 q 97 161 114 118 q 81 197 89 179 q 73 224 78 204 q 66 265 68 244 q 63 299 64 286 q 49 308 61 311 q 36 307 38 304 q 30 267 32 288 q 28 225 28 247 q 31 174 29 200 q 32 124 32 149 l 32 56 l 32 -10 l 58 -6 l 65 28 q 75 46 69 35 q 92 56 81 46 q 118 40 100 53 q 174 8 154 15 q 242 -9 203 -4 q 335 -14 282 -14 q 517 68 429 -14 q 604 238 604 150 "},"T":{"ha":872,"x_min":47,"x_max":825,"o":"m 825 743 l 814 908 q 747 913 786 911 q 642 914 707 914 l 458 914 l 225 917 q 124 915 163 917 q 58 911 85 914 l 47 744 l 67 742 q 122 828 99 804 q 163 846 133 839 q 197 850 171 847 q 277 849 207 850 q 371 847 347 847 l 375 619 q 374 481 375 576 q 372 339 372 385 q 369 263 372 331 q 367 169 367 196 q 359 106 367 132 q 342 73 351 81 q 320 56 333 65 q 292 43 307 46 l 249 38 l 251 17 l 331 17 l 467 18 l 639 15 l 638 39 q 569 44 593 39 q 525 72 544 49 q 499 151 506 94 q 493 281 493 208 q 494 333 493 306 q 494 389 494 360 q 492 536 494 442 q 489 689 489 631 l 500 844 l 621 846 q 710 840 676 846 q 769 811 743 835 q 791 778 776 806 q 808 740 806 751 l 825 743 "},"U":{"ha":858,"x_min":7,"x_max":833,"o":"m 833 900 l 753 903 l 663 900 l 593 899 l 593 878 q 614 869 594 876 q 644 839 633 863 q 657 789 654 815 q 660 726 660 763 q 658 657 660 706 q 657 585 657 608 q 658 535 657 574 q 660 472 660 497 q 656 405 660 443 q 642 324 651 367 q 617 218 624 238 q 558 132 597 163 q 489 96 528 108 q 393 83 450 83 q 275 133 318 83 q 222 258 240 175 q 209 360 213 308 q 206 475 206 411 q 206 533 206 504 q 207 588 207 561 q 204 696 207 594 q 201 831 201 797 q 264 878 201 868 q 292 879 274 879 l 293 903 q 247 901 272 901 q 189 900 221 900 q 138 904 171 900 q 90 908 104 908 l 7 906 l 8 888 q 39 883 29 888 q 69 822 69 869 l 67 693 l 69 522 l 76 304 q 89 188 76 235 q 142 96 101 140 q 219 25 190 39 q 351 4 261 4 q 441 10 381 4 q 517 21 501 15 q 603 65 571 39 q 657 135 635 92 q 704 284 692 197 q 717 522 717 371 l 717 622 q 719 691 717 650 q 728 763 722 732 q 732 798 729 776 q 744 842 735 819 q 793 875 753 864 q 832 882 806 878 l 833 900 "},"V":{"ha":1042,"x_min":32,"x_max":1000,"o":"m 1000 882 l 1000 901 q 936 906 989 906 q 828 907 883 907 l 814 907 q 772 906 792 906 q 735 906 753 906 q 703 908 706 906 l 701 890 q 744 867 731 875 q 796 825 789 840 q 799 810 799 821 q 782 744 799 789 q 746 654 778 732 q 719 583 729 611 q 683 482 692 500 q 582 276 631 367 q 561 240 574 261 q 528 317 540 289 q 467 434 489 403 q 417 533 446 465 q 363 672 389 601 q 329 761 336 743 q 308 856 304 833 q 340 883 311 868 q 368 894 349 888 l 374 917 l 167 918 l 32 917 l 32 894 q 50 889 43 892 q 122 836 93 872 q 219 636 171 736 q 242 585 228 624 q 271 508 256 547 l 367 275 q 494 -4 449 82 q 515 -17 501 -17 q 533 -1 522 -17 q 594 96 564 47 q 643 179 621 139 q 733 385 688 282 q 776 482 771 468 q 797 538 782 496 q 838 635 819 588 q 867 714 851 674 q 897 783 868 718 q 928 843 918 831 q 962 865 938 856 q 1000 882 986 874 "},"W":{"ha":1563,"x_min":32,"x_max":1528,"o":"m 1528 876 l 1528 896 q 1470 901 1517 900 q 1372 901 1424 901 l 1358 901 q 1319 900 1338 900 q 1286 900 1301 900 q 1258 903 1261 900 l 1257 885 q 1294 861 1282 869 q 1340 819 1333 835 q 1343 804 1343 815 q 1326 739 1343 783 q 1290 649 1322 726 q 1255 558 1274 604 q 1225 488 1236 511 q 1122 301 1182 392 q 1071 229 1103 271 q 1040 299 1051 274 q 979 413 1004 375 q 936 512 963 438 q 885 657 910 586 q 847 765 860 728 q 831 839 828 825 q 860 867 833 851 q 885 878 868 871 l 890 900 q 831 907 853 906 q 711 913 767 913 l 576 911 l 576 889 q 594 883 588 886 q 667 831 638 867 q 711 749 689 803 q 746 663 722 719 q 711 560 728 611 q 683 482 690 497 q 585 299 642 392 q 539 229 567 269 q 506 306 518 278 q 445 423 467 392 q 395 522 424 454 q 340 661 367 590 q 307 750 314 732 q 286 844 282 822 q 315 872 289 857 q 340 883 324 876 l 346 906 q 286 913 308 911 q 167 918 222 918 l 32 917 l 32 894 q 50 889 43 892 q 122 836 93 872 q 219 636 171 736 q 242 585 228 624 q 271 508 256 547 l 367 275 q 421 117 390 219 q 461 4 446 32 q 482 -8 468 -8 q 500 7 489 -8 l 608 196 q 662 290 635 243 q 713 392 689 338 q 753 483 742 457 q 788 571 775 536 q 797 550 793 558 q 810 518 800 542 l 824 478 l 911 269 q 961 121 935 214 q 997 19 982 47 q 1018 7 1004 7 q 1037 24 1025 7 q 1075 93 1049 42 q 1129 196 1101 144 q 1188 286 1135 206 q 1242 383 1222 338 q 1289 478 1265 431 q 1313 533 1303 506 q 1356 639 1333 579 q 1388 725 1371 682 q 1421 784 1396 743 q 1456 838 1446 825 q 1490 859 1465 850 q 1528 876 1514 868 "},"X":{"ha":1217,"x_min":-11,"x_max":1168,"o":"m 1168 93 q 1115 106 1161 96 q 1047 135 1068 115 q 1003 183 1039 142 q 926 268 956 238 l 639 576 q 681 615 664 600 q 781 714 736 668 q 939 889 860 801 q 1026 935 965 918 q 1092 951 1064 947 q 1143 960 1119 956 l 1143 990 l 931 989 l 797 989 q 794 974 800 986 q 797 960 788 963 q 828 942 808 954 q 847 922 847 929 q 815 851 847 892 q 706 747 799 831 q 628 674 671 717 q 589 635 614 660 q 553 676 567 660 q 472 772 504 733 q 397 869 426 828 q 364 935 364 918 q 389 958 364 953 q 449 964 414 964 q 464 964 454 964 l 460 997 l 276 1001 q 135 1001 208 1001 q 0 999 61 1000 l 1 968 q 33 967 21 967 q 163 910 111 960 q 279 790 215 861 q 347 710 336 726 q 458 575 383 657 q 493 539 471 561 l 347 397 q 189 243 268 319 q 114 164 129 183 q 67 115 90 132 q 18 97 44 97 q -7 101 1 97 l -11 76 l 110 72 l 247 72 l 368 68 l 368 93 q 307 104 326 99 q 247 164 247 124 q 292 256 247 203 q 360 322 321 289 l 539 476 q 621 406 571 451 q 731 301 676 354 q 833 193 797 235 q 876 131 876 143 q 840 103 876 108 q 801 89 804 97 q 801 64 801 76 l 989 64 l 1164 64 q 1167 77 1167 69 q 1168 93 1168 85 "},"Y":{"ha":882,"x_min":22,"x_max":843,"o":"m 843 881 l 842 893 l 765 892 l 724 894 l 625 892 q 624 867 624 886 q 640 864 635 865 q 676 833 671 856 q 650 773 681 817 q 560 651 619 729 q 474 549 518 601 q 426 497 431 497 q 393 579 421 525 q 321 721 325 708 q 286 769 317 733 q 250 844 240 825 q 294 869 257 858 q 331 878 307 872 l 329 896 l 186 897 l 24 896 l 22 879 q 54 871 43 875 q 107 828 88 857 q 189 715 147 771 q 251 606 238 647 q 289 525 260 583 q 324 444 313 479 l 321 372 l 321 250 l 321 122 q 264 49 321 78 q 207 29 246 39 l 207 4 l 275 4 l 465 6 l 590 4 l 588 29 q 558 38 569 35 q 503 64 524 49 q 472 124 472 88 l 474 356 l 474 428 l 549 531 l 658 692 q 697 750 681 725 q 764 838 735 807 q 810 868 779 854 q 843 881 829 876 "},"Z":{"ha":857,"x_min":13,"x_max":811,"o":"m 810 250 q 804 257 806 256 q 793 254 797 263 q 733 154 771 201 q 699 117 721 139 q 667 98 682 103 q 629 93 651 93 q 592 94 617 93 q 419 98 499 96 q 282 100 339 100 q 201 99 239 100 q 142 94 163 97 q 179 147 165 128 q 254 246 224 208 q 361 397 285 283 q 542 667 433 504 q 588 725 564 696 q 633 786 621 768 q 700 908 676 850 q 685 914 693 913 q 669 917 678 915 l 481 917 l 300 917 q 233 917 267 917 q 165 918 199 918 q 95 917 139 918 q 43 907 51 915 q 28 835 35 899 q 17 714 22 772 q 39 714 28 714 q 68 791 53 753 q 108 842 83 829 q 177 858 132 854 q 297 861 222 861 q 417 860 325 861 q 542 858 510 858 l 406 689 l 319 561 l 156 319 q 74 188 118 261 q 19 93 21 100 q 15 79 17 86 q 13 65 13 72 q 22 31 13 46 q 86 26 26 26 l 103 26 l 125 26 q 232 27 176 26 q 347 28 288 28 q 579 28 418 28 q 744 31 740 28 q 759 60 749 33 q 782 131 769 86 q 803 211 794 175 q 810 250 811 247 "},"[":{"ha":425,"x_min":56,"x_max":367,"o":"m 367 911 l 194 911 l 68 910 l 61 400 l 56 -233 l 183 -233 l 339 -233 l 339 -189 l 244 -183 l 161 -183 q 158 -103 161 -169 q 156 -11 156 -37 l 156 578 l 153 840 l 361 844 l 367 911 "},"\\":{"ha":289,"x_min":42,"x_max":275,"o":"m 275 22 q 186 511 231 267 q 161 653 174 582 q 125 822 144 747 l 97 928 l 42 939 q 82 774 46 915 q 103 672 96 718 q 175 300 139 486 l 225 22 l 275 22 "},"]":{"ha":425,"x_min":36,"x_max":347,"o":"m 347 -233 l 342 400 l 335 910 l 208 911 l 36 911 l 42 844 l 250 840 l 247 578 l 247 -11 q 244 -92 247 -35 q 242 -183 242 -149 l 158 -183 l 64 -189 l 64 -233 l 219 -233 l 347 -233 "},"^":{"ha":628,"x_min":28,"x_max":594,"o":"m 594 544 l 428 783 l 294 983 l 172 778 l 28 539 l 83 539 l 167 672 q 294 900 238 790 l 556 544 l 594 544 "},"_":{"ha":900,"x_min":0,"x_max":907,"o":"m 907 -232 l 0 -233 l 0 -278 l 906 -278 l 907 -232 "},"`":{"ha":506,"x_min":131,"x_max":342,"o":"m 342 656 l 275 867 l 131 867 l 292 650 l 342 656 "},"a":{"ha":606,"x_min":19,"x_max":567,"o":"m 565 90 q 565 106 567 93 q 565 125 563 119 q 526 107 561 124 q 490 94 500 94 q 458 115 474 94 q 440 150 443 135 l 440 269 l 440 390 l 440 432 q 435 498 440 465 q 417 556 431 531 q 371 622 393 600 q 303 663 343 650 q 236 676 263 676 q 189 668 217 676 q 92 625 114 640 q 35 518 35 586 q 44 457 35 471 q 64 441 53 443 q 85 439 75 439 q 132 499 132 439 l 132 525 q 154 597 132 569 q 246 633 183 633 q 319 589 293 633 q 342 503 342 551 q 340 486 342 501 q 335 458 338 471 q 315 453 322 454 q 256 431 275 440 q 106 342 168 396 q 19 181 19 267 q 52 71 19 117 q 144 25 85 25 q 278 68 193 25 q 350 110 304 82 q 382 36 364 57 q 440 15 400 15 q 515 40 478 15 q 565 90 553 64 m 350 158 q 328 147 336 151 q 260 119 279 124 q 224 113 242 115 q 192 110 206 110 q 135 128 156 110 q 114 192 114 146 q 197 342 114 276 q 318 408 242 376 l 344 417 q 347 347 346 383 q 347 293 347 310 l 350 158 "},"b":{"ha":633,"x_min":14,"x_max":581,"o":"m 575 346 q 513 476 560 424 q 393 533 461 533 q 348 528 371 533 q 301 509 325 522 q 256 474 278 496 q 208 413 235 453 l 208 650 l 214 871 q 217 899 215 885 q 218 922 218 913 q 214 938 218 935 q 156 917 210 940 q 106 896 125 903 l 14 861 l 15 817 q 55 840 44 835 q 75 849 65 844 q 92 853 85 853 q 106 846 100 853 q 111 822 111 839 q 108 792 111 821 q 106 754 106 764 l 104 621 q 107 413 104 593 q 110 139 110 233 l 104 71 q 174 35 147 46 q 304 0 253 0 q 424 15 381 0 q 513 71 467 29 q 560 155 539 96 q 581 283 581 214 q 575 346 581 318 m 467 201 q 399 94 444 136 q 303 53 353 53 q 213 92 253 53 l 213 183 l 213 361 q 264 414 235 383 q 306 435 285 432 q 338 439 326 439 q 436 385 396 439 q 476 263 476 331 q 467 201 476 229 "},"c":{"ha":529,"x_min":33,"x_max":490,"o":"m 490 189 l 490 228 q 461 168 474 189 q 363 89 421 106 q 319 82 338 82 q 193 179 238 82 q 160 331 160 251 l 160 372 q 165 440 160 419 q 194 493 171 460 q 236 542 218 526 q 277 565 260 561 q 308 568 294 568 q 371 529 349 568 q 399 464 385 496 q 429 447 407 447 q 468 462 451 447 q 485 492 485 476 q 457 542 485 514 q 404 583 442 557 q 359 606 381 600 q 307 611 338 611 q 248 605 279 611 q 204 592 217 599 q 133 552 156 567 q 93 517 111 538 q 45 431 57 475 q 33 325 33 386 q 34 289 33 307 q 35 253 35 271 q 67 165 35 231 q 118 78 100 99 q 194 26 143 49 q 288 3 244 3 q 351 13 318 3 q 429 61 404 28 q 479 151 461 104 q 490 189 485 167 "},"d":{"ha":589,"x_min":33,"x_max":588,"o":"m 588 47 l 588 69 q 553 64 565 64 q 515 74 528 64 q 501 114 501 83 q 503 131 501 115 q 504 156 504 146 l 504 326 q 508 495 506 418 q 510 638 510 572 q 515 751 510 665 q 519 888 519 836 q 522 915 521 901 q 524 939 524 929 q 519 954 524 951 q 461 933 515 957 q 405 910 431 919 q 346 890 379 901 q 307 871 313 879 l 311 850 q 340 853 325 851 q 364 857 356 854 l 375 860 q 407 840 390 860 q 411 807 411 833 l 411 786 l 411 657 q 410 547 411 610 q 406 431 408 485 q 358 492 378 472 q 314 525 339 511 q 266 544 289 539 q 221 550 243 550 q 102 496 150 550 q 39 363 54 442 q 33 326 33 338 q 33 301 33 315 q 56 172 33 235 q 101 88 78 110 q 185 31 149 44 q 296 18 221 18 q 360 44 314 18 q 401 71 374 53 l 404 1 q 419 2 411 1 q 435 5 428 3 q 460 16 442 7 q 493 28 479 25 q 554 42 519 35 q 588 47 567 43 m 401 108 q 304 67 358 67 q 208 104 253 67 q 143 204 164 142 q 133 265 133 232 q 174 398 133 340 q 274 456 214 456 q 306 452 286 456 q 350 429 326 449 q 401 378 375 403 l 401 200 l 401 108 "},"e":{"ha":529,"x_min":33,"x_max":500,"o":"m 500 196 l 482 215 q 457 161 468 179 q 363 89 421 106 q 315 82 335 82 q 176 168 231 82 q 133 310 133 236 l 133 350 q 135 375 133 365 l 490 376 l 489 408 q 413 550 489 479 q 307 611 346 611 q 248 605 279 611 q 204 592 217 599 q 133 552 156 567 q 93 517 111 538 q 45 431 57 475 q 33 325 33 386 q 34 289 33 307 q 35 253 35 271 q 67 165 35 231 q 118 78 100 99 q 194 26 143 49 q 288 3 244 3 q 351 13 318 3 q 429 61 404 28 q 492 172 468 114 q 500 196 496 182 m 379 414 l 135 411 q 178 499 143 451 q 204 535 201 531 q 251 557 224 557 q 318 536 286 557 q 367 483 350 515 q 378 447 376 464 q 379 414 379 431 "},"f":{"ha":471,"x_min":31,"x_max":572,"o":"m 572 696 q 536 774 572 742 q 444 822 507 799 q 419 825 433 825 q 258 781 335 825 q 156 603 156 721 l 151 536 l 75 536 l 72 494 l 150 494 l 144 297 l 144 108 q 65 31 144 40 q 31 31 53 29 l 31 6 l 138 3 l 276 -1 q 337 2 297 -1 q 407 6 376 6 l 407 33 q 331 49 356 39 q 256 161 256 81 q 258 276 256 168 q 260 461 260 383 l 261 496 l 453 494 l 453 533 l 261 536 q 281 689 261 636 q 372 772 307 760 q 396 775 389 775 q 458 736 433 775 q 489 678 469 718 q 532 651 503 651 q 560 663 547 651 q 572 696 572 674 "},"g":{"ha":714,"x_min":29,"x_max":699,"o":"m 694 578 q 635 599 672 599 q 601 596 618 597 q 568 594 585 594 q 551 595 557 594 q 536 597 544 596 l 522 601 q 424 650 472 625 q 304 679 363 679 q 139 621 206 679 q 65 453 65 556 q 93 357 65 413 q 139 294 115 314 q 72 217 106 256 q 39 125 39 174 q 76 60 39 79 q 156 39 96 50 l 178 33 q 113 -17 158 18 q 56 -74 75 -47 q 35 -110 42 -93 q 29 -146 29 -126 q 46 -204 29 -175 q 85 -240 58 -226 q 158 -265 113 -254 q 242 -277 203 -275 q 353 -279 281 -279 l 375 -279 q 521 -255 454 -279 q 628 -186 588 -231 q 678 -39 678 -128 q 629 49 678 17 q 504 88 589 75 q 431 97 458 94 q 375 100 403 100 q 322 101 338 100 q 269 106 306 103 q 158 136 193 114 q 135 160 142 147 q 129 189 129 174 q 133 222 131 206 l 142 247 l 161 276 q 219 253 199 260 q 321 231 283 231 q 486 281 414 231 q 560 360 533 313 q 588 465 588 408 q 578 506 588 483 q 567 528 574 517 q 586 535 575 531 q 611 539 597 539 q 640 536 624 539 q 667 533 657 533 q 690 543 681 533 q 699 565 699 553 q 694 578 699 574 m 457 465 q 426 354 457 410 q 383 299 407 318 q 331 279 360 279 q 224 340 265 279 q 188 467 188 394 q 215 579 188 532 q 311 636 249 636 q 424 571 381 636 q 457 465 457 519 m 642 -87 q 601 -151 635 -124 q 528 -192 574 -175 q 442 -215 483 -208 q 367 -222 400 -222 q 288 -215 329 -222 q 217 -194 246 -207 q 172 -168 189 -182 q 150 -133 156 -154 q 170 -47 142 -107 q 229 13 199 13 q 271 13 253 13 q 300 14 289 14 l 396 13 q 461 8 425 13 q 543 -9 497 3 q 618 -40 589 -21 q 642 -87 647 -58 "},"h":{"ha":719,"x_min":-3,"x_max":722,"o":"m 722 4 l 722 26 q 695 29 713 28 q 665 48 678 31 q 647 104 653 65 q 642 186 642 143 q 640 231 640 208 q 640 278 640 254 q 628 444 640 365 q 594 556 617 524 q 547 594 582 574 q 494 616 511 614 q 453 618 476 618 q 356 603 404 618 q 269 556 308 589 q 232 513 249 538 q 194 456 224 499 q 196 485 196 468 q 196 526 196 501 l 196 543 l 196 564 l 196 588 l 196 615 l 196 644 q 192 845 196 761 q 181 936 189 929 q 88 913 174 943 q 0 872 1 883 q 13 873 6 872 q 36 874 21 874 q 65 868 53 874 q 81 848 76 863 q 86 810 85 833 q 88 764 88 788 q 86 710 88 754 q 85 653 85 667 q 90 388 85 622 q 92 225 92 329 q 94 175 93 201 q 96 114 96 149 q 91 57 96 75 q 69 33 86 39 q 29 26 53 26 q 15 28 25 26 q -3 31 4 29 l -3 0 l 258 0 l 261 28 q 233 28 250 28 q 208 49 215 28 q 199 89 200 71 q 197 133 197 107 q 200 187 199 158 q 201 244 201 215 q 200 289 201 257 q 199 336 199 321 q 203 395 199 367 q 226 448 208 424 q 275 492 243 472 q 390 526 332 526 q 513 469 465 526 q 535 433 528 451 q 542 381 542 415 q 539 340 540 360 q 538 297 538 319 q 539 216 538 271 q 540 138 540 161 q 537 70 540 94 q 524 38 533 46 q 483 24 514 29 q 456 19 474 22 l 454 1 l 622 6 l 722 4 "},"i":{"ha":340,"x_min":35,"x_max":313,"o":"m 214 808 q 168 836 201 836 q 144 831 160 836 q 119 809 128 825 q 111 776 111 793 q 125 744 111 757 q 158 732 139 732 q 192 740 175 732 q 218 786 218 758 q 214 808 218 797 m 307 21 q 308 33 304 25 q 307 44 313 42 q 263 58 283 51 q 234 79 243 65 q 223 116 225 93 q 221 181 221 139 q 219 263 219 225 q 219 333 219 301 l 219 496 q 220 533 219 514 q 221 572 221 551 q 220 603 221 588 q 218 631 219 618 l 139 593 l 44 551 l 53 525 q 64 531 58 529 q 79 532 69 532 q 99 517 92 532 q 106 477 106 503 q 107 425 107 451 q 107 399 107 415 q 110 364 107 382 q 113 326 113 346 q 110 288 111 307 q 108 246 108 268 q 110 194 108 228 q 111 147 111 160 q 110 122 111 143 q 106 93 108 100 q 65 57 97 74 q 35 44 56 53 l 35 25 l 307 21 "},"j":{"ha":369,"x_min":-82,"x_max":256,"o":"m 217 778 q 233 819 233 797 q 213 868 233 850 q 169 886 192 886 q 121 865 139 886 q 103 822 103 844 q 124 774 103 792 q 167 756 144 756 q 217 778 197 756 m 256 83 l 256 236 l 254 369 q 255 422 254 396 q 256 476 256 449 l 256 492 l 256 508 q 254 597 256 567 q 247 636 253 628 q 108 589 243 642 q 35 564 44 564 q 26 554 26 564 q 35 531 26 544 q 56 525 39 525 q 88 528 57 525 q 128 531 118 531 q 143 528 140 531 q 153 495 151 518 q 156 356 156 472 l 156 278 l 163 111 q 159 27 163 99 q 156 -89 156 -44 l 156 -110 q 149 -170 156 -144 q 119 -211 142 -196 q 90 -224 104 -221 q 58 -228 75 -228 q 24 -199 35 -228 q 11 -169 13 -171 q -8 -153 -6 -154 q -31 -147 -18 -147 q -74 -164 -60 -147 q -82 -192 -82 -174 q -77 -228 -82 -206 q -18 -261 -72 -250 q 71 -267 10 -267 q 209 -212 163 -267 q 256 15 256 -158 l 256 83 "},"k":{"ha":707,"x_min":39,"x_max":733,"o":"m 733 25 l 733 53 q 686 61 704 56 q 594 128 632 79 q 401 354 497 240 q 311 467 326 442 q 419 579 336 488 q 539 703 501 671 q 642 750 585 743 q 664 750 651 750 l 664 772 q 643 778 660 778 q 594 775 628 778 l 378 772 l 378 756 q 408 751 399 753 q 467 711 471 740 q 432 660 465 696 q 339 567 399 624 q 292 506 319 546 q 240 453 274 479 l 244 532 l 244 776 q 245 815 244 794 q 246 857 246 835 q 242 925 246 896 q 211 910 222 915 q 154 883 178 893 l 50 838 q 53 822 47 836 q 58 808 54 818 q 72 814 65 811 q 88 817 79 817 q 110 799 103 817 q 117 708 117 781 l 117 689 l 117 633 q 115 575 115 603 q 115 522 115 547 q 115 501 115 514 q 119 467 115 489 q 122 389 122 446 q 121 332 121 361 q 121 274 121 303 q 122 219 121 254 q 124 169 124 183 q 122 138 124 163 q 117 104 121 114 q 72 63 107 81 q 39 50 61 57 l 39 28 l 342 24 q 341 38 336 29 q 342 50 346 47 q 297 63 322 56 q 258 92 272 69 q 248 128 250 104 q 246 200 246 153 q 241 293 243 242 q 239 394 239 344 l 240 431 q 308 356 281 394 q 364 267 336 311 q 422 189 393 228 q 478 117 476 118 q 483 86 488 99 q 463 56 475 64 q 436 47 450 47 q 419 50 431 47 l 419 28 l 733 25 "},"l":{"ha":367,"x_min":39,"x_max":346,"o":"m 342 24 q 341 38 336 29 q 342 50 346 47 q 297 63 322 56 q 258 92 272 69 q 248 128 250 104 q 246 200 246 153 q 241 293 243 242 q 239 394 239 344 l 244 532 l 244 865 q 245 903 244 883 q 246 946 246 924 q 242 1014 246 985 q 211 999 222 1004 q 154 972 178 982 l 50 926 q 53 911 47 925 q 58 897 54 907 q 72 903 65 900 q 88 906 79 906 q 110 888 103 906 q 117 797 117 869 l 117 778 l 117 722 q 118 634 117 685 q 122 565 119 583 q 125 494 125 546 q 122 387 124 442 q 121 274 121 332 q 122 219 121 254 q 124 169 124 183 q 122 138 124 163 q 117 104 121 114 q 72 63 107 81 q 39 50 61 57 l 39 28 l 342 24 "},"m":{"ha":926,"x_min":29,"x_max":921,"o":"m 918 17 q 917 28 914 21 q 918 39 921 36 q 887 53 911 42 q 850 83 863 65 q 842 175 843 92 q 842 322 842 258 l 840 436 q 807 518 840 486 q 768 544 788 539 q 713 549 749 549 q 630 526 675 549 q 524 446 585 503 q 490 524 524 492 q 451 549 471 544 q 396 554 432 554 q 283 514 344 554 q 196 442 253 494 l 193 531 l 193 568 q 192 588 193 571 q 189 607 190 604 q 124 583 185 615 q 29 522 63 550 l 29 511 q 51 515 36 511 q 72 519 67 519 q 96 475 96 519 q 97 444 96 463 q 97 404 97 426 l 97 389 l 97 371 l 97 349 l 97 324 l 97 294 l 97 263 l 97 231 q 99 194 97 226 q 100 136 100 161 q 94 81 100 96 q 58 51 88 65 q 31 40 49 47 l 31 22 l 276 18 q 276 31 272 22 q 276 40 281 39 q 237 53 256 46 q 208 74 218 60 q 201 106 203 85 q 199 163 199 128 q 197 254 197 175 q 197 417 197 333 q 265 456 231 436 q 358 482 315 482 q 410 456 397 482 q 425 394 417 425 q 429 363 429 379 q 428 335 429 350 l 428 203 q 426 129 428 156 q 419 86 425 103 q 383 54 413 69 q 357 44 375 50 l 357 26 l 599 22 q 598 34 594 26 q 599 44 601 42 q 567 59 592 47 q 531 89 543 71 q 522 133 524 99 q 519 214 519 167 q 522 317 521 261 q 524 417 524 374 q 589 453 556 435 q 675 476 636 476 q 726 450 714 476 q 742 389 733 419 q 744 365 744 382 q 742 333 744 350 l 742 304 q 742 267 742 289 q 743 235 743 244 l 743 215 q 744 175 743 194 q 744 138 744 156 q 743 112 744 133 q 739 83 742 90 q 703 49 732 64 q 676 39 694 44 l 676 21 l 918 17 "},"n":{"ha":651,"x_min":29,"x_max":604,"o":"m 601 17 q 601 28 597 21 q 601 39 604 36 q 570 53 594 42 q 533 83 546 65 q 526 174 528 90 q 524 331 524 257 l 524 442 q 490 524 524 492 q 451 549 471 544 q 396 554 432 554 q 283 514 344 554 q 196 442 253 494 l 193 531 l 193 568 q 192 588 193 571 q 189 607 190 604 q 124 583 185 615 q 29 522 63 550 l 29 511 q 51 515 36 511 q 72 519 67 519 q 96 475 96 519 q 97 443 96 461 q 97 403 97 425 l 97 386 l 97 367 l 97 343 l 97 317 l 97 286 l 97 254 l 97 221 q 99 175 97 206 q 100 132 100 144 q 94 81 100 96 q 58 51 88 65 q 31 40 49 47 l 31 22 l 276 18 q 276 31 272 22 q 276 40 281 39 q 237 53 256 46 q 208 74 218 60 q 201 106 203 85 q 199 163 199 128 q 197 254 197 175 q 197 417 197 333 q 265 456 231 436 q 358 482 315 482 q 410 456 397 482 q 425 394 417 425 q 429 363 429 379 q 428 335 429 350 l 426 221 q 427 180 426 200 q 428 140 428 160 q 422 81 428 99 q 386 49 415 64 q 360 39 378 44 l 360 21 l 601 17 "},"o":{"ha":506,"x_min":6,"x_max":486,"o":"m 486 299 q 413 486 486 404 q 236 568 339 568 q 208 567 218 568 q 59 478 113 554 q 6 303 6 401 q 6 288 6 297 q 7 271 6 279 q 76 90 7 168 q 250 13 146 13 q 426 103 360 13 q 486 299 486 183 m 376 299 q 347 113 376 161 q 261 64 318 64 q 172 106 204 64 q 124 279 136 153 q 119 331 119 318 q 118 365 118 344 q 140 480 118 435 q 215 532 161 525 q 232 533 221 532 q 343 456 303 533 q 376 299 376 390 "},"p":{"ha":589,"x_min":-1,"x_max":560,"o":"m 554 349 q 492 479 539 426 q 372 536 440 536 q 327 531 350 536 q 281 513 304 525 q 221 458 258 500 q 188 419 208 444 q 185 465 186 442 q 179 494 183 488 q 167 500 175 500 q 143 494 161 500 q 99 479 125 489 l 6 456 l 6 433 q 32 438 18 438 q 74 427 61 438 q 86 390 86 417 q 85 372 86 389 q 83 347 83 354 l 83 176 q 81 81 83 128 q 78 -32 78 33 q 76 -148 78 -82 q 69 -224 75 -214 q 31 -248 57 -246 q -1 -254 4 -250 l -1 -269 q 68 -274 6 -274 q 112 -272 88 -272 q 165 -272 136 -272 q 201 -274 174 -272 q 243 -275 229 -275 q 275 -274 263 -275 q 290 -267 288 -272 l 289 -247 q 253 -247 265 -247 q 194 -228 215 -243 q 184 -183 185 -221 q 183 -114 183 -144 l 192 57 q 233 31 219 39 q 297 4 279 4 q 408 19 369 4 q 492 74 447 33 q 539 158 518 99 q 560 286 560 217 q 554 349 560 321 m 450 190 q 385 90 429 128 q 290 53 340 53 q 192 94 235 53 l 192 186 l 192 364 q 233 407 208 381 q 300 440 263 433 q 318 442 306 442 q 419 383 378 442 q 460 253 460 325 q 450 190 460 218 "},"q":{"ha":589,"x_min":29,"x_max":585,"o":"m 585 -281 l 585 -265 q 540 -256 563 -260 q 515 -236 522 -250 q 506 -160 507 -222 q 506 -43 506 -97 q 503 60 506 1 q 500 165 500 118 l 494 400 l 494 471 q 493 519 494 494 q 489 547 492 544 q 442 533 479 553 q 401 504 404 513 q 397 474 397 496 q 346 504 363 496 q 294 524 310 524 q 183 509 222 524 q 100 454 144 494 q 52 363 75 431 q 29 224 29 296 q 35 161 29 189 q 97 33 50 83 q 210 -17 143 -17 q 308 11 257 -17 q 361 65 324 19 q 394 108 372 79 l 400 -125 l 400 -153 q 399 -199 400 -165 q 389 -239 399 -232 q 342 -257 368 -256 q 294 -258 317 -258 l 293 -278 q 340 -286 299 -286 q 383 -285 356 -286 q 418 -283 410 -283 q 459 -284 435 -283 q 515 -285 483 -285 q 585 -281 578 -285 m 396 296 l 390 146 q 331 86 368 124 q 297 69 313 72 q 271 67 282 67 q 163 132 208 67 q 117 285 117 197 q 131 378 117 333 q 184 451 146 424 q 268 479 222 479 q 340 456 308 479 q 392 383 372 433 q 396 353 396 374 l 396 296 "},"r":{"ha":444,"x_min":4,"x_max":440,"o":"m 379 475 q 425 494 410 475 q 440 543 440 514 q 423 595 440 572 q 379 614 406 618 q 341 609 364 613 q 282 583 318 606 q 239 550 258 569 q 190 503 203 514 l 190 522 q 189 565 190 551 q 186 579 188 578 q 110 547 182 583 q 4 481 39 511 l 4 474 q 51 478 22 474 q 76 464 71 478 q 82 415 82 450 l 82 390 q 81 287 82 363 q 79 175 79 211 l 79 131 q 77 85 79 108 q 63 42 75 61 q 31 17 51 24 q 14 14 25 15 l 14 1 l 225 3 l 275 4 l 275 14 q 242 19 253 18 q 200 36 207 26 q 188 60 190 46 q 185 92 185 74 q 186 133 185 104 q 185 160 186 150 q 185 247 185 194 q 185 338 185 299 q 188 351 185 342 q 188 365 188 358 q 186 394 188 375 q 185 421 185 413 q 188 453 185 431 q 217 493 192 475 q 274 525 244 508 q 289 529 281 529 q 313 522 301 529 q 345 491 328 507 q 379 475 363 475 "},"s":{"ha":526,"x_min":76,"x_max":496,"o":"m 496 181 q 456 263 496 218 q 389 318 426 296 q 254 382 321 350 q 190 425 211 404 q 160 486 160 454 q 201 553 160 528 q 290 578 242 578 q 415 506 369 578 q 444 435 431 482 l 464 435 l 464 526 l 463 629 l 450 629 q 442 619 444 622 q 401 601 422 601 q 345 615 378 600 q 289 631 313 631 q 140 581 203 631 q 76 458 76 531 q 161 313 76 365 q 299 250 229 281 q 387 186 363 217 q 411 118 411 156 q 374 51 411 74 q 292 33 343 33 q 167 90 215 33 q 104 217 132 131 l 90 211 l 90 14 q 107 11 97 13 q 119 24 113 17 q 131 31 125 32 q 218 0 174 15 q 271 -8 244 -8 q 425 42 360 -8 q 496 181 496 96 "},"t":{"ha":410,"x_min":24,"x_max":408,"o":"m 408 131 l 394 142 q 357 114 371 122 q 289 86 315 86 q 248 90 257 86 q 228 116 239 94 q 217 204 217 138 q 217 253 217 228 q 218 306 218 278 l 222 532 l 336 533 l 367 533 l 369 567 l 304 565 l 225 565 l 224 668 l 222 724 l 222 772 l 213 772 q 185 714 194 735 q 133 629 153 649 q 50 557 107 603 q 24 538 40 550 l 108 538 l 108 438 l 106 206 q 110 122 106 156 q 131 62 115 89 q 175 20 147 35 q 247 6 203 6 q 381 92 310 6 q 408 131 392 106 "},"u":{"ha":618,"x_min":14,"x_max":601,"o":"m 599 67 q 600 72 599 68 q 597 83 601 76 q 585 85 596 86 q 551 81 574 85 q 536 88 540 81 q 526 138 526 103 q 528 170 526 139 q 531 217 531 201 l 531 458 l 528 600 l 460 600 l 368 600 l 368 582 q 392 578 383 579 q 427 560 417 571 q 440 532 438 550 q 442 478 442 514 l 442 453 l 442 254 q 442 223 442 238 q 443 194 443 208 q 436 144 443 167 q 385 79 421 100 q 299 58 350 58 q 205 87 236 58 q 165 165 174 115 q 163 185 165 172 q 163 203 163 193 q 164 239 163 214 q 165 278 165 264 l 164 461 l 165 599 l 93 599 l 15 599 l 14 582 q 26 581 22 581 q 64 553 53 575 q 74 510 71 536 q 78 457 78 485 q 76 421 76 438 q 76 390 76 404 l 74 203 q 139 40 74 94 q 196 15 156 25 q 265 4 236 4 q 313 13 272 4 q 364 25 354 21 q 406 58 385 33 q 440 100 417 71 l 440 49 l 440 33 q 446 4 440 7 q 474 6 451 0 q 513 19 496 11 q 568 49 529 26 q 599 67 579 54 "},"v":{"ha":699,"x_min":-8,"x_max":667,"o":"m 667 606 l 667 618 l 426 618 l 428 601 q 469 592 454 599 q 490 579 483 585 q 506 547 506 567 q 500 518 506 533 q 457 385 482 457 q 396 219 425 294 l 361 136 q 301 258 322 214 q 213 451 243 381 q 175 538 199 485 q 165 583 161 574 q 187 600 172 599 q 214 601 201 601 l 215 619 l 67 617 l -8 618 l -7 601 q 19 599 11 600 q 60 572 49 592 q 126 426 86 528 q 179 289 147 372 q 290 56 229 172 q 310 22 303 32 q 332 4 322 4 q 374 69 342 4 q 416 165 385 93 q 463 274 447 236 q 510 407 489 340 q 545 503 526 461 q 589 572 564 546 q 667 606 614 599 "},"w":{"ha":1038,"x_min":-8,"x_max":1044,"o":"m 1044 617 l 1044 629 l 804 629 l 806 613 q 847 603 832 610 q 868 590 861 596 q 883 558 883 578 q 878 529 883 544 q 835 396 860 468 q 774 231 803 306 l 739 147 q 679 269 700 225 q 590 463 621 392 q 553 549 576 496 q 543 594 539 585 q 565 611 550 610 q 592 613 579 613 l 593 631 l 444 628 l 369 629 l 371 613 q 397 610 389 611 q 440 581 426 603 q 469 521 453 560 q 488 478 474 511 q 447 358 471 425 q 396 219 418 278 l 361 136 q 301 258 322 214 q 213 451 243 381 q 175 538 199 485 q 165 583 161 574 q 187 600 172 599 q 214 601 201 601 l 215 619 l 67 617 l -8 618 l -7 601 q 19 599 11 600 q 60 572 49 592 q 126 426 86 528 q 179 289 147 372 q 290 56 229 172 q 310 22 303 32 q 332 4 322 4 q 374 69 342 4 q 415 161 385 93 q 478 310 457 258 q 515 410 499 361 l 557 300 q 668 67 607 183 q 688 33 681 43 q 710 15 700 15 q 751 81 719 15 q 794 176 763 104 q 840 285 825 247 q 888 418 867 351 q 923 515 904 472 q 967 583 942 557 q 1044 617 992 610 "},"x":{"ha":644,"x_min":35,"x_max":626,"o":"m 626 0 l 626 19 q 600 29 610 26 q 554 50 569 42 q 529 69 539 58 q 501 115 515 92 l 363 332 q 411 406 392 379 q 517 528 469 486 q 550 546 526 536 q 571 553 557 549 l 571 572 l 421 572 l 421 556 q 433 547 431 550 q 449 513 456 528 q 390 422 439 492 q 346 360 375 400 q 299 428 314 404 q 251 528 251 501 q 272 549 251 538 q 293 557 279 551 l 293 568 l 181 568 l 61 572 l 63 553 q 92 549 81 551 q 154 515 126 540 q 197 458 175 499 q 229 400 210 436 l 290 307 l 250 250 q 179 160 224 214 q 107 72 140 111 q 56 29 82 43 q 35 22 47 25 l 36 6 l 206 3 l 207 18 q 186 32 193 28 q 157 78 146 63 l 310 275 q 365 186 347 217 q 421 56 421 90 q 406 28 421 38 q 376 19 397 22 l 376 3 l 551 3 l 626 0 "},"y":{"ha":696,"x_min":-3,"x_max":663,"o":"m 663 578 l 663 597 l 421 597 l 421 583 q 463 563 450 571 q 499 517 501 538 q 450 322 481 415 q 399 179 442 294 q 382 133 393 161 l 301 289 q 243 404 257 375 q 206 483 211 469 q 201 507 201 496 q 249 565 201 540 q 294 583 264 574 l 294 603 l -3 603 l 0 581 q 21 565 14 571 q 88 483 65 526 q 139 383 96 467 q 222 225 172 319 q 256 153 236 200 q 281 101 264 135 q 317 32 297 67 q 325 18 319 26 q 288 -62 300 -36 q 225 -143 246 -143 q 188 -127 208 -143 q 147 -111 167 -111 q 93 -126 114 -111 q 72 -172 72 -140 q 91 -227 72 -210 q 142 -244 110 -244 q 222 -218 186 -244 q 250 -192 233 -210 q 332 -53 304 -103 q 440 157 415 94 q 486 271 465 219 q 549 444 522 357 q 603 547 568 511 q 663 578 624 568 "},"z":{"ha":615,"x_min":72,"x_max":588,"o":"m 588 603 l 303 600 l 72 597 l 72 544 l 72 453 l 85 453 q 100 504 94 488 q 144 556 119 556 l 290 556 l 465 560 q 407 486 428 513 q 313 360 343 404 q 160 149 246 265 q 75 35 128 106 l 75 10 l 313 10 l 567 10 l 568 60 l 567 181 l 547 181 q 531 117 540 138 q 418 53 499 53 l 282 56 l 190 53 q 254 138 231 106 q 370 292 336 246 q 432 378 404 339 q 494 468 465 425 l 588 603 "},"{":{"ha":357,"x_min":22,"x_max":289,"o":"m 289 -200 q 233 -162 251 -178 q 178 -67 178 -115 q 190 76 178 -57 q 194 172 194 121 l 194 224 q 192 265 194 242 q 183 306 189 289 q 129 383 178 324 q 111 422 111 406 q 165 507 138 464 q 189 579 189 544 q 178 728 189 619 q 167 881 167 836 q 204 963 167 936 q 283 983 233 983 l 276 1006 q 128 949 185 1006 q 72 806 72 893 q 81 672 72 747 q 100 522 90 596 q 101 507 101 517 q 22 428 101 454 q 22 415 24 426 q 81 375 75 381 q 100 300 100 353 q 89 175 100 250 q 78 50 78 100 q 115 -93 78 -33 q 286 -231 153 -153 l 289 -200 "},"|":{"ha":139,"x_min":39,"x_max":100,"o":"m 100 -272 l 100 944 l 39 944 l 44 -278 l 100 -272 "},"}":{"ha":357,"x_min":50,"x_max":317,"o":"m 317 415 q 317 428 315 426 q 238 507 238 454 q 238 513 238 508 q 240 537 238 518 q 255 641 243 556 q 267 806 267 726 q 211 950 267 894 q 63 1006 156 1006 l 56 983 q 136 963 107 983 q 172 881 172 936 q 161 726 172 835 q 150 579 150 618 q 174 508 150 546 q 228 422 197 469 q 196 368 228 406 q 156 306 164 331 q 146 265 147 281 q 144 224 144 250 l 144 172 q 153 47 144 124 q 161 -67 161 -29 q 106 -164 161 -117 q 50 -200 88 -179 l 53 -231 q 200 -124 160 -168 q 261 50 261 -56 q 250 175 261 100 q 239 300 239 250 q 269 386 239 363 q 317 415 293 400 "},"~":{"ha":631,"x_min":14,"x_max":596,"o":"m 596 814 q 595 854 596 829 q 592 899 594 879 l 585 903 q 550 839 567 860 q 421 776 500 776 q 264 851 386 776 q 160 885 210 885 q 51 828 89 885 q 14 685 14 772 q 71 750 42 717 q 108 774 93 774 q 289 696 156 774 q 406 661 349 661 q 541 703 486 661 q 596 814 596 744 "},"":{"ha":275,"x_min":54,"x_max":235,"o":"m 232 6 q 230 44 235 19 q 229 74 225 68 q 232 88 232 79 q 220 140 232 110 q 187 184 208 171 q 136 197 165 197 q 96 188 115 197 q 65 158 76 178 q 54 117 54 139 q 89 56 54 81 q 140 40 110 40 q 175 47 164 40 l 185 51 l 189 36 q 193 13 193 24 q 169 -57 193 -21 q 119 -93 154 -83 q 89 -97 108 -96 l 89 -111 q 115 -108 106 -108 q 197 -78 174 -101 q 226 -29 219 -56 q 232 6 226 -28 "},"":{"ha":794,"x_min":22,"x_max":700,"o":"m 700 881 q 647 947 700 926 q 561 961 613 961 q 446 849 497 961 q 389 683 422 799 l 357 576 l 194 578 l 171 538 l 344 533 l 283 306 q 243 158 278 285 q 206 17 217 65 q 178 -126 200 -11 q 104 -228 151 -228 q 71 -217 82 -228 q 65 -206 65 -212 q 69 -187 65 -199 q 74 -174 74 -176 q 65 -160 74 -165 q 44 -156 57 -156 q 22 -183 22 -156 q 53 -240 22 -226 q 122 -250 74 -250 q 185 -221 158 -250 q 239 -117 211 -192 q 383 322 311 103 q 429 451 406 386 q 456 531 444 496 l 626 526 l 644 572 l 468 574 l 489 656 q 510 783 499 719 q 581 936 535 936 q 625 926 613 936 q 638 899 638 915 q 631 868 638 888 q 618 833 618 835 q 630 801 618 819 q 657 783 642 783 q 693 819 682 783 q 700 881 700 842 "},"":{"ha":544,"x_min":71,"x_max":496,"o":"m 249 6 q 247 44 251 19 q 246 74 242 68 q 249 88 249 79 q 237 140 249 110 q 203 184 225 171 q 153 197 182 197 q 113 188 132 197 q 82 158 93 178 q 71 117 71 139 q 106 56 71 81 q 157 40 126 40 q 192 47 181 40 l 201 51 l 206 36 q 210 13 210 24 q 186 -57 210 -21 q 136 -93 171 -83 q 106 -97 125 -96 l 106 -111 q 132 -108 122 -108 q 213 -78 190 -101 q 243 -29 236 -56 q 249 6 243 -28 m 493 6 q 491 44 496 19 q 490 74 486 68 q 493 88 493 79 q 481 140 493 110 q 448 184 469 171 q 397 197 426 197 q 357 188 376 197 q 326 158 338 178 q 315 117 315 139 q 350 56 315 81 q 401 40 371 40 q 436 47 425 40 l 446 51 l 450 36 q 454 13 454 24 q 431 -57 454 -21 q 381 -93 415 -83 q 350 -97 369 -96 l 350 -111 q 376 -108 367 -108 q 458 -78 435 -101 q 488 -29 481 -56 q 493 6 488 -28 "},"":{"ha":739,"x_min":85,"x_max":671,"o":"m 658 29 q 671 67 671 46 q 642 122 671 101 q 604 135 625 135 q 547 106 567 135 q 535 68 535 89 q 564 11 535 31 q 601 0 579 0 q 658 29 639 0 m 431 29 q 443 67 443 46 q 414 122 443 101 q 376 135 397 135 q 319 106 339 135 q 307 68 307 89 q 336 11 307 31 q 374 0 351 0 q 431 29 411 0 m 208 35 q 221 72 221 51 q 192 128 221 107 q 154 140 175 140 q 97 111 117 140 q 85 74 85 94 q 114 17 85 36 q 151 6 129 6 q 208 35 189 6 "},"":{"ha":703,"x_min":38,"x_max":699,"o":"m 699 546 q 689 592 699 579 q 621 614 672 614 q 561 603 586 614 q 456 568 497 575 l 392 561 l 393 603 q 440 721 393 640 q 461 794 461 756 q 433 871 461 853 q 379 881 418 881 q 316 859 343 881 q 294 794 289 838 q 321 713 300 753 q 360 600 360 636 l 363 561 l 297 568 q 178 608 260 574 q 115 619 151 619 q 46 597 63 619 q 38 551 38 586 q 56 498 38 518 q 115 483 74 478 q 224 522 133 486 q 292 535 254 535 l 360 536 q 343 500 356 521 q 310 462 325 479 q 296 439 296 444 q 308 362 296 421 q 329 272 321 303 l 338 -317 l 363 -306 q 374 -160 363 -250 q 396 72 396 22 q 409 189 401 136 q 429 300 417 242 q 454 378 440 336 q 468 444 468 421 q 447 468 468 453 q 421 486 438 475 q 403 513 408 501 q 396 536 399 525 l 450 535 q 517 519 485 535 q 621 478 596 482 q 635 476 625 478 q 683 497 668 476 q 699 546 699 517 "},"":{"ha":703,"x_min":68,"x_max":635,"o":"m 635 3 q 618 47 635 29 q 568 60 601 64 q 479 25 544 57 q 424 13 453 13 l 376 11 q 387 36 381 26 q 397 51 393 46 q 419 69 400 56 q 439 89 439 82 q 425 150 439 108 q 406 211 407 206 q 380 306 393 257 q 367 390 367 354 l 367 396 q 400 561 383 478 q 422 627 410 592 q 433 683 433 663 q 415 704 433 692 q 393 719 407 710 q 372 761 379 736 l 418 760 q 476 747 450 760 q 564 713 543 715 q 576 711 568 713 q 617 728 604 711 q 629 769 629 744 q 621 810 629 799 q 564 828 608 828 q 513 818 535 828 q 427 789 458 794 q 369 783 396 783 l 369 818 q 410 918 369 850 q 428 981 428 949 q 413 1039 428 1019 q 358 1054 397 1058 q 304 1036 326 1054 q 286 981 282 1018 q 328 876 289 958 q 342 815 342 847 l 344 783 q 289 789 317 783 q 188 822 257 793 q 133 832 164 832 q 75 814 88 832 q 68 775 68 804 q 84 731 68 749 q 133 717 100 713 q 225 750 146 718 q 283 760 250 760 l 342 761 q 328 731 336 744 q 306 706 317 718 q 288 679 288 683 q 295 631 288 668 q 315 538 303 593 q 331 468 322 507 q 339 394 339 429 q 326 285 339 363 q 321 235 321 250 q 301 147 310 189 q 292 93 292 106 q 311 66 292 89 q 332 42 331 43 q 346 11 344 21 l 289 13 q 213 31 254 13 q 139 56 172 50 q 88 42 104 60 q 72 -3 72 25 q 81 -42 72 -31 q 139 -60 94 -60 q 207 -43 172 -60 q 274 -19 249 -22 q 317 -11 300 -15 q 349 -11 332 -11 l 346 -43 q 331 -106 346 -74 q 290 -208 294 -183 q 311 -267 286 -247 q 363 -282 331 -282 q 410 -274 394 -285 q 432 -208 432 -258 q 403 -131 432 -175 q 375 -46 375 -86 l 374 -11 q 401 -12 386 -11 q 437 -17 417 -14 q 518 -47 457 -21 q 568 -56 538 -56 q 626 -36 611 -56 q 635 3 635 -25 "},"":{"ha":618,"x_min":83,"x_max":494,"o":"m 494 717 l 322 917 l 214 919 l 83 722 l 117 717 l 261 833 l 461 706 l 494 717 "},"":{"ha":1389,"x_min":72,"x_max":1219,"o":"m 1217 292 q 1176 429 1207 378 q 1078 490 1140 490 q 982 411 1013 490 q 958 254 958 351 q 990 116 958 175 q 1079 46 1021 57 q 1096 44 1085 44 q 1189 110 1154 44 q 1219 250 1219 167 q 1219 267 1219 257 q 1217 292 1218 278 m 483 758 q 443 896 474 844 q 344 957 407 957 q 249 878 279 957 q 225 721 225 818 q 256 583 225 642 q 346 513 288 524 q 363 511 351 511 q 456 576 421 511 q 486 717 486 633 q 485 734 486 724 q 483 758 485 744 m 889 286 q 849 424 879 372 q 750 485 813 485 q 654 406 685 485 q 631 249 631 346 q 662 110 631 169 q 751 40 693 51 q 768 39 757 39 q 861 104 826 39 q 892 244 892 161 q 891 262 892 251 q 889 286 890 272 m 961 828 l 889 828 l 72 11 l 144 11 l 961 828 m 1156 278 q 1156 238 1156 257 q 1157 201 1157 219 q 1146 113 1157 139 q 1090 78 1131 78 q 1037 108 1054 78 q 1019 232 1019 139 l 1019 272 q 1029 400 1019 358 q 1089 464 1044 464 q 1149 399 1135 464 q 1156 278 1156 365 m 422 744 q 423 705 422 724 q 424 668 424 686 q 413 579 424 606 q 357 544 397 544 q 303 575 321 544 q 286 699 286 606 l 286 739 q 296 867 286 825 q 356 931 311 931 q 415 865 401 931 q 422 744 422 832 m 828 272 q 828 233 828 251 q 829 196 829 214 q 818 107 829 133 q 763 72 803 72 q 709 103 726 72 q 692 226 692 133 l 692 267 q 701 394 692 353 q 761 458 717 458 q 821 393 807 458 q 828 272 828 360 "},"":{"ha":611,"x_min":28,"x_max":604,"o":"m 604 238 q 601 318 604 289 q 588 373 597 347 q 553 428 579 399 q 502 479 528 458 q 411 531 476 500 q 299 582 375 547 q 186 656 224 617 q 142 760 142 701 q 208 859 142 801 q 321 917 274 917 q 406 904 363 917 q 467 867 449 892 q 483 836 475 853 q 494 803 490 819 l 517 678 l 538 678 l 540 779 l 539 828 l 539 903 l 539 990 q 529 987 533 988 q 517 988 525 986 q 515 976 515 979 q 503 949 511 957 q 488 940 496 940 q 469 943 486 940 q 392 966 428 956 q 335 976 357 976 q 228 962 274 976 q 138 914 182 947 q 96 879 114 897 q 67 842 78 861 q 40 775 51 817 q 28 703 28 733 q 46 616 28 657 q 90 547 64 575 q 158 496 108 528 q 243 444 207 464 q 309 410 276 429 q 367 371 342 390 q 414 340 390 356 q 476 270 463 308 q 490 206 490 232 q 483 161 490 182 q 463 115 476 140 q 339 28 413 28 q 233 47 289 28 q 151 88 176 67 q 97 161 114 118 q 81 197 89 179 q 73 224 78 204 q 66 265 68 244 q 63 299 64 286 q 49 308 61 311 q 36 307 38 304 q 30 267 32 288 q 28 225 28 247 q 31 174 29 200 q 32 124 32 149 l 32 56 l 32 -10 l 58 -6 l 65 28 q 75 46 69 35 q 92 56 81 46 q 118 40 100 53 q 174 8 154 15 q 242 -9 203 -4 q 335 -14 282 -14 q 517 68 429 -14 q 604 238 604 150 m 528 1200 l 494 1211 l 294 1083 l 150 1200 l 117 1194 l 247 997 l 356 1000 l 528 1200 "},"":{"ha":456,"x_min":42,"x_max":397,"o":"m 397 19 l 181 365 l 375 692 l 331 692 l 42 358 l 331 19 l 397 19 "},"":{"ha":1338,"x_min":29,"x_max":1326,"o":"m 1326 231 l 1313 231 q 1271 161 1285 183 q 1214 88 1226 92 q 1181 82 1201 83 q 1140 79 1161 81 l 1040 76 l 901 79 q 863 96 874 79 q 851 109 856 103 q 843 122 846 115 q 850 196 847 157 q 853 278 853 235 q 849 363 853 307 q 843 458 846 418 l 1058 458 q 1080 455 1067 457 q 1103 442 1093 453 q 1119 389 1113 431 q 1124 349 1121 375 l 1140 349 l 1140 458 l 1140 525 l 1140 629 l 1124 629 q 1118 606 1119 614 q 1103 547 1107 553 q 1083 526 1092 529 q 1058 525 1074 522 q 1014 532 1038 529 q 964 535 990 535 q 868 528 929 535 q 843 525 858 528 q 833 568 836 553 q 825 646 825 614 q 835 785 825 689 q 843 860 838 813 l 1033 861 l 1124 860 q 1147 856 1139 857 q 1186 840 1172 849 q 1225 786 1208 825 q 1238 749 1231 774 l 1246 749 l 1238 904 q 1131 911 1171 910 q 936 917 1018 917 q 751 907 890 917 q 701 904 732 906 l 661 904 q 471 942 574 942 q 374 928 422 942 q 283 893 326 915 q 174 804 222 861 q 96 685 133 756 q 47 572 65 628 q 29 460 29 517 q 82 240 29 339 q 153 131 117 175 q 249 46 197 75 q 345 13 290 22 q 464 4 400 4 q 529 7 503 4 q 583 19 556 10 l 594 21 l 701 19 l 832 28 q 878 24 833 28 q 943 21 924 21 q 1083 31 972 21 q 1158 35 1131 35 q 1254 24 1213 35 q 1268 19 1260 22 l 1326 231 m 700 438 q 697 379 700 432 q 693 306 693 326 l 697 199 q 610 125 657 151 q 457 88 542 88 q 335 126 392 88 q 251 211 290 157 q 199 309 211 265 q 186 469 186 353 q 271 710 186 569 q 478 872 368 872 q 621 810 558 872 q 696 706 651 779 l 693 639 q 697 560 693 631 q 700 438 700 489 "},"":{"ha":275,"x_min":51,"x_max":232,"o":"m 219 735 q 232 778 232 756 q 197 839 232 814 q 146 854 176 854 q 111 847 122 854 l 101 843 l 97 858 q 93 882 93 869 q 99 915 93 897 q 119 956 106 933 q 167 988 132 978 q 197 992 178 990 l 197 1006 q 171 1003 181 1003 q 90 973 113 996 q 60 924 67 950 q 54 889 60 922 q 56 851 51 875 q 57 821 61 826 q 54 807 54 815 q 66 754 54 785 q 99 710 78 724 q 150 697 121 697 q 190 707 171 697 q 219 735 210 717 "},"":{"ha":275,"x_min":54,"x_max":235,"o":"m 232 844 q 230 883 235 858 q 229 913 225 907 q 232 926 232 918 q 220 979 232 949 q 187 1023 208 1010 q 136 1036 165 1036 q 96 1026 115 1036 q 65 997 76 1017 q 54 956 54 978 q 89 894 54 919 q 140 879 110 879 q 175 886 164 879 l 185 890 l 189 875 q 193 851 193 863 q 169 782 193 818 q 119 746 154 756 q 89 742 108 743 l 89 728 q 115 731 106 731 q 197 760 174 738 q 226 810 219 783 q 232 844 226 811 "},"":{"ha":511,"x_min":29,"x_max":476,"o":"m 464 724 q 476 767 476 744 q 442 828 476 803 q 390 843 421 843 q 356 836 367 843 l 346 832 l 342 847 q 338 871 338 858 q 344 904 338 886 q 363 944 350 922 q 411 976 376 967 q 442 981 422 979 l 442 994 q 415 992 425 992 q 334 962 357 985 q 304 913 311 939 q 299 878 304 911 q 301 840 296 864 q 301 810 306 815 q 299 796 299 804 q 310 743 299 774 q 344 699 322 713 q 394 686 365 686 q 435 696 415 686 q 464 724 454 706 m 197 729 q 210 772 210 750 q 175 833 210 808 q 124 849 154 849 q 89 842 100 849 l 79 838 l 75 853 q 71 876 71 864 q 77 910 71 892 q 97 950 83 928 q 144 982 110 972 q 175 986 156 985 l 175 1000 q 149 997 158 997 q 67 967 90 990 q 38 918 44 944 q 32 883 38 917 q 34 845 29 869 q 35 815 39 821 q 32 801 32 810 q 44 749 32 779 q 77 705 56 718 q 128 692 99 692 q 168 701 149 692 q 197 729 188 711 "},"":{"ha":539,"x_min":54,"x_max":501,"o":"m 499 844 q 497 883 501 858 q 496 913 492 907 q 499 926 499 918 q 487 979 499 949 q 453 1023 475 1010 q 403 1036 432 1036 q 363 1026 382 1036 q 332 997 343 1017 q 321 956 321 978 q 356 894 321 919 q 407 879 376 879 q 442 886 431 879 l 451 890 l 456 875 q 460 851 460 863 q 436 782 460 818 q 386 746 421 756 q 356 742 375 743 l 356 728 q 382 731 372 731 q 463 760 440 738 q 493 810 486 783 q 499 844 493 811 m 232 844 q 230 883 235 858 q 229 913 225 907 q 232 926 232 918 q 220 979 232 949 q 187 1023 208 1010 q 136 1036 165 1036 q 96 1026 115 1036 q 65 997 76 1017 q 54 956 54 978 q 89 894 54 919 q 140 879 110 879 q 175 886 164 879 l 185 890 l 189 875 q 193 851 193 863 q 169 782 193 818 q 119 746 154 756 q 89 742 108 743 l 89 728 q 115 731 106 731 q 197 760 174 738 q 226 810 219 783 q 232 844 226 811 "},"":{"ha":425,"x_min":17,"x_max":392,"o":"m 392 513 l 375 529 l 242 471 l 208 633 l 188 633 l 163 471 l 25 517 l 17 488 l 138 404 l 100 254 l 129 246 l 204 367 l 300 250 l 325 263 l 275 404 l 392 513 "},"":{"ha":761,"x_min":0,"x_max":761,"o":"m 761 311 l 761 367 l 0 389 l 0 322 l 761 311 "},"":{"ha":1389,"x_min":-6,"x_max":1394,"o":"m 1394 333 l 1394 406 l -6 394 l 0 328 l 1394 333 "},"":{"ha":631,"x_min":14,"x_max":596,"o":"m 596 814 q 595 854 596 829 q 592 899 594 879 l 585 903 q 550 839 567 860 q 421 776 500 776 q 264 851 386 776 q 160 885 210 885 q 51 828 89 885 q 14 685 14 772 q 71 750 42 717 q 108 774 93 774 q 289 696 156 774 q 406 661 349 661 q 541 703 486 661 q 596 814 596 744 "},"":{"ha":950,"x_min":15,"x_max":921,"o":"m 921 860 l 921 872 l 867 875 l 825 876 l 786 872 q 768 838 778 858 q 751 799 758 817 l 726 721 l 697 635 q 682 600 692 615 q 663 569 672 585 l 642 615 l 619 671 l 600 724 q 579 792 589 757 l 563 842 l 553 876 l 517 879 l 469 879 l 421 881 l 422 872 q 450 861 442 869 q 456 849 453 858 q 461 825 460 839 q 463 783 463 811 l 458 681 l 457 608 l 457 561 q 456 528 457 554 q 451 494 454 503 q 436 476 449 486 q 417 474 426 475 l 415 463 l 551 461 l 551 474 q 524 480 535 471 q 513 504 513 489 l 510 607 l 513 672 q 511 707 513 675 q 510 758 510 739 l 513 813 l 535 749 q 569 668 551 708 l 592 610 q 606 581 597 594 q 619 554 614 568 l 647 481 l 658 481 l 672 514 q 697 564 675 522 q 710 592 704 576 l 735 657 l 747 683 q 778 760 756 707 q 793 815 785 781 l 800 756 l 797 681 l 800 629 q 799 574 800 593 q 797 532 799 554 l 797 506 q 792 481 797 486 q 768 474 788 475 q 744 474 749 472 l 744 460 l 900 460 l 900 471 q 883 475 890 472 q 869 486 875 478 q 863 519 864 494 q 863 567 863 543 l 860 625 l 863 665 l 863 744 l 863 783 l 863 804 l 868 824 q 888 847 881 843 q 921 860 903 860 m 365 801 l 361 875 l 283 878 l 200 878 l 96 879 l 21 876 l 15 801 l 25 800 q 50 839 39 828 q 61 846 54 844 q 83 849 68 847 q 106 850 90 849 q 136 849 122 850 q 161 847 150 849 l 163 746 l 163 619 l 160 543 q 148 499 160 511 q 125 486 136 488 l 107 483 l 107 474 l 143 474 l 204 475 l 282 474 l 282 485 q 250 487 260 485 q 231 499 240 489 q 219 536 222 510 q 215 592 215 563 q 216 619 215 607 q 217 642 217 632 q 215 709 217 667 q 214 776 214 751 l 219 847 l 274 847 q 311 844 293 847 q 341 832 329 842 q 358 800 353 822 l 365 801 "},"":{"ha":526,"x_min":76,"x_max":506,"o":"m 496 181 q 456 263 496 218 q 389 318 426 296 q 254 382 321 350 q 190 425 211 404 q 160 486 160 454 q 201 553 160 528 q 290 578 242 578 q 415 506 369 578 q 444 435 431 482 l 464 435 l 464 526 l 463 629 l 450 629 q 442 619 444 622 q 401 601 422 601 q 345 615 378 600 q 289 631 313 631 q 140 581 203 631 q 76 458 76 531 q 161 313 76 365 q 299 250 229 281 q 387 186 363 217 q 411 118 411 156 q 374 51 411 74 q 292 33 343 33 q 167 90 215 33 q 104 217 132 131 l 90 211 l 90 14 q 107 11 97 13 q 119 24 113 17 q 131 31 125 32 q 218 0 174 15 q 271 -8 244 -8 q 425 42 360 -8 q 496 181 496 96 m 506 928 l 472 939 l 272 811 l 128 928 l 94 922 l 225 725 l 333 728 l 506 928 "},"":{"ha":456,"x_min":58,"x_max":414,"o":"m 414 358 l 125 692 l 81 692 l 275 365 l 58 19 l 125 19 l 414 358 "},"":{"ha":908,"x_min":6,"x_max":883,"o":"m 883 196 l 865 215 q 840 161 851 179 q 746 89 804 106 q 699 82 718 82 q 560 168 614 82 q 517 310 517 236 l 517 350 q 518 375 517 365 l 874 376 l 872 408 q 796 550 872 479 q 690 611 729 611 q 631 605 663 611 q 588 592 600 599 q 517 552 539 567 q 476 517 494 538 q 436 451 450 489 q 349 537 400 506 q 236 568 297 568 q 208 567 218 568 q 59 478 113 554 q 6 303 6 401 q 6 288 6 297 q 7 271 6 279 q 76 90 7 168 q 250 13 146 13 q 374 49 321 13 q 457 149 426 86 q 482 106 469 125 q 501 78 494 86 q 577 26 526 49 q 671 3 628 3 q 735 13 701 3 q 813 61 788 28 q 875 172 851 114 q 883 196 879 182 m 763 414 l 518 411 q 561 499 526 451 q 588 535 585 531 q 635 557 607 557 q 701 536 669 557 q 750 483 733 515 q 761 447 760 464 q 763 414 763 431 m 376 299 q 347 113 376 161 q 261 64 318 64 q 172 106 204 64 q 124 279 136 153 q 119 331 119 318 q 118 365 118 344 q 140 480 118 435 q 215 532 161 525 q 232 533 221 532 q 343 456 303 533 q 376 299 376 390 "},"":{"ha":882,"x_min":22,"x_max":843,"o":"m 843 881 l 842 893 l 765 892 l 724 894 l 625 892 q 624 867 624 886 q 640 864 635 865 q 676 833 671 856 q 650 773 681 817 q 560 651 619 729 q 474 549 518 601 q 426 497 431 497 q 393 579 421 525 q 321 721 325 708 q 286 769 317 733 q 250 844 240 825 q 294 869 257 858 q 331 878 307 872 l 329 896 l 186 897 l 24 896 l 22 879 q 54 871 43 875 q 107 828 88 857 q 189 715 147 771 q 251 606 238 647 q 289 525 260 583 q 324 444 313 479 l 321 372 l 321 250 l 321 122 q 264 49 321 78 q 207 29 246 39 l 207 4 l 275 4 l 465 6 l 590 4 l 588 29 q 558 38 569 35 q 503 64 524 49 q 472 124 472 88 l 474 356 l 474 428 l 549 531 l 658 692 q 697 750 681 725 q 764 838 735 807 q 810 868 779 854 q 843 881 829 876 m 625 1086 q 569 1114 604 1114 q 528 1100 546 1114 q 500 1044 500 1079 q 514 1003 500 1021 q 569 975 535 975 q 611 989 593 975 q 639 1044 639 1010 q 625 1086 639 1068 m 411 1000 q 424 1038 424 1017 q 394 1094 424 1075 q 357 1107 378 1107 q 300 1078 319 1107 q 288 1040 288 1061 q 317 983 288 1003 q 354 971 333 971 q 411 1000 392 971 "},"":{"ha":332,"x_min":101,"x_max":240,"o":"m 224 940 q 175 967 206 967 q 139 956 157 967 q 113 907 113 938 q 124 871 113 889 q 172 844 142 844 q 208 856 190 844 q 235 904 235 874 q 224 940 235 922 m 240 183 q 234 311 240 261 q 213 450 228 361 q 194 607 203 532 q 179 731 186 682 l 163 731 q 149 624 153 663 q 129 444 135 508 q 110 313 119 379 q 101 183 101 246 q 113 62 101 96 q 164 28 125 28 q 240 183 240 28 "},"":{"ha":529,"x_min":33,"x_max":490,"o":"m 490 189 l 490 228 q 461 168 474 189 q 363 89 421 106 q 324 85 346 85 q 273 90 294 85 q 253 106 251 96 l 267 172 q 306 364 272 207 q 340 557 331 486 q 367 525 353 540 q 399 464 376 508 q 429 447 407 447 q 468 462 451 447 q 485 492 485 476 q 457 542 485 514 q 404 583 442 557 q 376 601 390 593 q 350 611 361 608 q 383 735 367 672 q 400 811 394 778 l 344 800 l 317 694 l 297 617 q 248 608 275 617 q 204 592 221 600 q 133 552 156 567 q 93 517 111 538 q 45 431 57 475 q 33 325 33 386 q 34 289 33 307 q 35 253 35 271 q 58 162 35 226 q 100 78 82 97 q 128 54 110 67 q 190 22 147 42 l 150 -233 l 200 -233 q 217 -97 208 -165 q 239 11 228 -43 q 264 6 249 8 q 288 3 279 3 q 351 13 318 3 q 429 61 404 28 q 479 151 461 104 q 490 189 485 167 m 297 568 q 276 483 285 521 q 256 383 267 444 l 211 146 q 174 240 188 186 q 160 331 160 294 l 160 372 q 165 440 160 419 q 193 492 171 460 q 297 568 233 547 "},"":{"ha":682,"x_min":61,"x_max":644,"o":"m 644 232 l 628 233 q 583 192 600 206 q 508 146 533 150 q 463 142 483 142 q 421 147 443 142 q 378 161 399 153 q 312 194 346 174 q 278 228 278 215 q 290 397 278 240 q 294 500 294 450 l 292 560 l 422 561 l 406 617 l 279 613 l 278 667 l 278 719 q 299 838 278 806 q 422 883 329 883 q 517 811 483 883 q 589 733 551 739 q 632 769 632 728 q 575 869 632 819 q 417 928 510 928 q 244 850 314 928 q 207 799 218 822 q 183 706 196 775 q 179 663 179 682 q 183 610 179 638 l 61 606 l 67 556 l 189 557 l 189 550 q 186 501 189 540 q 183 447 183 463 q 189 389 183 418 q 197 356 190 378 q 207 315 204 333 q 210 278 210 296 q 211 247 211 260 q 211 228 211 240 l 133 228 q 81 203 94 228 q 67 128 67 179 q 70 89 67 108 q 85 53 74 69 q 113 31 96 38 q 153 24 131 24 q 213 32 181 24 q 253 85 244 40 q 256 128 256 99 q 307 86 286 100 q 433 44 371 44 q 606 99 556 44 q 644 232 644 142 m 211 161 q 217 144 215 153 q 218 119 218 135 q 205 82 218 94 q 169 69 192 69 q 131 85 146 69 q 117 121 117 100 q 133 161 117 144 q 164 171 144 171 q 203 164 181 171 q 211 161 206 164 "},"":{"ha":678,"x_min":39,"x_max":644,"o":"m 644 483 q 574 686 644 603 l 639 761 l 600 806 l 531 728 q 447 777 493 760 q 350 794 400 794 q 151 728 238 794 l 83 806 l 44 761 l 110 686 q 58 599 76 647 q 39 500 39 551 q 119 285 39 374 l 56 211 l 94 167 l 164 246 q 244 203 203 218 q 333 189 286 189 q 496 231 425 189 l 567 150 l 606 194 l 543 265 q 617 365 590 308 q 644 483 644 421 m 583 483 q 508 313 583 382 q 328 244 432 244 q 158 320 226 244 q 89 500 89 396 q 165 670 89 601 q 344 739 240 739 q 515 663 446 739 q 583 483 583 588 "},"":{"ha":882,"x_min":22,"x_max":843,"o":"m 843 881 l 842 893 l 765 892 l 724 894 l 625 892 q 624 867 624 886 q 640 864 635 865 q 676 833 671 856 q 650 773 681 817 q 560 651 619 729 q 474 549 518 601 q 426 497 431 497 q 393 579 421 525 q 321 721 325 708 q 286 769 317 733 q 250 844 240 825 q 294 869 257 858 q 331 878 307 872 l 329 896 l 186 897 l 24 896 l 22 879 q 54 871 43 875 q 107 828 88 857 q 189 715 147 771 q 251 606 238 647 q 319 457 285 531 l 117 456 l 111 406 l 322 401 l 321 372 l 321 283 l 100 283 l 97 222 l 321 221 l 321 122 q 264 49 321 78 q 207 29 246 39 l 207 4 l 275 4 l 465 6 l 590 4 l 588 29 q 558 38 569 35 q 503 64 524 49 q 472 124 472 88 l 472 219 l 703 217 l 700 283 l 474 283 l 474 356 l 474 399 l 706 394 l 706 461 l 497 458 l 549 531 l 658 692 q 697 750 681 725 q 764 838 735 807 q 810 868 779 854 q 843 881 829 876 "},"":{"ha":394,"x_min":160,"x_max":233,"o":"m 228 346 l 228 946 l 161 939 l 161 344 l 228 346 m 233 -199 l 232 135 l 160 133 l 161 -200 l 233 -199 "},"":{"ha":593,"x_min":67,"x_max":539,"o":"m 533 336 q 439 482 517 406 q 306 594 404 517 q 238 656 260 631 q 200 733 200 697 q 224 801 200 772 q 286 836 249 829 q 300 839 290 836 q 314 839 307 839 q 387 817 356 839 q 418 756 418 796 q 416 737 417 749 q 411 714 415 725 q 431 667 403 688 q 489 647 458 647 q 528 674 518 647 q 533 722 533 689 q 528 759 533 751 q 511 781 522 767 q 441 849 481 832 q 328 867 401 867 q 178 804 228 867 q 133 647 133 749 q 153 578 133 610 q 199 526 168 551 q 93 408 126 471 q 67 311 67 360 q 72 269 67 288 q 167 124 89 200 q 300 11 201 89 q 368 -50 346 -25 q 406 -128 406 -92 q 381 -195 406 -167 q 319 -231 357 -224 q 306 -233 315 -231 q 292 -233 299 -233 q 219 -212 250 -233 q 188 -150 188 -190 q 189 -131 188 -143 q 194 -108 190 -119 q 175 -62 203 -82 q 117 -42 147 -42 q 80 -62 88 -42 q 72 -117 72 -83 q 78 -153 72 -146 q 94 -175 83 -161 q 165 -244 125 -226 q 278 -261 204 -261 q 428 -199 378 -261 q 472 -42 472 -143 q 456 16 472 -14 q 397 81 439 46 q 489 165 460 128 q 539 294 539 228 q 533 336 539 318 m 444 178 q 423 135 439 154 q 382 96 407 115 q 339 126 356 115 q 300 153 304 150 q 199 243 225 211 q 154 365 154 297 q 156 390 154 367 q 162 431 157 413 q 188 471 167 450 q 229 504 196 479 q 269 478 250 490 q 306 453 289 467 q 407 363 381 394 q 451 240 451 308 q 450 216 451 239 q 444 178 449 193 "},"":{"ha":506,"x_min":43,"x_max":394,"o":"m 381 758 q 325 786 360 786 q 283 772 301 786 q 256 717 256 751 q 269 675 256 693 q 325 647 290 647 q 367 661 349 647 q 394 717 394 682 q 381 758 394 740 m 167 672 q 179 710 179 689 q 150 767 179 747 q 113 779 133 779 q 56 750 75 779 q 43 713 43 733 q 72 656 43 675 q 110 643 89 643 q 167 672 147 643 "},"":{"ha":1017,"x_min":22,"x_max":994,"o":"m 994 517 q 853 863 994 719 q 511 1006 711 1006 q 165 864 308 1006 q 22 522 22 722 q 164 176 22 319 q 506 33 306 33 q 851 175 708 33 q 994 517 994 317 m 922 511 q 799 222 922 342 q 503 103 675 103 q 214 226 333 103 q 94 522 94 350 q 218 811 94 692 q 514 931 342 931 q 803 807 683 931 q 922 511 922 683 m 758 332 l 750 343 q 701 301 713 310 q 651 267 676 282 q 602 245 626 253 q 544 238 578 238 q 531 238 538 238 q 515 239 524 238 q 414 268 460 239 q 339 344 368 297 q 312 416 319 378 q 304 501 304 454 q 306 558 304 518 q 318 626 307 599 q 413 735 344 693 q 458 760 436 750 q 495 771 481 769 q 522 775 510 772 q 540 775 531 775 q 668 728 614 775 q 708 681 686 713 l 721 681 l 711 826 l 696 826 l 683 796 q 678 785 681 786 q 663 785 669 785 q 632 794 657 785 q 577 814 588 813 q 540 817 567 815 q 501 817 513 818 q 454 811 478 817 q 408 797 431 806 q 360 774 385 789 q 313 746 335 760 q 275 722 300 738 q 246 693 258 710 q 210 610 218 656 q 201 497 201 565 q 246 339 201 408 q 322 260 276 290 q 422 215 368 229 q 490 198 476 200 q 519 197 503 196 q 657 231 600 197 q 758 332 714 264 "},"":{"ha":303,"x_min":10,"x_max":285,"o":"m 283 629 q 283 646 285 633 q 263 635 274 640 q 246 631 253 631 q 230 641 238 631 q 221 658 222 651 l 221 718 l 221 779 l 221 797 q 218 831 221 813 q 208 861 215 850 q 184 896 196 883 q 150 915 172 908 q 118 922 128 922 q 94 918 110 922 q 46 896 58 904 q 18 843 18 876 q 22 812 18 818 q 35 804 25 806 q 67 833 67 797 l 67 846 q 79 884 67 868 q 124 900 92 900 q 159 879 147 900 q 171 835 171 858 l 168 813 q 158 810 161 810 q 128 799 135 803 q 53 754 83 781 q 10 674 10 717 q 26 619 10 643 q 72 596 43 596 q 139 618 96 596 q 175 639 151 625 q 221 592 188 592 q 258 603 240 592 q 283 629 276 615 m 175 663 q 157 653 163 656 q 128 643 140 644 q 96 639 113 639 q 67 648 78 639 q 57 679 57 657 q 99 754 57 722 q 160 788 121 771 l 172 792 q 174 770 174 781 q 174 746 174 760 l 174 731 l 175 663 "},"":{"ha":694,"x_min":42,"x_max":686,"o":"m 397 19 l 181 365 l 375 692 l 331 692 l 42 358 l 331 19 l 397 19 m 686 14 l 469 360 l 664 686 l 619 686 l 331 353 l 619 14 l 686 14 "},"":{"ha":922,"x_min":11,"x_max":885,"o":"m 885 256 l 882 611 l 11 611 l 11 550 l 822 550 l 822 256 l 885 256 "},"":{"ha":650,"x_min":119,"x_max":531,"o":"m 531 307 l 525 438 l 124 432 l 119 313 l 531 307 "},"":{"ha":1122,"x_min":0,"x_max":1103,"o":"m 1097 467 q 1103 497 1099 476 q 1103 546 1103 521 q 969 906 1103 750 q 631 1093 835 1063 q 585 1099 599 1099 q 551 1099 571 1099 q 191 965 347 1099 q 6 625 35 831 q 0 593 4 615 q 0 544 0 568 q 134 185 0 342 q 472 0 268 29 q 503 -6 482 -1 q 551 -6 526 -6 q 912 128 756 -6 q 1097 467 1068 263 m 1029 499 q 873 194 1010 317 q 556 71 736 71 q 528 72 539 71 q 504 74 517 72 q 199 230 322 93 q 76 547 76 367 q 77 569 76 556 q 79 599 78 582 q 235 903 99 781 q 553 1026 372 1026 q 581 1026 569 1026 q 604 1024 592 1025 q 909 867 786 1004 q 1032 550 1032 731 q 1031 528 1032 542 q 1029 499 1031 515 m 868 239 l 868 258 q 843 261 860 258 q 812 267 826 264 q 781 277 797 269 q 753 294 764 285 l 701 382 l 658 468 l 594 594 q 603 597 600 597 q 640 611 625 603 l 682 635 q 724 690 706 657 q 742 747 742 724 q 731 814 742 788 q 700 857 721 840 q 628 892 669 885 q 558 899 586 899 q 501 900 531 900 l 440 900 l 400 900 l 325 900 l 285 900 q 282 890 282 897 q 282 876 282 883 q 321 865 303 876 q 351 825 339 853 l 350 753 l 350 667 l 350 579 q 343 382 350 563 q 342 290 342 346 q 325 272 342 286 q 292 258 308 258 l 292 243 l 508 243 l 508 254 q 469 258 478 254 q 456 268 461 263 q 444 288 444 278 l 443 413 l 444 513 l 444 579 l 508 579 l 556 485 l 590 413 l 635 322 l 672 243 l 868 239 m 646 738 q 633 682 646 707 q 613 658 622 668 q 590 640 604 649 q 549 619 571 625 q 515 609 533 611 q 468 607 496 607 q 444 608 460 607 q 443 640 443 618 q 444 666 443 651 q 444 699 444 681 l 444 751 l 443 821 l 444 849 q 467 856 453 851 q 511 860 481 860 q 540 858 529 860 q 564 854 551 856 q 613 826 593 846 q 646 738 646 793 "},"":{"ha":800,"x_min":0,"x_max":794,"o":"m 794 906 l 794 961 l 6 967 l 0 900 l 794 906 "},"":{"ha":404,"x_min":40,"x_max":374,"o":"m 374 769 q 326 890 374 839 q 211 942 279 942 q 90 894 140 942 q 40 779 40 847 q 87 658 40 707 q 203 608 133 608 q 324 654 274 608 q 374 769 374 700 m 319 779 q 283 689 319 725 q 193 653 247 653 q 103 689 139 653 q 67 779 67 725 q 103 869 67 832 q 193 906 140 906 q 283 869 246 906 q 319 779 319 832 "},"":{"ha":750,"x_min":18,"x_max":925,"o":"m 711 506 l 711 556 l 549 553 l 406 556 l 406 683 l 406 883 l 350 883 l 353 556 l 161 556 l 39 556 l 33 506 l 278 506 l 353 506 l 356 156 l 406 156 l 406 174 q 406 228 406 201 q 407 282 407 256 l 407 299 l 407 318 l 407 342 l 407 369 l 407 404 l 406 506 l 711 506 m 744 90 l 18 89 l 18 44 l 742 44 l 744 90 "},"":{"ha":339,"x_min":42,"x_max":314,"o":"m 314 629 q 297 617 303 619 q 242 594 263 594 q 184 594 221 594 q 114 592 147 593 q 157 624 142 611 q 235 710 203 663 q 269 777 258 747 q 279 842 279 807 q 258 906 279 879 q 203 949 238 933 q 172 956 186 956 q 111 939 143 956 q 67 908 79 922 q 47 865 56 893 q 42 842 44 857 l 58 838 q 74 871 65 860 q 154 904 100 904 q 208 876 188 904 q 228 800 228 847 q 168 665 228 722 q 131 635 151 650 q 67 572 122 624 q 50 553 58 563 l 154 549 l 264 551 q 293 593 271 556 q 314 629 300 606 "},"":{"ha":294,"x_min":25,"x_max":251,"o":"m 251 900 q 222 951 251 931 q 160 972 193 972 q 64 933 100 972 q 40 894 53 921 l 43 890 q 74 913 63 906 q 124 935 107 935 q 181 914 167 935 q 189 872 189 901 q 132 790 189 828 q 76 763 114 779 q 139 740 119 751 q 200 633 200 704 q 181 578 200 601 q 129 546 157 549 q 90 558 106 546 q 76 571 83 564 q 47 585 63 585 q 31 578 38 585 q 25 560 25 571 q 42 533 25 542 q 70 524 58 525 q 99 524 82 524 q 204 557 168 524 q 247 697 247 597 q 211 754 247 717 q 176 786 200 765 q 214 818 201 806 q 251 900 251 858 "},"":{"ha":506,"x_min":178,"x_max":389,"o":"m 389 867 l 244 867 l 178 656 l 228 650 l 389 867 "},"":{"ha":618,"x_min":14,"x_max":613,"o":"m 613 133 q 610 151 613 147 q 588 90 611 150 q 563 60 575 60 q 536 88 549 60 q 529 112 531 97 q 528 146 528 126 q 529 184 528 160 q 531 217 531 208 l 531 458 l 528 600 l 460 600 l 368 600 l 368 582 q 392 578 383 579 q 427 560 417 571 q 440 532 438 550 q 442 478 442 514 l 442 453 l 442 254 q 442 223 442 238 q 443 194 443 208 q 436 144 443 167 q 385 79 421 100 q 299 58 350 58 q 205 87 236 58 q 165 165 174 115 q 163 185 165 172 q 163 203 163 193 q 164 239 163 214 q 165 278 165 264 l 164 461 l 165 599 l 93 599 l 15 599 l 14 582 q 26 581 22 581 q 64 553 53 575 q 74 510 71 536 q 78 457 78 485 q 76 421 76 438 q 76 390 76 404 l 74 203 l 75 174 l 75 167 l 76 104 q 65 1 76 67 q 44 -167 44 -122 q 60 -248 44 -225 q 103 -271 75 -271 q 152 -242 131 -271 q 174 -172 174 -214 q 160 -64 174 -121 q 128 46 156 -49 l 139 40 q 196 15 156 25 q 265 4 236 4 q 313 13 272 4 q 364 25 354 21 q 406 58 385 33 q 440 100 417 71 q 441 78 440 89 q 448 56 442 68 q 465 31 454 43 q 483 15 476 19 q 505 6 489 10 q 543 1 521 1 q 586 14 574 1 q 613 133 613 42 "},"":{"ha":651,"x_min":33,"x_max":576,"o":"m 576 965 q 477 962 528 963 q 331 961 426 961 q 292 962 310 961 q 258 963 274 963 q 217 956 229 963 q 63 825 92 878 q 33 689 33 772 q 108 513 33 571 q 300 461 175 461 l 306 -256 l 358 -256 l 357 897 l 461 897 l 463 581 l 463 -254 l 521 -257 l 521 -174 l 515 -129 l 510 232 l 510 376 l 510 565 l 504 699 q 503 813 503 765 q 503 906 503 861 l 569 906 l 576 965 "},"":{"ha":292,"x_min":79,"x_max":215,"o":"m 203 363 q 215 400 215 379 q 186 456 215 435 q 149 468 169 468 q 92 439 111 468 q 79 401 79 422 q 108 344 79 364 q 146 333 124 333 q 203 363 183 333 "},"":{"ha":367,"x_min":69,"x_max":278,"o":"m 278 -144 q 249 -81 278 -112 q 169 -44 215 -44 q 188 -17 178 -31 q 208 8 197 -4 q 169 19 188 10 q 132 -46 163 7 q 94 -108 108 -87 q 110 -106 101 -107 q 132 -106 119 -106 q 169 -110 153 -106 q 192 -129 185 -115 q 200 -160 200 -143 q 161 -217 200 -200 q 133 -226 142 -225 q 89 -228 124 -228 q 69 -228 81 -228 l 69 -250 l 114 -250 l 139 -250 q 175 -248 161 -250 q 209 -237 189 -246 q 253 -202 229 -229 q 278 -144 278 -175 "},"":{"ha":213,"x_min":32,"x_max":178,"o":"m 178 569 l 178 575 q 137 587 144 575 q 129 628 129 599 l 126 922 l 126 978 l 32 925 l 39 911 q 50 917 47 915 q 78 919 74 926 q 81 894 79 907 l 81 854 q 83 740 81 810 q 86 628 86 671 q 78 588 86 603 q 46 572 71 572 l 46 567 l 90 567 l 178 569 "},"":{"ha":296,"x_min":19,"x_max":281,"o":"m 278 797 q 238 935 268 883 q 139 996 201 996 q 43 917 74 996 q 19 760 19 857 q 51 622 19 681 q 140 551 82 563 q 157 550 146 550 q 250 615 215 550 q 281 756 281 672 q 280 773 281 763 q 278 797 279 783 m 217 783 q 217 744 217 763 q 218 707 218 725 q 207 618 218 644 q 151 583 192 583 q 98 614 115 583 q 81 738 81 644 l 81 778 q 90 906 81 864 q 150 969 106 969 q 210 904 196 969 q 217 783 217 871 "},"":{"ha":706,"x_min":42,"x_max":658,"o":"m 397 358 l 108 692 l 64 692 l 258 365 l 42 19 l 108 19 l 397 358 m 658 358 l 369 692 l 325 692 l 519 365 l 303 19 l 369 19 l 658 358 "},"":{"ha":944,"x_min":61,"x_max":872,"o":"m 392 540 l 392 546 q 348 560 357 546 q 339 604 339 574 l 335 928 q 335 956 335 938 q 335 989 335 975 l 232 932 l 239 917 q 258 925 253 924 q 282 925 278 932 q 285 913 285 921 l 285 897 l 285 854 q 288 728 285 804 q 290 604 290 651 q 284 560 293 576 q 247 543 275 543 l 247 538 l 296 538 l 392 540 m 797 183 q 794 216 796 201 q 794 238 793 231 l 744 238 l 742 485 l 743 556 l 697 553 q 608 404 639 454 q 494 225 517 251 q 496 212 494 221 q 493 181 497 203 l 568 181 l 694 183 l 696 63 q 725 68 711 64 l 749 67 l 749 133 l 749 183 l 797 183 m 872 833 l 800 833 l 61 94 l 133 94 l 872 833 m 697 494 l 694 238 l 535 235 l 697 494 "},"":{"ha":928,"x_min":33,"x_max":856,"o":"m 375 557 l 375 563 q 331 576 340 563 q 322 621 322 590 l 318 944 q 318 973 318 954 q 318 1006 318 992 l 215 949 l 222 933 q 242 942 236 940 q 265 942 261 949 q 268 929 268 938 l 268 914 l 268 871 q 271 744 268 821 q 274 621 274 668 q 267 576 276 593 q 231 560 258 560 l 231 554 l 279 554 l 375 557 m 851 125 q 833 113 840 117 q 771 88 793 88 q 697 85 728 86 q 631 83 667 85 q 678 119 661 104 q 764 214 731 164 q 801 288 789 254 q 813 358 813 321 q 789 431 813 400 q 729 476 765 461 q 694 485 713 485 q 628 467 663 485 q 581 432 593 449 q 557 385 565 415 q 551 358 554 375 l 569 354 q 588 392 578 381 q 675 428 617 428 q 733 397 711 428 q 756 313 756 365 q 708 186 756 242 q 649 131 678 158 q 578 63 638 117 q 560 42 568 51 q 615 38 585 39 q 675 36 646 36 l 796 39 q 828 85 803 43 q 851 125 836 97 m 856 850 l 783 850 l 33 100 l 106 100 l 856 850 "},"":{"ha":850,"x_min":33,"x_max":811,"o":"m 403 956 q 371 1012 403 989 q 303 1035 339 1035 q 197 992 238 1035 q 171 949 185 978 l 174 944 q 207 969 196 963 q 263 993 243 993 q 317 980 300 993 q 335 925 335 967 q 272 833 335 874 q 210 804 251 821 q 278 779 256 792 q 346 661 346 739 q 324 600 346 626 q 268 565 297 568 q 231 574 243 565 q 209 595 219 583 q 179 607 199 607 q 160 598 168 607 q 153 582 153 589 q 169 553 153 563 q 198 542 186 543 q 235 540 210 540 q 350 578 310 540 q 399 732 399 624 q 360 793 399 753 q 321 829 347 806 q 363 865 350 851 q 403 956 403 910 m 811 850 l 739 850 l 33 144 l 106 144 l 811 850 m 736 194 q 733 227 735 213 q 733 249 732 242 l 683 249 l 681 496 l 682 567 l 636 564 q 547 415 578 465 q 433 236 456 263 q 435 223 433 232 q 432 192 436 214 l 507 192 l 633 194 l 635 74 q 664 79 650 75 l 688 78 l 688 144 l 688 194 l 736 194 m 636 506 l 633 249 l 474 246 l 636 506 "},"":{"ha":607,"x_min":22,"x_max":583,"o":"m 365 850 q 379 888 379 865 q 354 939 379 919 q 317 953 339 953 q 265 928 285 953 q 251 890 251 913 q 276 839 251 858 q 314 825 292 825 q 365 850 346 825 m 583 239 q 556 343 583 274 q 494 422 524 422 l 472 422 q 434 415 451 422 q 399 383 417 407 q 383 344 381 358 q 465 256 393 290 q 494 222 494 242 q 421 108 494 156 q 288 67 357 67 q 178 126 207 67 q 156 276 156 172 q 221 528 156 433 q 330 690 325 679 q 336 716 335 701 q 338 746 338 731 q 338 761 338 751 l 299 761 q 263 660 299 717 q 194 576 235 615 q 89 454 142 515 q 40 363 57 418 q 22 251 22 308 q 71 99 22 158 q 206 15 119 40 q 271 6 240 6 q 308 8 290 6 q 350 17 325 11 q 513 92 453 42 q 583 239 583 151 "},"":{"ha":847,"x_min":35,"x_max":1186,"o":"m 813 7 l 813 22 q 776 28 788 25 q 736 69 740 40 l 708 175 l 671 299 l 608 508 q 593 561 596 547 q 571 646 575 635 q 547 713 561 675 q 508 813 528 763 l 481 882 l 417 882 q 407 867 410 872 q 371 779 390 836 q 338 646 354 713 l 292 517 q 242 400 286 504 q 213 329 221 354 q 150 154 181 242 l 118 69 q 67 22 103 31 q 35 22 56 21 l 35 7 l 229 7 l 229 22 q 204 28 211 25 q 181 69 181 40 q 190 93 186 83 q 217 152 203 122 q 246 221 232 182 q 267 292 256 249 q 286 340 271 306 q 299 368 290 350 l 358 367 q 436 367 404 367 q 500 368 468 368 q 514 331 510 344 q 558 192 543 247 l 590 69 q 569 28 590 39 q 549 22 563 25 l 549 7 l 813 7 m 493 410 l 446 408 q 376 409 404 408 q 319 410 347 410 q 340 460 333 442 q 375 550 364 517 q 403 635 386 583 q 417 681 407 651 l 463 525 l 493 410 m 214 256 l 1186 256 l 1186 1367 l 214 1367 l 214 256 m 1117 325 l 283 325 l 283 1297 l 1117 1297 l 1117 325 "},"":{"ha":847,"x_min":35,"x_max":813,"o":"m 813 7 l 813 22 q 776 28 788 25 q 736 69 740 40 l 708 175 l 671 299 l 608 508 q 593 561 596 547 q 571 646 575 635 q 547 713 561 675 q 508 813 528 763 l 481 882 l 417 882 q 407 867 410 872 q 371 779 390 836 q 338 646 354 713 l 292 517 q 242 400 286 504 q 213 329 221 354 q 150 154 181 242 l 118 69 q 67 22 103 31 q 35 22 56 21 l 35 7 l 229 7 l 229 22 q 204 28 211 25 q 181 69 181 40 q 190 93 186 83 q 217 152 203 122 q 246 221 232 182 q 267 292 256 249 q 286 340 271 306 q 299 368 290 350 l 358 367 q 436 367 404 367 q 500 368 468 368 q 514 331 510 344 q 558 192 543 247 l 590 69 q 569 28 590 39 q 549 22 563 25 l 549 7 l 813 7 m 493 410 l 446 408 q 376 409 404 408 q 319 410 347 410 q 340 460 333 442 q 375 550 364 517 q 403 635 386 583 q 417 681 407 651 l 463 525 l 493 410 m 617 1111 l 472 1111 l 406 900 l 456 894 l 617 1111 "},"":{"ha":847,"x_min":35,"x_max":813,"o":"m 813 7 l 813 22 q 776 28 788 25 q 736 69 740 40 l 708 175 l 671 299 l 608 508 q 593 561 596 547 q 571 646 575 635 q 547 713 561 675 q 508 813 528 763 l 481 882 l 417 882 q 407 867 410 872 q 371 779 390 836 q 338 646 354 713 l 292 517 q 242 400 286 504 q 213 329 221 354 q 150 154 181 242 l 118 69 q 67 22 103 31 q 35 22 56 21 l 35 7 l 229 7 l 229 22 q 204 28 211 25 q 181 69 181 40 q 190 93 186 83 q 217 152 203 122 q 246 221 232 182 q 267 292 256 249 q 286 340 271 306 q 299 368 290 350 l 358 367 q 436 367 404 367 q 500 368 468 368 q 514 331 510 344 q 558 192 543 247 l 590 69 q 569 28 590 39 q 549 22 563 25 l 549 7 l 813 7 m 493 410 l 446 408 q 376 409 404 408 q 319 410 347 410 q 340 460 333 442 q 375 550 364 517 q 403 635 386 583 q 417 681 407 651 l 463 525 l 493 410 m 678 894 l 506 1094 l 397 1097 l 267 900 l 300 894 l 444 1011 l 644 883 l 678 894 "},"":{"ha":847,"x_min":35,"x_max":813,"o":"m 813 7 l 813 22 q 776 28 788 25 q 736 69 740 40 l 708 175 l 671 299 l 608 508 q 593 561 596 547 q 571 646 575 635 q 547 713 561 675 q 508 813 528 763 l 481 882 l 417 882 q 407 867 410 872 q 371 779 390 836 q 338 646 354 713 l 292 517 q 242 400 286 504 q 213 329 221 354 q 150 154 181 242 l 118 69 q 67 22 103 31 q 35 22 56 21 l 35 7 l 229 7 l 229 22 q 204 28 211 25 q 181 69 181 40 q 190 93 186 83 q 217 152 203 122 q 246 221 232 182 q 267 292 256 249 q 286 340 271 306 q 299 368 290 350 l 358 367 q 436 367 404 367 q 500 368 468 368 q 514 331 510 344 q 558 192 543 247 l 590 69 q 569 28 590 39 q 549 22 563 25 l 549 7 l 813 7 m 493 410 l 446 408 q 376 409 404 408 q 319 410 347 410 q 340 460 333 442 q 375 550 364 517 q 403 635 386 583 q 417 681 407 651 l 463 525 l 493 410 m 751 1097 q 751 1138 751 1113 q 747 1182 750 1163 l 740 1186 q 706 1122 722 1143 q 576 1060 656 1060 q 419 1135 542 1060 q 315 1168 365 1168 q 207 1112 244 1168 q 169 968 169 1056 q 226 1033 197 1000 q 264 1057 249 1057 q 444 979 311 1057 q 561 944 504 944 q 697 986 642 944 q 751 1097 751 1028 "},"":{"ha":847,"x_min":35,"x_max":813,"o":"m 813 7 l 813 22 q 776 28 788 25 q 736 69 740 40 l 708 175 l 671 299 l 608 508 q 593 561 596 547 q 571 646 575 635 q 547 713 561 675 q 508 813 528 763 l 481 882 l 417 882 q 407 867 410 872 q 371 779 390 836 q 338 646 354 713 l 292 517 q 242 400 286 504 q 213 329 221 354 q 150 154 181 242 l 118 69 q 67 22 103 31 q 35 22 56 21 l 35 7 l 229 7 l 229 22 q 204 28 211 25 q 181 69 181 40 q 190 93 186 83 q 217 152 203 122 q 246 221 232 182 q 267 292 256 249 q 286 340 271 306 q 299 368 290 350 l 358 367 q 436 367 404 367 q 500 368 468 368 q 514 331 510 344 q 558 192 543 247 l 590 69 q 569 28 590 39 q 549 22 563 25 l 549 7 l 813 7 m 493 410 l 446 408 q 376 409 404 408 q 319 410 347 410 q 340 460 333 442 q 375 550 364 517 q 403 635 386 583 q 417 681 407 651 l 463 525 l 493 410 m 614 1042 q 558 1069 593 1069 q 517 1056 535 1069 q 489 1000 489 1035 q 503 958 489 976 q 558 931 524 931 q 600 944 582 931 q 628 1000 628 965 q 614 1042 628 1024 m 400 956 q 413 993 413 972 q 383 1050 413 1031 q 346 1063 367 1063 q 289 1033 308 1063 q 276 996 276 1017 q 306 939 276 958 q 343 926 322 926 q 400 956 381 926 "},"":{"ha":847,"x_min":35,"x_max":813,"o":"m 813 7 l 813 22 q 776 28 788 25 q 736 69 740 40 l 708 175 l 671 299 l 608 508 q 593 561 596 547 q 571 646 575 635 q 547 713 561 675 q 508 813 528 763 l 481 882 l 417 882 q 407 867 410 872 q 371 779 390 836 q 338 646 354 713 l 292 517 q 242 400 286 504 q 213 329 221 354 q 150 154 181 242 l 118 69 q 67 22 103 31 q 35 22 56 21 l 35 7 l 229 7 l 229 22 q 204 28 211 25 q 181 69 181 40 q 190 93 186 83 q 217 152 203 122 q 246 221 232 182 q 267 292 256 249 q 286 340 271 306 q 299 368 290 350 l 358 367 q 436 367 404 367 q 500 368 468 368 q 514 331 510 344 q 558 192 543 247 l 590 69 q 569 28 590 39 q 549 22 563 25 l 549 7 l 813 7 m 493 410 l 446 408 q 376 409 404 408 q 319 410 347 410 q 340 460 333 442 q 375 550 364 517 q 403 635 386 583 q 417 681 407 651 l 463 525 l 493 410 m 618 986 q 571 1107 618 1056 q 456 1158 524 1158 q 335 1111 385 1158 q 285 996 285 1064 q 331 874 285 924 q 447 825 378 825 q 568 871 518 825 q 618 986 618 917 m 564 996 q 528 906 564 942 q 438 869 492 869 q 347 906 383 869 q 311 996 311 942 q 348 1085 311 1049 q 438 1122 385 1122 q 527 1085 490 1122 q 564 996 564 1049 "},"":{"ha":1167,"x_min":35,"x_max":1138,"o":"m 1138 219 l 1124 219 q 1082 150 1096 172 q 1025 76 1038 81 q 992 71 1013 72 q 951 68 972 69 l 851 65 l 713 68 q 674 85 685 68 q 662 98 667 92 q 654 111 657 104 q 661 185 658 146 q 664 267 664 224 q 660 351 664 296 q 654 447 657 407 l 869 447 q 891 444 878 446 q 914 431 904 442 q 931 378 924 419 q 935 338 932 364 l 951 338 l 951 447 l 951 514 l 951 618 l 935 618 q 929 594 931 603 q 914 536 918 542 q 894 515 903 518 q 869 514 885 511 q 825 521 849 518 q 775 524 801 524 q 679 517 740 524 q 654 514 669 517 q 644 557 647 542 q 636 635 636 603 q 646 774 636 678 q 654 849 649 801 l 844 850 l 935 849 q 958 844 950 846 q 997 829 983 838 q 1036 775 1019 814 q 1049 738 1042 763 l 1057 738 l 1049 893 q 942 900 982 899 q 747 906 829 906 q 563 896 701 906 q 513 893 543 894 l 300 892 l 300 883 q 338 861 326 869 q 374 800 374 833 q 371 779 374 786 q 338 646 354 713 l 292 517 q 242 400 286 504 q 213 329 221 354 q 150 154 181 242 l 118 69 q 67 22 103 31 q 35 22 56 21 l 35 7 l 229 7 l 229 22 q 204 28 211 25 q 181 69 181 40 q 190 93 186 83 q 217 152 203 122 q 246 221 232 182 q 267 292 256 249 q 286 340 271 306 q 299 368 290 350 l 358 367 l 508 367 l 504 294 q 511 131 504 218 q 513 106 511 119 q 503 85 506 92 q 481 53 492 61 q 436 35 460 36 q 401 33 413 33 l 401 8 l 513 8 l 643 17 q 690 13 644 17 q 754 10 735 10 q 894 19 783 10 q 969 24 942 24 q 1065 13 1024 24 q 1079 8 1071 11 l 1138 219 m 513 801 l 504 628 q 508 549 504 619 q 511 426 511 478 l 511 408 q 402 409 446 408 q 319 410 358 410 q 340 460 333 442 q 375 550 364 517 q 403 635 386 583 q 417 681 407 651 l 489 840 q 507 815 500 828 q 513 801 510 811 "},"":{"ha":819,"x_min":39,"x_max":782,"o":"m 782 206 l 769 221 q 706 165 731 185 q 635 117 669 136 q 571 88 600 97 q 494 79 542 79 q 476 79 485 79 q 457 81 468 79 q 322 120 383 81 q 222 222 260 160 q 187 318 197 264 q 176 431 176 372 q 180 525 176 483 q 194 597 183 567 q 244 680 213 644 q 317 741 275 715 q 376 775 358 767 q 433 792 408 789 q 488 796 457 796 q 685 708 604 796 q 714 669 697 694 l 732 669 l 718 864 l 697 864 q 694 856 694 858 q 681 824 686 833 q 674 810 676 811 q 654 810 664 810 q 599 828 642 810 q 550 846 557 846 q 494 851 522 850 q 442 851 465 851 q 376 845 406 851 q 314 827 347 839 q 249 795 281 815 q 188 757 217 775 q 141 726 171 746 q 97 688 111 707 q 51 576 63 639 q 39 425 39 513 q 97 215 39 310 q 200 110 138 151 q 330 50 263 68 q 418 28 397 32 q 463 25 439 25 q 646 71 568 25 q 782 206 724 117 m 550 -111 q 521 -47 550 -79 q 442 -11 488 -11 q 460 16 450 3 q 481 42 469 29 q 442 53 460 43 q 404 -12 435 40 q 367 -75 381 -54 q 383 -73 374 -74 q 404 -72 392 -72 q 441 -77 425 -72 q 465 -96 457 -82 q 472 -126 472 -110 q 433 -183 472 -167 q 405 -193 414 -192 q 361 -194 396 -194 q 342 -194 353 -194 l 342 -217 l 386 -217 l 411 -217 q 447 -215 433 -217 q 481 -204 461 -212 q 526 -169 501 -196 q 550 -111 550 -142 "},"":{"ha":785,"x_min":29,"x_max":1164,"o":"m 765 231 l 751 231 q 710 161 724 183 q 653 88 665 92 q 620 82 640 83 q 579 79 600 81 l 479 76 l 340 79 q 301 96 313 79 q 290 109 294 103 q 282 122 285 115 q 289 196 286 157 q 292 278 292 235 q 288 363 292 307 q 282 458 285 418 l 497 458 q 519 455 506 457 q 542 442 532 453 q 558 389 551 431 q 563 349 560 375 l 579 349 l 579 458 l 579 525 l 579 629 l 563 629 q 557 606 558 614 q 542 547 546 553 q 522 526 531 529 q 497 525 513 522 q 453 532 476 529 q 403 535 429 535 q 307 528 368 535 q 282 525 297 528 q 272 568 275 553 q 264 646 264 614 q 274 785 264 689 q 282 860 276 813 l 472 861 l 563 860 q 586 856 578 857 q 625 840 611 849 q 664 786 647 825 q 676 749 669 774 l 685 749 l 676 904 q 569 911 610 910 q 375 917 457 917 q 190 907 329 917 q 140 904 171 906 l 29 904 l 29 876 q 60 875 49 875 q 107 860 93 871 q 132 831 121 850 q 140 813 135 825 l 132 639 q 135 560 132 631 q 139 438 139 489 q 135 379 139 432 q 132 306 132 326 q 139 142 132 229 q 140 117 139 131 q 131 96 133 103 q 108 64 119 72 q 64 46 88 47 q 29 44 40 44 l 29 19 l 140 19 l 271 28 q 317 24 272 28 q 382 21 363 21 q 522 31 411 21 q 597 35 569 35 q 693 24 651 35 q 707 19 699 22 l 765 231 m 192 306 l 1164 306 l 1164 1417 l 192 1417 l 192 306 m 1094 375 l 261 375 l 261 1347 l 1094 1347 l 1094 375 "},"":{"ha":785,"x_min":29,"x_max":765,"o":"m 765 231 l 751 231 q 710 161 724 183 q 653 88 665 92 q 620 82 640 83 q 579 79 600 81 l 479 76 l 340 79 q 301 96 313 79 q 290 109 294 103 q 282 122 285 115 q 289 196 286 157 q 292 278 292 235 q 288 363 292 307 q 282 458 285 418 l 497 458 q 519 455 506 457 q 542 442 532 453 q 558 389 551 431 q 563 349 560 375 l 579 349 l 579 458 l 579 525 l 579 629 l 563 629 q 557 606 558 614 q 542 547 546 553 q 522 526 531 529 q 497 525 513 522 q 453 532 476 529 q 403 535 429 535 q 307 528 368 535 q 282 525 297 528 q 272 568 275 553 q 264 646 264 614 q 274 785 264 689 q 282 860 276 813 l 472 861 l 563 860 q 586 856 578 857 q 625 840 611 849 q 664 786 647 825 q 676 749 669 774 l 685 749 l 676 904 q 569 911 610 910 q 375 917 457 917 q 190 907 329 917 q 140 904 171 906 l 29 904 l 29 876 q 60 875 49 875 q 107 860 93 871 q 132 831 121 850 q 140 813 135 825 l 132 639 q 135 560 132 631 q 139 438 139 489 q 135 379 139 432 q 132 306 132 326 q 139 142 132 229 q 140 117 139 131 q 131 96 133 103 q 108 64 119 72 q 64 46 88 47 q 29 44 40 44 l 29 19 l 140 19 l 271 28 q 317 24 272 28 q 382 21 363 21 q 522 31 411 21 q 597 35 569 35 q 693 24 651 35 q 707 19 699 22 l 765 231 m 500 1144 l 356 1144 l 289 933 l 339 928 l 500 1144 "},"":{"ha":785,"x_min":29,"x_max":765,"o":"m 765 231 l 751 231 q 710 161 724 183 q 653 88 665 92 q 620 82 640 83 q 579 79 600 81 l 479 76 l 340 79 q 301 96 313 79 q 290 109 294 103 q 282 122 285 115 q 289 196 286 157 q 292 278 292 235 q 288 363 292 307 q 282 458 285 418 l 497 458 q 519 455 506 457 q 542 442 532 453 q 558 389 551 431 q 563 349 560 375 l 579 349 l 579 458 l 579 525 l 579 629 l 563 629 q 557 606 558 614 q 542 547 546 553 q 522 526 531 529 q 497 525 513 522 q 453 532 476 529 q 403 535 429 535 q 307 528 368 535 q 282 525 297 528 q 272 568 275 553 q 264 646 264 614 q 274 785 264 689 q 282 860 276 813 l 472 861 l 563 860 q 586 856 578 857 q 625 840 611 849 q 664 786 647 825 q 676 749 669 774 l 685 749 l 676 904 q 569 911 610 910 q 375 917 457 917 q 190 907 329 917 q 140 904 171 906 l 29 904 l 29 876 q 60 875 49 875 q 107 860 93 871 q 132 831 121 850 q 140 813 135 825 l 132 639 q 135 560 132 631 q 139 438 139 489 q 135 379 139 432 q 132 306 132 326 q 139 142 132 229 q 140 117 139 131 q 131 96 133 103 q 108 64 119 72 q 64 46 88 47 q 29 44 40 44 l 29 19 l 140 19 l 271 28 q 317 24 272 28 q 382 21 363 21 q 522 31 411 21 q 597 35 569 35 q 693 24 651 35 q 707 19 699 22 l 765 231 m 589 967 l 417 1167 l 308 1169 l 178 972 l 211 967 l 356 1083 l 556 956 l 589 967 "},"":{"ha":785,"x_min":29,"x_max":765,"o":"m 765 231 l 751 231 q 710 161 724 183 q 653 88 665 92 q 620 82 640 83 q 579 79 600 81 l 479 76 l 340 79 q 301 96 313 79 q 290 109 294 103 q 282 122 285 115 q 289 196 286 157 q 292 278 292 235 q 288 363 292 307 q 282 458 285 418 l 497 458 q 519 455 506 457 q 542 442 532 453 q 558 389 551 431 q 563 349 560 375 l 579 349 l 579 458 l 579 525 l 579 629 l 563 629 q 557 606 558 614 q 542 547 546 553 q 522 526 531 529 q 497 525 513 522 q 453 532 476 529 q 403 535 429 535 q 307 528 368 535 q 282 525 297 528 q 272 568 275 553 q 264 646 264 614 q 274 785 264 689 q 282 860 276 813 l 472 861 l 563 860 q 586 856 578 857 q 625 840 611 849 q 664 786 647 825 q 676 749 669 774 l 685 749 l 676 904 q 569 911 610 910 q 375 917 457 917 q 190 907 329 917 q 140 904 171 906 l 29 904 l 29 876 q 60 875 49 875 q 107 860 93 871 q 132 831 121 850 q 140 813 135 825 l 132 639 q 135 560 132 631 q 139 438 139 489 q 135 379 139 432 q 132 306 132 326 q 139 142 132 229 q 140 117 139 131 q 131 96 133 103 q 108 64 119 72 q 64 46 88 47 q 29 44 40 44 l 29 19 l 140 19 l 271 28 q 317 24 272 28 q 382 21 363 21 q 522 31 411 21 q 597 35 569 35 q 693 24 651 35 q 707 19 699 22 l 765 231 m 547 1064 q 492 1092 526 1092 q 450 1078 468 1092 q 422 1022 422 1057 q 436 981 422 999 q 492 953 457 953 q 533 967 515 953 q 561 1022 561 988 q 547 1064 561 1046 m 333 978 q 346 1015 346 994 q 317 1072 346 1053 q 279 1085 300 1085 q 222 1056 242 1085 q 210 1018 210 1039 q 239 961 210 981 q 276 949 256 949 q 333 978 314 949 "},"":{"ha":417,"x_min":19,"x_max":992,"o":"m 392 47 l 375 47 q 326 53 347 47 q 289 70 304 60 q 269 86 274 81 q 250 126 258 100 l 246 319 l 244 375 l 246 471 q 244 496 246 482 q 243 522 243 510 l 249 581 l 246 681 l 246 746 q 258 788 246 763 q 271 808 263 796 l 297 826 l 390 847 l 388 869 l 281 871 l 174 872 l 83 868 l 22 869 l 19 847 q 59 839 31 843 q 101 825 88 835 q 124 786 115 815 q 132 750 128 768 l 133 632 q 134 592 133 613 q 135 551 135 572 l 132 490 l 135 349 l 132 203 l 132 185 q 133 150 132 165 q 133 119 133 135 q 113 63 133 76 q 78 56 108 60 l 21 46 l 21 22 l 111 21 l 140 22 l 257 21 l 325 25 q 364 24 343 25 q 390 22 385 22 l 392 47 m 19 300 l 992 300 l 992 1411 l 19 1411 l 19 300 m 922 369 l 89 369 l 89 1342 l 922 1342 l 922 369 "},"":{"ha":417,"x_min":19,"x_max":392,"o":"m 392 47 l 375 47 q 326 53 347 47 q 289 70 304 60 q 269 86 274 81 q 250 126 258 100 l 246 319 l 244 375 l 246 471 q 244 496 246 482 q 243 522 243 510 l 249 581 l 246 681 l 246 746 q 258 788 246 763 q 271 808 263 796 l 297 826 l 390 847 l 388 869 l 281 871 l 174 872 l 83 868 l 22 869 l 19 847 q 59 839 31 843 q 101 825 88 835 q 124 786 115 815 q 132 750 128 768 l 133 632 q 134 592 133 613 q 135 551 135 572 l 132 490 l 135 349 l 132 203 l 132 185 q 133 150 132 165 q 133 119 133 135 q 113 63 133 76 q 78 56 108 60 l 21 46 l 21 22 l 111 21 l 140 22 l 257 21 l 325 25 q 364 24 343 25 q 390 22 385 22 l 392 47 m 356 1144 l 211 1144 l 144 933 l 194 928 l 356 1144 "},"":{"ha":417,"x_min":11,"x_max":422,"o":"m 392 47 l 375 47 q 326 53 347 47 q 289 70 304 60 q 269 86 274 81 q 250 126 258 100 l 246 319 l 244 375 l 246 471 q 244 496 246 482 q 243 522 243 510 l 249 581 l 246 681 l 246 746 q 258 788 246 763 q 271 808 263 796 l 297 826 l 390 847 l 388 869 l 281 871 l 174 872 l 83 868 l 22 869 l 19 847 q 59 839 31 843 q 101 825 88 835 q 124 786 115 815 q 132 750 128 768 l 133 632 q 134 592 133 613 q 135 551 135 572 l 132 490 l 135 349 l 132 203 l 132 185 q 133 150 132 165 q 133 119 133 135 q 113 63 133 76 q 78 56 108 60 l 21 46 l 21 22 l 111 21 l 140 22 l 257 21 l 325 25 q 364 24 343 25 q 390 22 385 22 l 392 47 m 422 917 l 250 1117 l 142 1119 l 11 922 l 44 917 l 189 1033 l 389 906 l 422 917 "},"":{"ha":417,"x_min":19,"x_max":392,"o":"m 392 47 l 375 47 q 326 53 347 47 q 289 70 304 60 q 269 86 274 81 q 250 126 258 100 l 246 319 l 244 375 l 246 471 q 244 496 246 482 q 243 522 243 510 l 249 581 l 246 681 l 246 746 q 258 788 246 763 q 271 808 263 796 l 297 826 l 390 847 l 388 869 l 281 871 l 174 872 l 83 868 l 22 869 l 19 847 q 59 839 31 843 q 101 825 88 835 q 124 786 115 815 q 132 750 128 768 l 133 632 q 134 592 133 613 q 135 551 135 572 l 132 490 l 135 349 l 132 203 l 132 185 q 133 150 132 165 q 133 119 133 135 q 113 63 133 76 q 78 56 108 60 l 21 46 l 21 22 l 111 21 l 140 22 l 257 21 l 325 25 q 364 24 343 25 q 390 22 385 22 l 392 47 m 369 1025 q 314 1053 349 1053 q 272 1039 290 1053 q 244 983 244 1018 q 258 942 244 960 q 314 914 279 914 q 356 928 338 914 q 383 983 383 949 q 369 1025 383 1007 m 156 939 q 168 976 168 956 q 139 1033 168 1014 q 101 1046 122 1046 q 44 1017 64 1046 q 32 979 32 1000 q 61 922 32 942 q 99 910 78 910 q 156 939 136 910 "},"":{"ha":900,"x_min":6,"x_max":863,"o":"m 863 415 q 826 597 863 510 q 767 703 803 654 q 688 785 732 751 q 565 852 625 831 q 426 874 504 874 q 357 869 394 871 q 285 868 319 868 q 221 869 254 868 q 160 874 188 871 l 6 874 l 6 850 q 25 847 18 847 q 82 836 68 840 q 160 793 121 822 l 153 625 l 153 603 q 156 517 153 550 l 39 517 l 39 467 l 161 467 q 165 400 165 433 q 164 367 164 383 q 164 333 164 350 q 163 214 164 283 q 160 113 161 144 q 138 79 149 89 q 105 58 122 69 q 60 46 88 47 q 8 44 32 44 l 6 19 l 160 19 l 426 19 q 511 35 467 19 q 632 90 518 38 q 746 169 699 122 q 819 271 785 208 q 853 344 843 314 q 863 415 863 375 m 742 415 q 717 321 742 369 q 660 238 699 286 q 564 157 622 189 q 438 104 517 131 q 358 84 392 89 q 286 79 324 79 q 278 117 279 101 q 271 215 271 161 q 269 351 269 289 q 268 467 268 414 l 494 467 l 494 517 l 269 517 q 275 631 272 583 q 278 722 278 679 l 286 819 q 342 824 301 819 q 403 829 383 829 q 469 819 436 829 q 528 794 501 808 q 583 757 554 779 q 650 678 622 728 q 694 585 672 631 q 728 496 715 539 q 742 415 742 453 "},"":{"ha":833,"x_min":18,"x_max":806,"o":"m 806 933 l 806 957 l 507 950 l 507 921 q 532 922 511 922 q 579 918 556 922 q 614 902 603 914 q 625 864 625 890 q 623 827 624 844 q 622 794 622 810 l 622 771 q 623 723 622 743 q 624 692 624 703 q 622 654 622 674 q 622 614 622 635 l 622 522 l 622 456 q 622 400 622 438 q 621 357 622 363 l 606 358 l 571 418 q 556 444 561 435 q 526 503 539 475 l 474 611 q 401 747 438 679 q 374 797 388 772 q 347 853 354 833 q 330 892 340 872 q 310 932 319 911 l 244 938 q 194 939 229 938 q 138 940 160 940 l 32 942 l 33 924 q 83 907 65 918 q 111 869 100 896 q 116 841 115 864 q 117 793 117 818 l 117 775 l 117 754 l 117 729 l 114 497 l 111 336 l 111 231 q 108 156 111 208 q 100 88 106 103 q 85 63 94 74 q 67 46 76 53 q 42 39 57 39 l 21 39 l 18 13 l 272 11 l 272 36 l 257 36 q 235 39 246 36 q 215 47 224 42 q 193 72 199 60 q 188 104 188 85 l 183 240 l 182 338 l 185 481 l 188 671 l 189 814 q 222 761 211 781 q 272 669 260 700 q 313 575 292 621 q 355 493 335 529 q 386 435 375 457 q 411 386 397 413 q 431 354 419 369 q 444 331 442 339 q 489 250 467 290 q 507 219 490 247 q 544 158 518 200 l 626 36 l 681 36 l 718 36 l 718 119 l 719 193 q 722 211 721 201 q 722 238 722 221 l 722 324 l 721 413 l 719 500 l 717 590 l 719 719 l 719 771 q 723 855 719 824 q 736 900 726 886 q 763 924 751 919 q 806 933 775 929 m 663 1147 q 662 1188 663 1163 q 658 1232 661 1213 l 651 1236 q 617 1172 633 1193 q 488 1110 567 1110 q 331 1185 453 1110 q 226 1218 276 1218 q 118 1162 156 1218 q 81 1018 81 1106 q 138 1083 108 1050 q 175 1107 160 1107 q 356 1029 222 1107 q 472 994 415 994 q 608 1036 553 994 q 663 1147 663 1078 "},"":{"ha":965,"x_min":24,"x_max":1264,"o":"m 913 454 q 906 558 913 510 q 882 653 899 607 q 818 781 854 728 q 723 881 776 842 q 604 940 669 921 q 465 958 539 958 q 369 945 417 958 q 278 910 321 932 q 168 821 217 878 q 90 701 128 772 q 42 589 60 644 q 24 476 24 533 q 76 257 24 356 q 147 147 111 192 q 243 63 192 92 q 340 30 285 39 q 458 21 394 21 q 626 53 549 21 q 764 146 703 86 q 869 283 833 214 q 913 454 913 367 m 694 715 q 731 614 714 685 q 749 463 749 543 q 732 324 749 388 q 674 208 715 261 q 601 140 638 163 q 451 104 542 104 q 329 143 386 104 q 245 228 285 174 q 193 326 206 282 q 181 486 181 369 q 265 726 181 586 q 472 889 363 889 q 619 822 556 889 q 694 715 644 796 m 292 356 l 1264 356 l 1264 1467 l 292 1467 l 292 356 m 1194 425 l 361 425 l 361 1397 l 1194 1397 l 1194 425 "},"":{"ha":965,"x_min":24,"x_max":913,"o":"m 913 454 q 906 558 913 510 q 882 653 899 607 q 818 781 854 728 q 723 881 776 842 q 604 940 669 921 q 465 958 539 958 q 369 945 417 958 q 278 910 321 932 q 168 821 217 878 q 90 701 128 772 q 42 589 60 644 q 24 476 24 533 q 76 257 24 356 q 147 147 111 192 q 243 63 192 92 q 340 30 285 39 q 458 21 394 21 q 626 53 549 21 q 764 146 703 86 q 869 283 833 214 q 913 454 913 367 m 694 715 q 731 614 714 685 q 749 463 749 543 q 732 324 749 388 q 674 208 715 261 q 601 140 638 163 q 451 104 542 104 q 329 143 386 104 q 245 228 285 174 q 193 326 206 282 q 181 486 181 369 q 265 726 181 586 q 472 889 363 889 q 619 822 556 889 q 694 715 644 796 m 644 1217 l 500 1217 l 433 1006 l 483 1000 l 644 1217 "},"":{"ha":965,"x_min":24,"x_max":913,"o":"m 913 454 q 906 558 913 510 q 882 653 899 607 q 818 781 854 728 q 723 881 776 842 q 604 940 669 921 q 465 958 539 958 q 369 945 417 958 q 278 910 321 932 q 168 821 217 878 q 90 701 128 772 q 42 589 60 644 q 24 476 24 533 q 76 257 24 356 q 147 147 111 192 q 243 63 192 92 q 340 30 285 39 q 458 21 394 21 q 626 53 549 21 q 764 146 703 86 q 869 283 833 214 q 913 454 913 367 m 694 715 q 731 614 714 685 q 749 463 749 543 q 732 324 749 388 q 674 208 715 261 q 601 140 638 163 q 451 104 542 104 q 329 143 386 104 q 245 228 285 174 q 193 326 206 282 q 181 486 181 369 q 265 726 181 586 q 472 889 363 889 q 619 822 556 889 q 694 715 644 796 m 683 1000 l 511 1200 l 403 1203 l 272 1006 l 306 1000 l 450 1117 l 650 989 l 683 1000 "},"":{"ha":965,"x_min":24,"x_max":913,"o":"m 913 454 q 906 558 913 510 q 882 653 899 607 q 818 781 854 728 q 723 881 776 842 q 604 940 669 921 q 465 958 539 958 q 369 945 417 958 q 278 910 321 932 q 168 821 217 878 q 90 701 128 772 q 42 589 60 644 q 24 476 24 533 q 76 257 24 356 q 147 147 111 192 q 243 63 192 92 q 340 30 285 39 q 458 21 394 21 q 626 53 549 21 q 764 146 703 86 q 869 283 833 214 q 913 454 913 367 m 694 715 q 731 614 714 685 q 749 463 749 543 q 732 324 749 388 q 674 208 715 261 q 601 140 638 163 q 451 104 542 104 q 329 143 386 104 q 245 228 285 174 q 193 326 206 282 q 181 486 181 369 q 265 726 181 586 q 472 889 363 889 q 619 822 556 889 q 694 715 644 796 m 735 1158 q 734 1199 735 1174 q 731 1243 733 1224 l 724 1247 q 689 1183 706 1204 q 560 1121 639 1121 q 403 1196 525 1121 q 299 1229 349 1229 q 190 1173 228 1229 q 153 1029 153 1117 q 210 1094 181 1061 q 247 1118 232 1118 q 428 1040 294 1118 q 544 1006 488 1006 q 680 1047 625 1006 q 735 1158 735 1089 "},"":{"ha":965,"x_min":24,"x_max":913,"o":"m 913 454 q 906 558 913 510 q 882 653 899 607 q 818 781 854 728 q 723 881 776 842 q 604 940 669 921 q 465 958 539 958 q 369 945 417 958 q 278 910 321 932 q 168 821 217 878 q 90 701 128 772 q 42 589 60 644 q 24 476 24 533 q 76 257 24 356 q 147 147 111 192 q 243 63 192 92 q 340 30 285 39 q 458 21 394 21 q 626 53 549 21 q 764 146 703 86 q 869 283 833 214 q 913 454 913 367 m 694 715 q 731 614 714 685 q 749 463 749 543 q 732 324 749 388 q 674 208 715 261 q 601 140 638 163 q 451 104 542 104 q 329 143 386 104 q 245 228 285 174 q 193 326 206 282 q 181 486 181 369 q 265 726 181 586 q 472 889 363 889 q 619 822 556 889 q 694 715 644 796 m 636 1086 q 581 1114 615 1114 q 539 1100 557 1114 q 511 1044 511 1079 q 525 1003 511 1021 q 581 975 546 975 q 622 989 604 975 q 650 1044 650 1010 q 636 1086 650 1068 m 422 1000 q 435 1038 435 1017 q 406 1094 435 1075 q 368 1107 389 1107 q 311 1078 331 1107 q 299 1040 299 1061 q 328 983 299 1003 q 365 971 344 971 q 422 1000 403 971 "},"":{"ha":678,"x_min":68,"x_max":621,"o":"m 621 768 l 574 811 l 346 583 l 129 800 l 79 761 l 301 539 l 68 306 l 115 260 l 347 493 l 557 283 l 607 322 l 392 538 l 621 768 "},"":{"ha":965,"x_min":17,"x_max":933,"o":"m 933 867 l 906 894 l 799 806 q 722 882 763 853 q 604 940 669 921 q 465 958 539 958 q 369 945 417 958 q 278 910 321 932 q 168 821 217 878 q 90 701 128 772 q 42 589 60 644 q 24 476 24 533 q 76 257 24 356 l 96 221 l 17 156 l 39 122 l 118 188 q 174 117 147 144 q 245 61 206 83 q 340 30 285 39 q 458 21 394 21 q 626 53 549 21 q 764 146 703 86 q 869 283 833 214 q 913 454 913 367 q 906 558 913 510 q 884 645 899 607 q 853 716 869 683 q 822 774 838 749 l 933 867 m 692 717 l 199 307 q 181 486 181 361 q 265 726 181 586 q 472 889 363 889 q 617 825 554 889 q 689 722 642 800 l 692 717 m 708 679 q 738 576 728 629 q 747 456 747 522 q 729 323 747 388 q 674 210 711 258 q 601 140 638 163 q 451 104 542 104 q 329 143 386 104 q 243 229 285 174 l 215 269 l 708 679 "},"":{"ha":858,"x_min":7,"x_max":1175,"o":"m 833 900 l 753 903 l 663 900 l 593 899 l 593 878 q 614 869 594 876 q 644 839 633 863 q 657 789 654 815 q 660 726 660 763 q 658 657 660 706 q 657 585 657 608 q 658 535 657 574 q 660 472 660 497 q 656 405 660 443 q 642 324 651 367 q 617 218 624 238 q 558 132 597 163 q 489 96 528 108 q 393 83 450 83 q 275 133 318 83 q 222 258 240 175 q 209 360 213 308 q 206 475 206 411 q 206 533 206 504 q 207 588 207 561 q 204 696 207 594 q 201 831 201 797 q 264 878 201 868 q 292 879 274 879 l 293 903 q 247 901 272 901 q 189 900 221 900 q 138 904 171 900 q 90 908 104 908 l 7 906 l 8 888 q 39 883 29 888 q 69 822 69 869 l 67 693 l 69 522 l 76 304 q 89 188 76 235 q 142 96 101 140 q 219 25 190 39 q 351 4 261 4 q 441 10 381 4 q 517 21 501 15 q 603 65 571 39 q 657 135 635 92 q 704 284 692 197 q 717 522 717 371 l 717 622 q 719 691 717 650 q 728 763 722 732 q 732 798 729 776 q 744 842 735 819 q 793 875 753 864 q 832 882 806 878 l 833 900 m 203 322 l 1175 322 l 1175 1433 l 203 1433 l 203 322 m 1106 392 l 272 392 l 272 1364 l 1106 1364 l 1106 392 "},"":{"ha":858,"x_min":7,"x_max":833,"o":"m 833 900 l 753 903 l 663 900 l 593 899 l 593 878 q 614 869 594 876 q 644 839 633 863 q 657 789 654 815 q 660 726 660 763 q 658 657 660 706 q 657 585 657 608 q 658 535 657 574 q 660 472 660 497 q 656 405 660 443 q 642 324 651 367 q 617 218 624 238 q 558 132 597 163 q 489 96 528 108 q 393 83 450 83 q 275 133 318 83 q 222 258 240 175 q 209 360 213 308 q 206 475 206 411 q 206 533 206 504 q 207 588 207 561 q 204 696 207 594 q 201 831 201 797 q 264 878 201 868 q 292 879 274 879 l 293 903 q 247 901 272 901 q 189 900 221 900 q 138 904 171 900 q 90 908 104 908 l 7 906 l 8 888 q 39 883 29 888 q 69 822 69 869 l 67 693 l 69 522 l 76 304 q 89 188 76 235 q 142 96 101 140 q 219 25 190 39 q 351 4 261 4 q 441 10 381 4 q 517 21 501 15 q 603 65 571 39 q 657 135 635 92 q 704 284 692 197 q 717 522 717 371 l 717 622 q 719 691 717 650 q 728 763 722 732 q 732 798 729 776 q 744 842 735 819 q 793 875 753 864 q 832 882 806 878 l 833 900 m 583 1200 l 439 1200 l 372 989 l 422 983 l 583 1200 "},"":{"ha":858,"x_min":7,"x_max":833,"o":"m 833 900 l 753 903 l 663 900 l 593 899 l 593 878 q 614 869 594 876 q 644 839 633 863 q 657 789 654 815 q 660 726 660 763 q 658 657 660 706 q 657 585 657 608 q 658 535 657 574 q 660 472 660 497 q 656 405 660 443 q 642 324 651 367 q 617 218 624 238 q 558 132 597 163 q 489 96 528 108 q 393 83 450 83 q 275 133 318 83 q 222 258 240 175 q 209 360 213 308 q 206 475 206 411 q 206 533 206 504 q 207 588 207 561 q 204 696 207 594 q 201 831 201 797 q 264 878 201 868 q 292 879 274 879 l 293 903 q 247 901 272 901 q 189 900 221 900 q 138 904 171 900 q 90 908 104 908 l 7 906 l 8 888 q 39 883 29 888 q 69 822 69 869 l 67 693 l 69 522 l 76 304 q 89 188 76 235 q 142 96 101 140 q 219 25 190 39 q 351 4 261 4 q 441 10 381 4 q 517 21 501 15 q 603 65 571 39 q 657 135 635 92 q 704 284 692 197 q 717 522 717 371 l 717 622 q 719 691 717 650 q 728 763 722 732 q 732 798 729 776 q 744 842 735 819 q 793 875 753 864 q 832 882 806 878 l 833 900 m 633 967 l 461 1167 l 353 1169 l 222 972 l 256 967 l 400 1083 l 600 956 l 633 967 "},"":{"ha":858,"x_min":7,"x_max":833,"o":"m 833 900 l 753 903 l 663 900 l 593 899 l 593 878 q 614 869 594 876 q 644 839 633 863 q 657 789 654 815 q 660 726 660 763 q 658 657 660 706 q 657 585 657 608 q 658 535 657 574 q 660 472 660 497 q 656 405 660 443 q 642 324 651 367 q 617 218 624 238 q 558 132 597 163 q 489 96 528 108 q 393 83 450 83 q 275 133 318 83 q 222 258 240 175 q 209 360 213 308 q 206 475 206 411 q 206 533 206 504 q 207 588 207 561 q 204 696 207 594 q 201 831 201 797 q 264 878 201 868 q 292 879 274 879 l 293 903 q 247 901 272 901 q 189 900 221 900 q 138 904 171 900 q 90 908 104 908 l 7 906 l 8 888 q 39 883 29 888 q 69 822 69 869 l 67 693 l 69 522 l 76 304 q 89 188 76 235 q 142 96 101 140 q 219 25 190 39 q 351 4 261 4 q 441 10 381 4 q 517 21 501 15 q 603 65 571 39 q 657 135 635 92 q 704 284 692 197 q 717 522 717 371 l 717 622 q 719 691 717 650 q 728 763 722 732 q 732 798 729 776 q 744 842 735 819 q 793 875 753 864 q 832 882 806 878 l 833 900 m 603 1092 q 547 1119 582 1119 q 506 1106 524 1119 q 478 1050 478 1085 q 492 1008 478 1026 q 547 981 513 981 q 589 994 571 981 q 617 1050 617 1015 q 603 1092 617 1074 m 389 1006 q 401 1043 401 1022 q 372 1100 401 1081 q 335 1113 356 1113 q 278 1083 297 1113 q 265 1046 265 1067 q 294 989 265 1008 q 332 976 311 976 q 389 1006 369 976 "},"":{"ha":882,"x_min":22,"x_max":843,"o":"m 843 881 l 842 893 l 765 892 l 724 894 l 625 892 q 624 867 624 886 q 640 864 635 865 q 676 833 671 856 q 650 773 681 817 q 560 651 619 729 q 474 549 518 601 q 426 497 431 497 q 393 579 421 525 q 321 721 325 708 q 286 769 317 733 q 250 844 240 825 q 294 869 257 858 q 331 878 307 872 l 329 896 l 186 897 l 24 896 l 22 879 q 54 871 43 875 q 107 828 88 857 q 189 715 147 771 q 251 606 238 647 q 289 525 260 583 q 324 444 313 479 l 321 372 l 321 250 l 321 122 q 264 49 321 78 q 207 29 246 39 l 207 4 l 275 4 l 465 6 l 590 4 l 588 29 q 558 38 569 35 q 503 64 524 49 q 472 124 472 88 l 474 356 l 474 428 l 549 531 l 658 692 q 697 750 681 725 q 764 838 735 807 q 810 868 779 854 q 843 881 829 876 m 622 1144 l 478 1144 l 411 933 l 461 928 l 622 1144 "},"":{"ha":683,"x_min":25,"x_max":650,"o":"m 650 414 q 630 488 650 436 q 594 562 610 539 q 540 607 578 585 q 453 644 501 629 q 402 657 426 654 q 351 660 378 660 q 313 658 350 660 q 251 656 275 656 l 251 675 l 251 740 q 264 782 251 757 q 276 803 268 790 l 303 821 l 396 842 l 393 864 l 286 865 l 179 867 l 89 863 l 28 864 l 25 842 q 65 833 36 838 q 107 819 93 829 q 129 781 121 810 q 138 744 133 763 l 139 626 q 141 505 140 563 q 142 397 142 447 q 142 367 142 385 q 140 343 142 350 l 138 197 l 138 179 q 138 144 138 160 q 139 114 139 129 q 118 57 139 71 q 83 50 114 54 l 26 40 l 26 17 l 117 15 l 146 17 l 263 15 l 331 19 q 369 18 349 19 q 396 17 390 17 l 397 42 l 381 42 q 331 48 353 42 q 294 65 310 54 q 275 81 279 75 q 256 121 264 94 l 256 200 q 304 191 282 193 q 360 189 326 189 l 392 189 q 481 198 431 189 q 558 222 531 207 q 628 291 607 247 q 650 414 650 335 m 514 458 q 521 414 521 442 q 512 356 521 385 q 481 297 503 326 q 422 253 453 263 q 369 240 393 246 q 335 232 346 233 q 315 231 325 231 q 290 235 307 231 q 256 239 274 239 q 254 369 256 253 q 249 517 253 485 l 254 575 l 254 594 q 292 599 276 594 q 328 603 307 604 q 372 597 344 603 q 424 578 399 590 q 476 531 450 565 q 514 458 501 497 "},"":{"ha":754,"x_min":26,"x_max":685,"o":"m 683 400 q 607 490 683 442 q 531 531 582 506 q 613 581 590 546 q 650 744 650 636 q 599 874 650 824 q 453 938 542 929 q 395 942 422 940 q 322 944 368 944 q 237 918 285 942 q 178 872 189 894 q 122 698 140 793 q 103 500 103 603 l 103 72 q 26 25 103 25 l 26 8 l 111 11 l 203 11 l 203 172 l 206 628 q 232 840 206 797 q 378 883 258 883 q 501 832 453 883 q 550 706 550 781 q 474 568 550 611 q 308 535 414 535 l 310 504 q 331 499 317 501 q 350 494 344 497 q 447 465 356 492 q 500 444 481 456 q 563 358 543 421 q 578 244 578 311 q 522 131 578 189 q 425 61 476 83 q 406 56 415 56 q 392 65 389 56 q 394 78 394 71 q 370 146 394 108 q 321 183 346 183 q 276 129 276 183 q 287 72 276 93 q 328 22 297 51 q 381 8 342 8 q 521 43 456 8 q 608 122 549 58 q 674 211 667 185 q 683 257 681 238 q 685 311 685 276 q 683 354 683 332 q 683 400 683 376 "},"":{"ha":606,"x_min":-3,"x_max":969,"o":"m 565 90 q 565 106 567 93 q 565 125 563 119 q 526 107 561 124 q 490 94 500 94 q 458 115 474 94 q 440 150 443 135 l 440 269 l 440 390 l 440 432 q 435 498 440 465 q 417 556 431 531 q 371 622 393 600 q 303 663 343 650 q 236 676 263 676 q 189 668 217 676 q 92 625 114 640 q 35 518 35 586 q 44 457 35 471 q 64 441 53 443 q 85 439 75 439 q 132 499 132 439 l 132 525 q 154 597 132 569 q 246 633 183 633 q 319 589 293 633 q 342 503 342 551 q 340 486 342 501 q 335 458 338 471 q 315 453 322 454 q 256 431 275 440 q 106 342 168 396 q 19 181 19 267 q 52 71 19 117 q 144 25 85 25 q 278 68 193 25 q 350 110 304 82 q 382 36 364 57 q 440 15 400 15 q 515 40 478 15 q 565 90 553 64 m 350 158 q 328 147 336 151 q 260 119 279 124 q 224 113 242 115 q 192 110 206 110 q 135 128 156 110 q 114 192 114 146 q 197 342 114 276 q 318 408 242 376 l 344 417 q 347 347 346 383 q 347 293 347 310 l 350 158 m -3 94 l 969 94 l 969 1206 l -3 1206 l -3 94 m 900 164 l 67 164 l 67 1136 l 900 1136 l 900 164 "},"":{"ha":606,"x_min":19,"x_max":567,"o":"m 565 90 q 565 106 567 93 q 565 125 563 119 q 526 107 561 124 q 490 94 500 94 q 458 115 474 94 q 440 150 443 135 l 440 269 l 440 390 l 440 432 q 435 498 440 465 q 417 556 431 531 q 371 622 393 600 q 303 663 343 650 q 236 676 263 676 q 189 668 217 676 q 92 625 114 640 q 35 518 35 586 q 44 457 35 471 q 64 441 53 443 q 85 439 75 439 q 132 499 132 439 l 132 525 q 154 597 132 569 q 246 633 183 633 q 319 589 293 633 q 342 503 342 551 q 340 486 342 501 q 335 458 338 471 q 315 453 322 454 q 256 431 275 440 q 106 342 168 396 q 19 181 19 267 q 52 71 19 117 q 144 25 85 25 q 278 68 193 25 q 350 110 304 82 q 382 36 364 57 q 440 15 400 15 q 515 40 478 15 q 565 90 553 64 m 350 158 q 328 147 336 151 q 260 119 279 124 q 224 113 242 115 q 192 110 206 110 q 135 128 156 110 q 114 192 114 146 q 197 342 114 276 q 318 408 242 376 l 344 417 q 347 347 346 383 q 347 293 347 310 l 350 158 m 428 967 l 283 967 l 217 756 l 267 750 l 428 967 "},"":{"ha":606,"x_min":19,"x_max":567,"o":"m 565 90 q 565 106 567 93 q 565 125 563 119 q 526 107 561 124 q 490 94 500 94 q 458 115 474 94 q 440 150 443 135 l 440 269 l 440 390 l 440 432 q 435 498 440 465 q 417 556 431 531 q 371 622 393 600 q 303 663 343 650 q 236 676 263 676 q 189 668 217 676 q 92 625 114 640 q 35 518 35 586 q 44 457 35 471 q 64 441 53 443 q 85 439 75 439 q 132 499 132 439 l 132 525 q 154 597 132 569 q 246 633 183 633 q 319 589 293 633 q 342 503 342 551 q 340 486 342 501 q 335 458 338 471 q 315 453 322 454 q 256 431 275 440 q 106 342 168 396 q 19 181 19 267 q 52 71 19 117 q 144 25 85 25 q 278 68 193 25 q 350 110 304 82 q 382 36 364 57 q 440 15 400 15 q 515 40 478 15 q 565 90 553 64 m 350 158 q 328 147 336 151 q 260 119 279 124 q 224 113 242 115 q 192 110 206 110 q 135 128 156 110 q 114 192 114 146 q 197 342 114 276 q 318 408 242 376 l 344 417 q 347 347 346 383 q 347 293 347 310 l 350 158 m 456 744 l 283 944 l 175 947 l 44 750 l 78 744 l 222 861 l 422 733 l 456 744 "},"":{"ha":606,"x_min":8,"x_max":590,"o":"m 565 90 q 565 106 567 93 q 565 125 563 119 q 526 107 561 124 q 490 94 500 94 q 458 115 474 94 q 440 150 443 135 l 440 269 l 440 390 l 440 432 q 435 498 440 465 q 417 556 431 531 q 371 622 393 600 q 303 663 343 650 q 236 676 263 676 q 189 668 217 676 q 92 625 114 640 q 35 518 35 586 q 44 457 35 471 q 64 441 53 443 q 85 439 75 439 q 132 499 132 439 l 132 525 q 154 597 132 569 q 246 633 183 633 q 319 589 293 633 q 342 503 342 551 q 340 486 342 501 q 335 458 338 471 q 315 453 322 454 q 256 431 275 440 q 106 342 168 396 q 19 181 19 267 q 52 71 19 117 q 144 25 85 25 q 278 68 193 25 q 350 110 304 82 q 382 36 364 57 q 440 15 400 15 q 515 40 478 15 q 565 90 553 64 m 350 158 q 328 147 336 151 q 260 119 279 124 q 224 113 242 115 q 192 110 206 110 q 135 128 156 110 q 114 192 114 146 q 197 342 114 276 q 318 408 242 376 l 344 417 q 347 347 346 383 q 347 293 347 310 l 350 158 m 590 853 q 590 893 590 868 q 586 938 589 918 l 579 942 q 544 878 561 899 q 415 815 494 815 q 258 890 381 815 q 154 924 204 924 q 46 867 83 924 q 8 724 8 811 q 65 789 36 756 q 103 813 88 813 q 283 735 150 813 q 400 700 343 700 q 535 742 481 700 q 590 853 590 783 "},"":{"ha":606,"x_min":19,"x_max":567,"o":"m 565 90 q 565 106 567 93 q 565 125 563 119 q 526 107 561 124 q 490 94 500 94 q 458 115 474 94 q 440 150 443 135 l 440 269 l 440 390 l 440 432 q 435 498 440 465 q 417 556 431 531 q 371 622 393 600 q 303 663 343 650 q 236 676 263 676 q 189 668 217 676 q 92 625 114 640 q 35 518 35 586 q 44 457 35 471 q 64 441 53 443 q 85 439 75 439 q 132 499 132 439 l 132 525 q 154 597 132 569 q 246 633 183 633 q 319 589 293 633 q 342 503 342 551 q 340 486 342 501 q 335 458 338 471 q 315 453 322 454 q 256 431 275 440 q 106 342 168 396 q 19 181 19 267 q 52 71 19 117 q 144 25 85 25 q 278 68 193 25 q 350 110 304 82 q 382 36 364 57 q 440 15 400 15 q 515 40 478 15 q 565 90 553 64 m 350 158 q 328 147 336 151 q 260 119 279 124 q 224 113 242 115 q 192 110 206 110 q 135 128 156 110 q 114 192 114 146 q 197 342 114 276 q 318 408 242 376 l 344 417 q 347 347 346 383 q 347 293 347 310 l 350 158 m 408 847 q 353 875 388 875 q 311 861 329 875 q 283 806 283 840 q 297 764 283 782 q 353 736 318 736 q 394 750 376 736 q 422 806 422 771 q 408 847 422 829 m 194 761 q 207 799 207 778 q 178 856 207 836 q 140 868 161 868 q 83 839 103 868 q 71 801 71 822 q 100 744 71 764 q 138 732 117 732 q 194 761 175 732 "},"":{"ha":606,"x_min":19,"x_max":567,"o":"m 565 90 q 565 106 567 93 q 565 125 563 119 q 526 107 561 124 q 490 94 500 94 q 458 115 474 94 q 440 150 443 135 l 440 269 l 440 390 l 440 432 q 435 498 440 465 q 417 556 431 531 q 371 622 393 600 q 303 663 343 650 q 236 676 263 676 q 189 668 217 676 q 92 625 114 640 q 35 518 35 586 q 44 457 35 471 q 64 441 53 443 q 85 439 75 439 q 132 499 132 439 l 132 525 q 154 597 132 569 q 246 633 183 633 q 319 589 293 633 q 342 503 342 551 q 340 486 342 501 q 335 458 338 471 q 315 453 322 454 q 256 431 275 440 q 106 342 168 396 q 19 181 19 267 q 52 71 19 117 q 144 25 85 25 q 278 68 193 25 q 350 110 304 82 q 382 36 364 57 q 440 15 400 15 q 515 40 478 15 q 565 90 553 64 m 350 158 q 328 147 336 151 q 260 119 279 124 q 224 113 242 115 q 192 110 206 110 q 135 128 156 110 q 114 192 114 146 q 197 342 114 276 q 318 408 242 376 l 344 417 q 347 347 346 383 q 347 293 347 310 l 350 158 m 424 886 q 376 1007 424 956 q 261 1058 329 1058 q 140 1011 190 1058 q 90 896 90 964 q 137 774 90 824 q 253 725 183 725 q 374 771 324 725 q 424 886 424 817 m 369 896 q 333 806 369 842 q 243 769 297 769 q 153 806 189 769 q 117 896 117 842 q 153 985 117 949 q 243 1022 190 1022 q 333 985 296 1022 q 369 896 369 949 "},"":{"ha":833,"x_min":19,"x_max":790,"o":"m 790 438 l 789 469 q 713 611 789 540 q 607 672 646 672 q 548 666 579 672 q 504 653 517 660 q 453 625 468 635 q 394 572 415 601 q 367 607 381 589 q 304 663 336 653 q 236 676 263 676 q 189 668 217 676 q 92 625 114 640 q 35 518 35 586 q 44 457 35 471 q 64 441 53 443 q 85 439 75 439 q 132 499 132 439 l 132 525 q 154 597 132 569 q 246 633 183 633 q 319 589 293 633 q 342 503 342 551 q 340 486 342 501 q 335 458 338 471 q 315 453 322 454 q 256 431 275 440 q 106 342 168 396 q 19 181 19 267 q 52 71 19 117 q 144 25 85 25 q 274 65 194 25 q 353 111 313 88 q 367 114 361 114 q 410 95 396 114 q 479 48 424 76 q 576 19 535 19 q 640 29 607 19 q 718 78 693 44 q 781 189 757 131 q 789 213 785 199 l 771 232 q 746 178 757 196 q 651 106 710 121 q 592 97 618 97 q 473 164 513 97 q 433 371 433 231 l 433 411 q 435 436 433 426 l 790 438 m 679 475 l 435 472 q 478 560 443 513 q 504 596 501 592 q 551 618 524 618 q 618 597 586 618 q 667 544 650 576 q 678 508 676 525 q 679 475 679 492 m 350 158 q 328 147 336 151 q 260 119 279 124 q 224 113 242 115 q 192 110 206 110 q 135 128 156 110 q 114 192 114 146 q 197 342 114 276 q 318 408 242 376 l 344 417 q 347 347 346 383 q 347 293 347 310 l 350 158 "},"":{"ha":529,"x_min":33,"x_max":490,"o":"m 490 189 l 490 228 q 461 168 474 189 q 363 89 421 106 q 319 82 338 82 q 193 179 238 82 q 160 331 160 251 l 160 372 q 165 440 160 419 q 194 493 171 460 q 236 542 218 526 q 277 565 260 561 q 308 568 294 568 q 371 529 349 568 q 399 464 385 496 q 429 447 407 447 q 468 462 451 447 q 485 492 485 476 q 457 542 485 514 q 404 583 442 557 q 359 606 381 600 q 307 611 338 611 q 248 605 279 611 q 204 592 217 599 q 133 552 156 567 q 93 517 111 538 q 45 431 57 475 q 33 325 33 386 q 34 289 33 307 q 35 253 35 271 q 67 165 35 231 q 118 78 100 99 q 194 26 143 49 q 288 3 244 3 q 351 13 318 3 q 429 61 404 28 q 479 151 461 104 q 490 189 485 167 m 389 -117 q 360 -53 389 -85 q 281 -17 326 -17 q 299 10 289 -3 q 319 36 308 24 q 281 47 299 38 q 243 -18 274 35 q 206 -81 219 -60 q 222 -78 213 -79 q 243 -78 231 -78 q 280 -83 264 -78 q 303 -101 296 -87 q 311 -132 311 -115 q 272 -189 311 -172 q 244 -199 253 -197 q 200 -200 235 -200 q 181 -200 192 -200 l 181 -222 l 225 -222 l 250 -222 q 286 -220 272 -222 q 320 -210 300 -218 q 365 -174 340 -201 q 389 -117 389 -147 "},"":{"ha":529,"x_min":33,"x_max":1042,"o":"m 500 196 l 482 215 q 457 161 468 179 q 363 89 421 106 q 315 82 335 82 q 176 168 231 82 q 133 310 133 236 l 133 350 q 135 375 133 365 l 490 376 l 489 408 q 413 550 489 479 q 307 611 346 611 q 248 605 279 611 q 204 592 217 599 q 133 552 156 567 q 93 517 111 538 q 45 431 57 475 q 33 325 33 386 q 34 289 33 307 q 35 253 35 271 q 67 165 35 231 q 118 78 100 99 q 194 26 143 49 q 288 3 244 3 q 351 13 318 3 q 429 61 404 28 q 492 172 468 114 q 500 196 496 182 m 379 414 l 135 411 q 178 499 143 451 q 204 535 201 531 q 251 557 224 557 q 318 536 286 557 q 367 483 350 515 q 378 447 376 464 q 379 414 379 431 m 69 17 l 1042 17 l 1042 1128 l 69 1128 l 69 17 m 972 86 l 139 86 l 139 1058 l 972 1058 l 972 86 "},"":{"ha":529,"x_min":33,"x_max":500,"o":"m 500 196 l 482 215 q 457 161 468 179 q 363 89 421 106 q 315 82 335 82 q 176 168 231 82 q 133 310 133 236 l 133 350 q 135 375 133 365 l 490 376 l 489 408 q 413 550 489 479 q 307 611 346 611 q 248 605 279 611 q 204 592 217 599 q 133 552 156 567 q 93 517 111 538 q 45 431 57 475 q 33 325 33 386 q 34 289 33 307 q 35 253 35 271 q 67 165 35 231 q 118 78 100 99 q 194 26 143 49 q 288 3 244 3 q 351 13 318 3 q 429 61 404 28 q 492 172 468 114 q 500 196 496 182 m 379 414 l 135 411 q 178 499 143 451 q 204 535 201 531 q 251 557 224 557 q 318 536 286 557 q 367 483 350 515 q 378 447 376 464 q 379 414 379 431 m 394 900 l 250 900 l 183 689 l 233 683 l 394 900 "},"":{"ha":529,"x_min":33,"x_max":500,"o":"m 500 196 l 482 215 q 457 161 468 179 q 363 89 421 106 q 315 82 335 82 q 176 168 231 82 q 133 310 133 236 l 133 350 q 135 375 133 365 l 490 376 l 489 408 q 413 550 489 479 q 307 611 346 611 q 248 605 279 611 q 204 592 217 599 q 133 552 156 567 q 93 517 111 538 q 45 431 57 475 q 33 325 33 386 q 34 289 33 307 q 35 253 35 271 q 67 165 35 231 q 118 78 100 99 q 194 26 143 49 q 288 3 244 3 q 351 13 318 3 q 429 61 404 28 q 492 172 468 114 q 500 196 496 182 m 379 414 l 135 411 q 178 499 143 451 q 204 535 201 531 q 251 557 224 557 q 318 536 286 557 q 367 483 350 515 q 378 447 376 464 q 379 414 379 431 m 494 717 l 322 917 l 214 919 l 83 722 l 117 717 l 261 833 l 461 706 l 494 717 "},"":{"ha":529,"x_min":33,"x_max":500,"o":"m 500 196 l 482 215 q 457 161 468 179 q 363 89 421 106 q 315 82 335 82 q 176 168 231 82 q 133 310 133 236 l 133 350 q 135 375 133 365 l 490 376 l 489 408 q 413 550 489 479 q 307 611 346 611 q 248 605 279 611 q 204 592 217 599 q 133 552 156 567 q 93 517 111 538 q 45 431 57 475 q 33 325 33 386 q 34 289 33 307 q 35 253 35 271 q 67 165 35 231 q 118 78 100 99 q 194 26 143 49 q 288 3 244 3 q 351 13 318 3 q 429 61 404 28 q 492 172 468 114 q 500 196 496 182 m 379 414 l 135 411 q 178 499 143 451 q 204 535 201 531 q 251 557 224 557 q 318 536 286 557 q 367 483 350 515 q 378 447 376 464 q 379 414 379 431 m 431 792 q 375 819 410 819 q 333 806 351 819 q 306 750 306 785 q 319 708 306 726 q 375 681 340 681 q 417 694 399 681 q 444 750 444 715 q 431 792 444 774 m 217 706 q 229 743 229 722 q 200 800 229 781 q 163 813 183 813 q 106 783 125 813 q 93 746 93 767 q 122 689 93 708 q 160 676 139 676 q 217 706 197 676 "},"":{"ha":340,"x_min":-53,"x_max":919,"o":"m 318 21 q 319 33 315 25 q 318 44 324 42 q 274 58 294 51 q 245 79 254 65 q 234 116 236 93 q 232 181 232 139 q 231 263 231 225 q 231 333 231 301 l 231 496 q 231 533 231 514 q 232 572 232 551 q 231 603 232 588 q 229 631 231 618 l 150 593 l 56 551 l 64 525 q 75 531 69 529 q 90 532 81 532 q 110 517 103 532 q 117 477 117 503 q 118 425 118 451 q 118 399 118 415 q 121 364 118 382 q 124 326 124 346 q 121 288 122 307 q 119 246 119 268 q 121 194 119 228 q 122 147 122 160 q 121 122 122 143 q 117 93 119 100 q 76 57 108 74 q 46 44 67 53 l 46 25 l 318 21 m -53 78 l 919 78 l 919 1189 l -53 1189 l -53 78 m 850 147 l 17 147 l 17 1119 l 850 1119 l 850 147 "},"":{"ha":340,"x_min":35,"x_max":313,"o":"m 307 21 q 308 33 304 25 q 307 44 313 42 q 263 58 283 51 q 234 79 243 65 q 223 116 225 93 q 221 181 221 139 q 219 263 219 225 q 219 333 219 301 l 219 496 q 220 533 219 514 q 221 572 221 551 q 220 603 221 588 q 218 631 219 618 l 139 593 l 44 551 l 53 525 q 64 531 58 529 q 79 532 69 532 q 99 517 92 532 q 106 477 106 503 q 107 425 107 451 q 107 399 107 415 q 110 364 107 382 q 113 326 113 346 q 110 288 111 307 q 108 246 108 268 q 110 194 108 228 q 111 147 111 160 q 110 122 111 143 q 106 93 108 100 q 65 57 97 74 q 35 44 56 53 l 35 25 l 307 21 m 283 956 l 139 956 l 72 744 l 122 739 l 283 956 "},"":{"ha":367,"x_min":0,"x_max":411,"o":"m 307 21 q 308 33 304 25 q 307 44 313 42 q 263 58 283 51 q 234 79 243 65 q 223 116 225 93 q 221 181 221 139 q 219 263 219 225 q 219 333 219 301 l 219 496 q 220 533 219 514 q 221 572 221 551 q 220 603 221 588 q 218 631 219 618 l 139 593 l 44 551 l 53 525 q 64 531 58 529 q 79 532 69 532 q 99 517 92 532 q 106 477 106 503 q 107 425 107 451 q 107 399 107 415 q 110 364 107 382 q 113 326 113 346 q 110 288 111 307 q 108 246 108 268 q 110 194 108 228 q 111 147 111 160 q 110 122 111 143 q 106 93 108 100 q 65 57 97 74 q 35 44 56 53 l 35 25 l 307 21 m 411 733 l 239 933 l 131 936 l 0 739 l 33 733 l 178 850 l 378 722 l 411 733 "},"":{"ha":383,"x_min":15,"x_max":367,"o":"m 335 21 q 336 33 332 25 q 335 44 340 42 q 291 58 311 51 q 262 79 271 65 q 251 116 253 93 q 249 181 249 139 q 247 263 247 225 q 247 333 247 301 l 247 496 q 248 533 247 514 q 249 572 249 551 q 248 603 249 588 q 246 631 247 618 l 167 593 l 72 551 l 81 525 q 92 531 86 529 q 107 532 97 532 q 126 517 119 532 q 134 477 133 503 q 135 425 135 451 q 135 399 135 415 q 138 364 135 382 q 140 326 140 346 q 138 288 139 307 q 136 246 136 268 q 138 194 136 228 q 139 147 139 160 q 138 122 139 143 q 133 93 136 100 q 93 57 125 74 q 63 44 83 53 l 63 25 l 335 21 m 353 864 q 297 892 332 892 q 256 878 274 892 q 228 822 228 857 q 242 781 228 799 q 297 753 263 753 q 339 767 321 753 q 367 822 367 788 q 353 864 367 846 m 139 778 q 151 815 151 794 q 122 872 151 853 q 85 885 106 885 q 28 856 47 885 q 15 818 15 839 q 44 761 15 781 q 82 749 61 749 q 139 778 119 749 "},"":{"ha":563,"x_min":36,"x_max":514,"o":"m 514 306 q 496 486 514 393 q 447 661 478 579 q 392 736 436 690 q 301 818 349 782 l 411 911 l 383 939 l 264 843 l 253 850 q 124 888 201 875 q 53 894 97 892 l 53 864 q 99 847 81 854 q 200 790 151 825 l 94 706 l 133 678 l 236 764 q 263 742 260 744 q 286 717 274 732 q 382 542 343 653 q 408 440 413 453 q 353 481 375 468 q 224 521 285 521 q 144 502 181 521 q 75 438 107 483 q 48 367 60 417 q 36 261 36 317 q 52 154 36 204 q 103 72 68 104 q 281 0 183 0 q 423 49 358 0 q 501 139 488 97 q 514 306 514 181 m 414 282 q 417 264 414 276 q 417 246 417 254 q 388 131 417 182 q 303 69 358 81 q 274 67 283 67 q 180 94 222 67 q 131 156 138 122 q 122 207 124 189 q 119 244 119 225 q 151 394 119 335 q 257 458 189 464 q 367 400 325 450 q 414 282 404 356 "},"":{"ha":651,"x_min":29,"x_max":624,"o":"m 601 17 q 601 28 597 21 q 601 39 604 36 q 570 53 594 42 q 533 83 546 65 q 526 174 528 90 q 524 331 524 257 l 524 442 q 490 524 524 492 q 451 549 471 544 q 396 554 432 554 q 283 514 344 554 q 196 442 253 494 l 193 531 l 193 568 q 192 588 193 571 q 189 607 190 604 q 124 583 185 615 q 29 522 63 550 l 29 511 q 51 515 36 511 q 72 519 67 519 q 96 475 96 519 q 97 443 96 461 q 97 403 97 425 l 97 386 l 97 367 l 97 343 l 97 317 l 97 286 l 97 254 l 97 221 q 99 175 97 206 q 100 132 100 144 q 94 81 100 96 q 58 51 88 65 q 31 40 49 47 l 31 22 l 276 18 q 276 31 272 22 q 276 40 281 39 q 237 53 256 46 q 208 74 218 60 q 201 106 203 85 q 199 163 199 128 q 197 254 197 175 q 197 417 197 333 q 265 456 231 436 q 358 482 315 482 q 410 456 397 482 q 425 394 417 425 q 429 363 429 379 q 428 335 429 350 l 426 221 q 427 180 426 200 q 428 140 428 160 q 422 81 428 99 q 386 49 415 64 q 360 39 378 44 l 360 21 l 601 17 m 624 808 q 623 849 624 824 q 619 893 622 874 l 613 897 q 578 833 594 854 q 449 771 528 771 q 292 846 414 771 q 188 879 238 879 q 79 823 117 879 q 42 679 42 767 q 99 744 69 711 q 136 768 121 768 q 317 690 183 768 q 433 656 376 656 q 569 697 514 656 q 624 808 624 739 "},"":{"ha":506,"x_min":6,"x_max":1003,"o":"m 486 299 q 413 486 486 404 q 236 568 339 568 q 208 567 218 568 q 59 478 113 554 q 6 303 6 401 q 6 288 6 297 q 7 271 6 279 q 76 90 7 168 q 250 13 146 13 q 426 103 360 13 q 486 299 486 183 m 376 299 q 347 113 376 161 q 261 64 318 64 q 172 106 204 64 q 124 279 136 153 q 119 331 119 318 q 118 365 118 344 q 140 480 118 435 q 215 532 161 525 q 232 533 221 532 q 343 456 303 533 q 376 299 376 390 m 31 -17 l 1003 -17 l 1003 1094 l 31 1094 l 31 -17 m 933 53 l 100 53 l 100 1025 l 933 1025 l 933 53 "},"":{"ha":506,"x_min":6,"x_max":486,"o":"m 486 299 q 413 486 486 404 q 236 568 339 568 q 208 567 218 568 q 59 478 113 554 q 6 303 6 401 q 6 288 6 297 q 7 271 6 279 q 76 90 7 168 q 250 13 146 13 q 426 103 360 13 q 486 299 486 183 m 376 299 q 347 113 376 161 q 261 64 318 64 q 172 106 204 64 q 124 279 136 153 q 119 331 119 318 q 118 365 118 344 q 140 480 118 435 q 215 532 161 525 q 232 533 221 532 q 343 456 303 533 q 376 299 376 390 m 389 867 l 244 867 l 178 656 l 228 650 l 389 867 "},"":{"ha":506,"x_min":6,"x_max":486,"o":"m 486 299 q 413 486 486 404 q 236 568 339 568 q 208 567 218 568 q 59 478 113 554 q 6 303 6 401 q 6 288 6 297 q 7 271 6 279 q 76 90 7 168 q 250 13 146 13 q 426 103 360 13 q 486 299 486 183 m 376 299 q 347 113 376 161 q 261 64 318 64 q 172 106 204 64 q 124 279 136 153 q 119 331 119 318 q 118 365 118 344 q 140 480 118 435 q 215 532 161 525 q 232 533 221 532 q 343 456 303 533 q 376 299 376 390 m 444 656 l 272 856 l 164 858 l 33 661 l 67 656 l 211 772 l 411 644 l 444 656 "},"":{"ha":506,"x_min":-31,"x_max":551,"o":"m 486 299 q 413 486 486 404 q 236 568 339 568 q 208 567 218 568 q 59 478 113 554 q 6 303 6 401 q 6 288 6 297 q 7 271 6 279 q 76 90 7 168 q 250 13 146 13 q 426 103 360 13 q 486 299 486 183 m 376 299 q 347 113 376 161 q 261 64 318 64 q 172 106 204 64 q 124 279 136 153 q 119 331 119 318 q 118 365 118 344 q 140 480 118 435 q 215 532 161 525 q 232 533 221 532 q 343 456 303 533 q 376 299 376 390 m 551 758 q 551 799 551 774 q 547 843 550 824 l 540 847 q 506 783 522 804 q 376 721 456 721 q 219 796 342 721 q 115 829 165 829 q 7 773 44 829 q -31 629 -31 717 q 26 694 -3 661 q 64 718 49 718 q 244 640 111 718 q 361 606 304 606 q 497 647 442 606 q 551 758 551 689 "},"":{"ha":506,"x_min":6,"x_max":486,"o":"m 486 299 q 413 486 486 404 q 236 568 339 568 q 208 567 218 568 q 59 478 113 554 q 6 303 6 401 q 6 288 6 297 q 7 271 6 279 q 76 90 7 168 q 250 13 146 13 q 426 103 360 13 q 486 299 486 183 m 376 299 q 347 113 376 161 q 261 64 318 64 q 172 106 204 64 q 124 279 136 153 q 119 331 119 318 q 118 365 118 344 q 140 480 118 435 q 215 532 161 525 q 232 533 221 532 q 343 456 303 533 q 376 299 376 390 m 381 758 q 325 786 360 786 q 283 772 301 786 q 256 717 256 751 q 269 675 256 693 q 325 647 290 647 q 367 661 349 647 q 394 717 394 682 q 381 758 394 740 m 167 672 q 179 710 179 689 q 150 767 179 747 q 113 779 133 779 q 56 750 75 779 q 43 713 43 733 q 72 656 43 675 q 110 643 89 643 q 167 672 147 643 "},"":{"ha":1050,"x_min":11,"x_max":922,"o":"m 542 814 q 481 842 517 842 q 428 822 451 842 q 400 761 400 797 q 422 706 400 732 q 481 681 444 681 q 535 703 510 681 q 561 761 561 725 q 542 814 561 790 m 922 500 l 922 561 l 11 567 l 17 500 l 922 500 m 561 328 q 500 357 538 357 q 450 339 469 357 q 421 278 421 315 q 439 228 421 247 q 500 199 463 199 q 550 217 531 199 q 579 278 579 240 q 561 328 579 308 "},"":{"ha":506,"x_min":-22,"x_max":492,"o":"m 492 551 l 469 568 l 399 497 q 323 549 365 531 q 235 568 281 568 q 208 567 217 568 q 59 478 113 554 q 6 303 6 401 q 6 288 6 297 q 7 271 6 279 q 17 206 7 238 q 46 140 28 174 l -22 72 l 8 57 l 64 113 q 145 40 97 67 q 250 13 193 13 q 426 103 360 13 q 486 299 486 183 q 467 392 486 344 q 418 476 449 439 l 492 551 m 346 442 l 131 225 l 124 279 q 119 331 119 318 q 118 365 118 344 q 140 480 118 435 q 215 532 161 525 q 231 533 221 533 q 299 508 271 533 q 346 442 328 483 m 376 299 q 347 113 376 161 q 261 64 318 64 q 176 100 208 64 q 138 188 150 131 l 356 413 q 368 369 365 379 q 376 299 376 333 "},"":{"ha":618,"x_min":14,"x_max":1036,"o":"m 599 67 q 600 72 599 68 q 597 83 601 76 q 585 85 596 86 q 551 81 574 85 q 536 88 540 81 q 526 138 526 103 q 528 170 526 139 q 531 217 531 201 l 531 458 l 528 600 l 460 600 l 368 600 l 368 582 q 392 578 383 579 q 427 560 417 571 q 440 532 438 550 q 442 478 442 514 l 442 453 l 442 254 q 442 223 442 238 q 443 194 443 208 q 436 144 443 167 q 385 79 421 100 q 299 58 350 58 q 205 87 236 58 q 165 165 174 115 q 163 185 165 172 q 163 203 163 193 q 164 239 163 214 q 165 278 165 264 l 164 461 l 165 599 l 93 599 l 15 599 l 14 582 q 26 581 22 581 q 64 553 53 575 q 74 510 71 536 q 78 457 78 485 q 76 421 76 438 q 76 390 76 404 l 74 203 q 139 40 74 94 q 196 15 156 25 q 265 4 236 4 q 313 13 272 4 q 364 25 354 21 q 406 58 385 33 q 440 100 417 71 l 440 49 l 440 33 q 446 4 440 7 q 474 6 451 0 q 513 19 496 11 q 568 49 529 26 q 599 67 579 54 m 64 78 l 1036 78 l 1036 1189 l 64 1189 l 64 78 m 967 147 l 133 147 l 133 1119 l 967 1119 l 967 147 "},"":{"ha":618,"x_min":14,"x_max":601,"o":"m 599 67 q 600 72 599 68 q 597 83 601 76 q 585 85 596 86 q 551 81 574 85 q 536 88 540 81 q 526 138 526 103 q 528 170 526 139 q 531 217 531 201 l 531 458 l 528 600 l 460 600 l 368 600 l 368 582 q 392 578 383 579 q 427 560 417 571 q 440 532 438 550 q 442 478 442 514 l 442 453 l 442 254 q 442 223 442 238 q 443 194 443 208 q 436 144 443 167 q 385 79 421 100 q 299 58 350 58 q 205 87 236 58 q 165 165 174 115 q 163 185 165 172 q 163 203 163 193 q 164 239 163 214 q 165 278 165 264 l 164 461 l 165 599 l 93 599 l 15 599 l 14 582 q 26 581 22 581 q 64 553 53 575 q 74 510 71 536 q 78 457 78 485 q 76 421 76 438 q 76 390 76 404 l 74 203 q 139 40 74 94 q 196 15 156 25 q 265 4 236 4 q 313 13 272 4 q 364 25 354 21 q 406 58 385 33 q 440 100 417 71 l 440 49 l 440 33 q 446 4 440 7 q 474 6 451 0 q 513 19 496 11 q 568 49 529 26 q 599 67 579 54 m 417 978 l 272 978 l 206 767 l 256 761 l 417 978 "},"":{"ha":618,"x_min":14,"x_max":601,"o":"m 599 67 q 600 72 599 68 q 597 83 601 76 q 585 85 596 86 q 551 81 574 85 q 536 88 540 81 q 526 138 526 103 q 528 170 526 139 q 531 217 531 201 l 531 458 l 528 600 l 460 600 l 368 600 l 368 582 q 392 578 383 579 q 427 560 417 571 q 440 532 438 550 q 442 478 442 514 l 442 453 l 442 254 q 442 223 442 238 q 443 194 443 208 q 436 144 443 167 q 385 79 421 100 q 299 58 350 58 q 205 87 236 58 q 165 165 174 115 q 163 185 165 172 q 163 203 163 193 q 164 239 163 214 q 165 278 165 264 l 164 461 l 165 599 l 93 599 l 15 599 l 14 582 q 26 581 22 581 q 64 553 53 575 q 74 510 71 536 q 78 457 78 485 q 76 421 76 438 q 76 390 76 404 l 74 203 q 139 40 74 94 q 196 15 156 25 q 265 4 236 4 q 313 13 272 4 q 364 25 354 21 q 406 58 385 33 q 440 100 417 71 l 440 49 l 440 33 q 446 4 440 7 q 474 6 451 0 q 513 19 496 11 q 568 49 529 26 q 599 67 579 54 m 494 717 l 322 917 l 214 919 l 83 722 l 117 717 l 261 833 l 461 706 l 494 717 "},"":{"ha":618,"x_min":14,"x_max":601,"o":"m 599 67 q 600 72 599 68 q 597 83 601 76 q 585 85 596 86 q 551 81 574 85 q 536 88 540 81 q 526 138 526 103 q 528 170 526 139 q 531 217 531 201 l 531 458 l 528 600 l 460 600 l 368 600 l 368 582 q 392 578 383 579 q 427 560 417 571 q 440 532 438 550 q 442 478 442 514 l 442 453 l 442 254 q 442 223 442 238 q 443 194 443 208 q 436 144 443 167 q 385 79 421 100 q 299 58 350 58 q 205 87 236 58 q 165 165 174 115 q 163 185 165 172 q 163 203 163 193 q 164 239 163 214 q 165 278 165 264 l 164 461 l 165 599 l 93 599 l 15 599 l 14 582 q 26 581 22 581 q 64 553 53 575 q 74 510 71 536 q 78 457 78 485 q 76 421 76 438 q 76 390 76 404 l 74 203 q 139 40 74 94 q 196 15 156 25 q 265 4 236 4 q 313 13 272 4 q 364 25 354 21 q 406 58 385 33 q 440 100 417 71 l 440 49 l 440 33 q 446 4 440 7 q 474 6 451 0 q 513 19 496 11 q 568 49 529 26 q 599 67 579 54 m 447 842 q 392 869 426 869 q 350 856 368 869 q 322 800 322 835 q 336 758 322 776 q 392 731 357 731 q 433 744 415 731 q 461 800 461 765 q 447 842 461 824 m 233 756 q 246 793 246 772 q 217 850 246 831 q 179 863 200 863 q 122 833 142 863 q 110 796 110 817 q 139 739 110 758 q 176 726 156 726 q 233 756 214 726 "},"":{"ha":678,"x_min":-3,"x_max":663,"o":"m 494 972 l 350 972 l 283 761 l 333 756 l 494 972 m 663 578 l 663 597 l 421 597 l 421 583 q 463 563 450 571 q 499 517 501 538 q 450 322 481 415 q 399 179 442 294 q 382 133 393 161 l 301 289 q 243 404 257 375 q 206 483 211 469 q 201 507 201 496 q 249 565 201 540 q 294 583 264 574 l 294 603 l -3 603 l 0 581 q 21 565 14 571 q 88 483 65 526 q 139 383 96 467 q 222 225 172 319 q 256 153 236 200 q 281 101 264 135 q 317 32 297 67 q 325 18 319 26 q 288 -62 300 -36 q 225 -143 246 -143 q 188 -127 208 -143 q 147 -111 167 -111 q 93 -126 114 -111 q 72 -172 72 -140 q 91 -227 72 -210 q 142 -244 110 -244 q 222 -218 186 -244 q 250 -192 233 -210 q 332 -53 304 -103 q 440 157 415 94 q 486 271 465 219 q 549 444 522 357 q 603 547 568 511 q 663 578 624 568 "},"":{"ha":589,"x_min":-1,"x_max":560,"o":"m 554 349 q 492 479 539 426 q 372 536 440 536 q 327 531 350 536 q 281 513 304 525 q 221 458 258 500 q 188 419 208 444 q 190 524 189 465 q 190 656 190 583 q 189 767 190 678 q 183 857 188 856 q 144 854 175 863 q 103 842 129 850 l 10 818 l 10 796 q 36 800 22 800 q 76 792 65 800 q 89 708 86 783 q 89 617 89 663 q 86 481 88 549 q 83 347 85 413 l 83 176 q 81 81 83 128 q 78 -32 78 33 q 76 -148 78 -82 q 69 -224 75 -214 q 31 -248 57 -246 q -1 -254 4 -250 l -1 -269 q 68 -274 6 -274 q 112 -272 88 -272 q 165 -272 136 -272 q 201 -274 174 -272 q 243 -275 229 -275 q 275 -274 263 -275 q 290 -267 288 -272 l 289 -247 q 253 -247 265 -247 q 194 -228 215 -243 q 184 -183 185 -221 q 183 -114 183 -144 l 192 57 q 233 31 219 39 q 297 4 279 4 q 408 19 369 4 q 492 74 447 33 q 539 158 518 99 q 560 286 560 217 q 554 349 560 321 m 450 190 q 385 90 429 128 q 290 53 340 53 q 192 94 235 53 l 192 186 l 192 364 q 233 407 208 381 q 300 440 263 433 q 318 442 306 442 q 419 383 378 442 q 460 253 460 325 q 450 190 460 218 "},"":{"ha":696,"x_min":-3,"x_max":663,"o":"m 663 578 l 663 597 l 421 597 l 421 583 q 463 563 450 571 q 499 517 501 538 q 450 322 481 415 q 399 179 442 294 q 382 133 393 161 l 301 289 q 243 404 257 375 q 206 483 211 469 q 201 507 201 496 q 249 565 201 540 q 294 583 264 574 l 294 603 l -3 603 l 0 581 q 21 565 14 571 q 88 483 65 526 q 139 383 96 467 q 222 225 172 319 q 256 153 236 200 q 281 101 264 135 q 317 32 297 67 q 325 18 319 26 q 288 -62 300 -36 q 225 -143 246 -143 q 188 -127 208 -143 q 147 -111 167 -111 q 93 -126 114 -111 q 72 -172 72 -140 q 91 -227 72 -210 q 142 -244 110 -244 q 222 -218 186 -244 q 250 -192 233 -210 q 332 -53 304 -103 q 440 157 415 94 q 486 271 465 219 q 549 444 522 357 q 603 547 568 511 q 663 578 624 568 m 525 875 q 469 903 504 903 q 428 889 446 903 q 400 833 400 868 q 414 792 400 810 q 469 764 435 764 q 511 778 493 764 q 539 833 539 799 q 525 875 539 857 m 311 789 q 324 826 324 806 q 294 883 324 864 q 257 896 278 896 q 200 867 219 896 q 188 829 188 850 q 217 772 188 792 q 254 760 233 760 q 311 789 292 760 "},"\u0017":{"ha":340,"x_min":35,"x_max":313,"o":"m 307 21 q 308 33 304 25 q 307 44 313 42 q 263 58 283 51 q 234 79 243 65 q 223 116 225 93 q 221 181 221 139 q 219 263 219 225 q 219 333 219 301 l 219 496 q 220 533 219 514 q 221 572 221 551 q 220 603 221 588 q 218 631 219 618 l 139 593 l 44 551 l 53 525 q 64 531 58 529 q 79 532 69 532 q 99 517 92 532 q 106 477 106 503 q 107 425 107 451 q 107 399 107 415 q 110 364 107 382 q 113 326 113 346 q 110 288 111 307 q 108 246 108 268 q 110 194 108 228 q 111 147 111 160 q 110 122 111 143 q 106 93 108 100 q 65 57 97 74 q 35 44 56 53 l 35 25 l 307 21 "},"\u0019":{"ha":618,"x_min":83,"x_max":494,"o":"m 494 861 l 461 872 l 261 744 l 117 861 l 83 856 l 214 658 l 322 661 l 494 861 "},"\u0015":{"ha":506,"x_min":178,"x_max":389,"o":"m 389 867 l 244 867 l 178 656 l 228 650 l 389 867 "},"\u0016":{"ha":506,"x_min":43,"x_max":394,"o":"m 381 758 q 325 786 360 786 q 283 772 301 786 q 256 717 256 751 q 269 675 256 693 q 325 647 290 647 q 367 661 349 647 q 394 717 394 682 q 381 758 394 740 m 167 672 q 179 710 179 689 q 150 767 179 747 q 113 779 133 779 q 56 750 75 779 q 43 713 43 733 q 72 656 43 675 q 110 643 89 643 q 167 672 147 643 "},"\u0018":{"ha":618,"x_min":83,"x_max":494,"o":"m 494 717 l 322 917 l 214 919 l 83 722 l 117 717 l 261 833 l 461 706 l 494 717 "}}}
